
<svg width="15" height="15" viewBox="0 0 15 15" fill="none" xmlns="http://www.w3.org/2000/svg">
<path d="M11.7188 5.00002V6.31252C11.4438 6.27502 11.1312 6.25627 10.7812 6.25002V5.00002C10.7812 3.03127 10.225 1.71877 7.5 1.71877C4.775 1.71877 4.21875 3.03127 4.21875 5.00002V6.25002C3.86875 6.25627 3.55625 6.27502 3.28125 6.31252V5.00002C3.28125 3.18752 3.71875 0.781265 7.5 0.781265C11.2812 0.781265 11.7188 3.18752 11.7188 5.00002Z" fill="url(#paint0_linear_323_8394)"/>
<path d="M11.7188 6.31248C11.4438 6.27498 11.1313 6.25623 10.7812 6.24998H4.21875C3.86875 6.25623 3.55625 6.27498 3.28125 6.31248C1.6875 6.50623 1.25 7.28748 1.25 9.37498V10.625C1.25 13.125 1.875 13.75 4.375 13.75H10.625C13.125 13.75 13.75 13.125 13.75 10.625V9.37498C13.75 7.28748 13.3125 6.50623 11.7188 6.31248ZM5.44375 10.4437C5.325 10.5562 5.1625 10.625 5 10.625C4.91875 10.625 4.8375 10.6062 4.7625 10.575C4.68125 10.5437 4.61875 10.5 4.55625 10.4437C4.44375 10.325 4.375 10.1625 4.375 9.99998C4.375 9.91873 4.39375 9.83748 4.425 9.76248C4.45625 9.68748 4.5 9.61873 4.55625 9.55623C4.61875 9.49998 4.68125 9.45623 4.7625 9.42498C4.99375 9.32498 5.26875 9.38123 5.44375 9.55623C5.5 9.61873 5.54375 9.68748 5.575 9.76248C5.60625 9.83748 5.625 9.91873 5.625 9.99998C5.625 10.1625 5.55625 10.325 5.44375 10.4437ZM8.075 10.2375C8.04375 10.3125 8 10.3812 7.94375 10.4437C7.825 10.5562 7.6625 10.625 7.5 10.625C7.33125 10.625 7.175 10.5562 7.05625 10.4437C7 10.3812 6.95625 10.3125 6.925 10.2375C6.89375 10.1625 6.875 10.0812 6.875 9.99998C6.875 9.83123 6.94375 9.67498 7.05625 9.55623C7.2875 9.32498 7.70625 9.32498 7.94375 9.55623C8.05625 9.67498 8.125 9.83123 8.125 9.99998C8.125 10.0812 8.10625 10.1625 8.075 10.2375ZM10.4437 10.4437C10.325 10.5562 10.1625 10.625 10 10.625C9.8375 10.625 9.675 10.5562 9.55625 10.4437C9.44375 10.325 9.375 10.1687 9.375 9.99998C9.375 9.83123 9.44375 9.67498 9.55625 9.55623C9.79375 9.32498 10.2125 9.32498 10.4437 9.55623C10.4687 9.58748 10.4937 9.61873 10.5188 9.65623C10.5437 9.68748 10.5625 9.72498 10.575 9.76248C10.5938 9.79998 10.6062 9.83748 10.6125 9.87498C10.6187 9.91873 10.625 9.96248 10.625 9.99998C10.625 10.1625 10.5562 10.325 10.4437 10.4437Z" fill="url(#paint1_linear_323_8394)"/>
<defs>
<linearGradient id="paint0_linear_323_8394" x1="6.09375" y1="0.59689" x2="8.34342" y2="6.60237" gradientUnits="userSpaceOnUse">
<stop stop-color="#FDC60B"/>
<stop offset="1" stop-color="#FDE07E"/>
</linearGradient>
<linearGradient id="paint1_linear_323_8394" x1="5.41667" y1="5.99998" x2="8.26546" y2="14.309" gradientUnits="userSpaceOnUse">
<stop stop-color="#FDC60B"/>
<stop offset="1" stop-color="#FDE07E"/>
</linearGradient>
</defs>
</svg>
