
<svg width="121" height="245" viewBox="0 0 121 245" fill="none" xmlns="http://www.w3.org/2000/svg">
<g style="mix-blend-mode:overlay">
<path d="M126.85 -1.63H116.83V8.39H126.85V-1.63Z" fill="#0E1A60"/>
<path d="M126.85 11.86H116.83V21.88H126.85V11.86Z" fill="#0E1A60"/>
<path d="M126.85 25.34H116.83V35.36H126.85V25.34Z" fill="#0E1A60"/>
<path d="M126.85 38.83H116.83V48.85H126.85V38.83Z" fill="#0E1A60"/>
<path d="M126.85 52.31H116.83V62.33H126.85V52.31Z" fill="#0E1A60"/>
<path d="M126.85 65.8H116.83V75.82H126.85V65.8Z" fill="#0E1A60"/>
<path d="M126.85 79.28H116.83V89.3H126.85V79.28Z" fill="#0E1A60"/>
<path d="M126.85 92.77H116.83V102.79H126.85V92.77Z" fill="#0E1A60"/>
<path d="M126.85 119.74H116.83V129.76H126.85V119.74Z" fill="#0E1A60"/>
<path d="M126.85 133.22H116.83V143.24H126.85V133.22Z" fill="#0E1A60"/>
<path d="M126.85 146.71H116.83V156.73H126.85V146.71Z" fill="#0E1A60"/>
<path d="M126.85 187.16H116.83V197.18H126.85V187.16Z" fill="#0E1A60"/>
<path d="M126.85 200.65H116.83V210.67H126.85V200.65Z" fill="#0E1A60"/>
<path d="M126.85 214.13H116.83V224.15H126.85V214.13Z" fill="#0E1A60"/>
<path d="M110.16 -1.63H100.14V8.39H110.16V-1.63Z" fill="#0E1A60"/>
<path d="M110.16 11.86H100.14V21.88H110.16V11.86Z" fill="#0E1A60"/>
<path d="M110.16 25.34H100.14V35.36H110.16V25.34Z" fill="#0E1A60"/>
<path d="M110.16 38.83H100.14V48.85H110.16V38.83Z" fill="#0E1A60"/>
<path d="M110.16 52.31H100.14V62.33H110.16V52.31Z" fill="#0E1A60"/>
<path d="M110.16 65.8H100.14V75.82H110.16V65.8Z" fill="#0E1A60"/>
<path d="M110.16 79.28H100.14V89.3H110.16V79.28Z" fill="#0E1A60"/>
<path d="M110.16 92.77H100.14V102.79H110.16V92.77Z" fill="#0E1A60"/>
<path d="M110.16 106.25H100.14V116.27H110.16V106.25Z" fill="#0E1A60"/>
<path d="M110.16 119.74H100.14V129.76H110.16V119.74Z" fill="#0E1A60"/>
<path d="M110.16 133.22H100.14V143.24H110.16V133.22Z" fill="#0E1A60"/>
<path d="M110.16 146.71H100.14V156.73H110.16V146.71Z" fill="#0E1A60"/>
<path d="M110.16 160.19H100.14V170.21H110.16V160.19Z" fill="#0E1A60"/>
<path d="M110.16 173.68H100.14V183.7H110.16V173.68Z" fill="#0E1A60"/>
<path d="M110.16 187.16H100.14V197.18H110.16V187.16Z" fill="#0E1A60"/>
<path d="M110.16 200.65H100.14V210.67H110.16V200.65Z" fill="#0E1A60"/>
<path d="M110.16 214.13H100.14V224.15H110.16V214.13Z" fill="#0E1A60"/>
<path d="M93.4702 -1.63H83.4502V8.39H93.4702V-1.63Z" fill="#0E1A60"/>
<path d="M93.4702 11.86H83.4502V21.88H93.4702V11.86Z" fill="#0E1A60"/>
<path d="M93.4702 25.34H83.4502V35.36H93.4702V25.34Z" fill="#0E1A60"/>
<path d="M93.4702 38.83H83.4502V48.85H93.4702V38.83Z" fill="#0E1A60"/>
<path d="M93.4702 52.31H83.4502V62.33H93.4702V52.31Z" fill="#0E1A60"/>
<path d="M93.4702 65.8H83.4502V75.82H93.4702V65.8Z" fill="#0E1A60"/>
<path d="M93.4702 92.77H83.4502V102.79H93.4702V92.77Z" fill="#0E1A60"/>
<path d="M93.4702 106.25H83.4502V116.27H93.4702V106.25Z" fill="#0E1A60"/>
<path d="M93.4702 119.74H83.4502V129.76H93.4702V119.74Z" fill="#0E1A60"/>
<path d="M93.4702 133.22H83.4502V143.24H93.4702V133.22Z" fill="#0E1A60"/>
<path d="M93.4702 146.71H83.4502V156.73H93.4702V146.71Z" fill="#0E1A60"/>
<path d="M93.4702 160.19H83.4502V170.21H93.4702V160.19Z" fill="#0E1A60"/>
<path d="M93.4702 173.68H83.4502V183.7H93.4702V173.68Z" fill="#0E1A60"/>
<path d="M93.4702 187.16H83.4502V197.18H93.4702V187.16Z" fill="#0E1A60"/>
<path d="M76.7798 -1.63H66.7598V8.39H76.7798V-1.63Z" fill="#0E1A60"/>
<path d="M76.7798 11.86H66.7598V21.88H76.7798V11.86Z" fill="#0E1A60"/>
<path d="M76.7798 25.34H66.7598V35.36H76.7798V25.34Z" fill="#0E1A60"/>
<path d="M76.7798 38.83H66.7598V48.85H76.7798V38.83Z" fill="#0E1A60"/>
<path d="M76.7798 52.31H66.7598V62.33H76.7798V52.31Z" fill="#0E1A60"/>
<path d="M76.7798 65.8H66.7598V75.82H76.7798V65.8Z" fill="#0E1A60"/>
<path d="M76.7798 79.28H66.7598V89.3H76.7798V79.28Z" fill="#0E1A60"/>
<path d="M76.7798 92.77H66.7598V102.79H76.7798V92.77Z" fill="#0E1A60"/>
<path d="M76.7798 106.25H66.7598V116.27H76.7798V106.25Z" fill="#0E1A60"/>
<path d="M76.7798 119.74H66.7598V129.76H76.7798V119.74Z" fill="#0E1A60"/>
<path d="M76.7798 133.22H66.7598V143.24H76.7798V133.22Z" fill="#0E1A60"/>
<path d="M76.7798 146.71H66.7598V156.73H76.7798V146.71Z" fill="#0E1A60"/>
<path d="M76.7798 160.19H66.7598V170.21H76.7798V160.19Z" fill="#0E1A60"/>
<path d="M76.7798 173.68H66.7598V183.7H76.7798V173.68Z" fill="#0E1A60"/>
<path d="M76.7798 200.65H66.7598V210.67H76.7798V200.65Z" fill="#0E1A60"/>
<path d="M60.0903 -1.63H50.0703V8.39H60.0903V-1.63Z" fill="#0E1A60"/>
<path d="M60.0903 11.86H50.0703V21.88H60.0903V11.86Z" fill="#0E1A60"/>
<path d="M60.0903 25.34H50.0703V35.36H60.0903V25.34Z" fill="#0E1A60"/>
<path d="M60.0903 38.83H50.0703V48.85H60.0903V38.83Z" fill="#0E1A60"/>
<path d="M60.0903 52.31H50.0703V62.33H60.0903V52.31Z" fill="#0E1A60"/>
<path d="M60.0903 65.8H50.0703V75.82H60.0903V65.8Z" fill="#0E1A60"/>
<path d="M60.0903 79.28H50.0703V89.3H60.0903V79.28Z" fill="#0E1A60"/>
<path d="M60.0903 92.77H50.0703V102.79H60.0903V92.77Z" fill="#0E1A60"/>
<path d="M60.0903 106.25H50.0703V116.27H60.0903V106.25Z" fill="#0E1A60"/>
<path d="M60.0903 119.74H50.0703V129.76H60.0903V119.74Z" fill="#0E1A60"/>
<path d="M60.0903 133.22H50.0703V143.24H60.0903V133.22Z" fill="#0E1A60"/>
<path d="M60.0903 146.71H50.0703V156.73H60.0903V146.71Z" fill="#0E1A60"/>
<path d="M60.0903 160.19H50.0703V170.21H60.0903V160.19Z" fill="#0E1A60"/>
<path d="M60.0903 173.68H50.0703V183.7H60.0903V173.68Z" fill="#0E1A60"/>
<path d="M60.0903 187.16H50.0703V197.18H60.0903V187.16Z" fill="#0E1A60"/>
<path d="M60.0903 214.13H50.0703V224.15H60.0903V214.13Z" fill="#0E1A60"/>
<path d="M43.3999 -1.63H33.3799V8.39H43.3999V-1.63Z" fill="#0E1A60"/>
<path d="M43.3999 11.86H33.3799V21.88H43.3999V11.86Z" fill="#0E1A60"/>
<path d="M43.3999 25.34H33.3799V35.36H43.3999V25.34Z" fill="#0E1A60"/>
<path d="M43.3999 38.83H33.3799V48.85H43.3999V38.83Z" fill="#0E1A60"/>
<path d="M43.3999 52.31H33.3799V62.33H43.3999V52.31Z" fill="#0E1A60"/>
<path d="M43.3999 65.8H33.3799V75.82H43.3999V65.8Z" fill="#0E1A60"/>
<path d="M43.3999 79.28H33.3799V89.3H43.3999V79.28Z" fill="#0E1A60"/>
<path d="M43.3999 92.77H33.3799V102.79H43.3999V92.77Z" fill="#0E1A60"/>
<path d="M43.3999 119.74H33.3799V129.76H43.3999V119.74Z" fill="#0E1A60"/>
<path d="M43.3999 133.22H33.3799V143.24H43.3999V133.22Z" fill="#0E1A60"/>
<path d="M43.3999 146.71H33.3799V156.73H43.3999V146.71Z" fill="#0E1A60"/>
<path d="M43.3999 160.19H33.3799V170.21H43.3999V160.19Z" fill="#0E1A60"/>
<path d="M43.3999 173.68H33.3799V183.7H43.3999V173.68Z" fill="#0E1A60"/>
<path d="M43.3999 187.16H33.3799V197.18H43.3999V187.16Z" fill="#0E1A60"/>
<path d="M26.7104 -1.63H16.6904V8.39H26.7104V-1.63Z" fill="#0E1A60"/>
<path d="M26.7104 11.86H16.6904V21.88H26.7104V11.86Z" fill="#0E1A60"/>
<path d="M26.7104 25.34H16.6904V35.36H26.7104V25.34Z" fill="#0E1A60"/>
<path d="M26.7104 38.83H16.6904V48.85H26.7104V38.83Z" fill="#0E1A60"/>
<path d="M26.7104 52.31H16.6904V62.33H26.7104V52.31Z" fill="#0E1A60"/>
<path d="M26.7104 65.8H16.6904V75.82H26.7104V65.8Z" fill="#0E1A60"/>
<path d="M26.7104 79.28H16.6904V89.3H26.7104V79.28Z" fill="#0E1A60"/>
<path d="M26.7104 92.77H16.6904V102.79H26.7104V92.77Z" fill="#0E1A60"/>
<path d="M26.7104 106.25H16.6904V116.27H26.7104V106.25Z" fill="#0E1A60"/>
<path d="M26.7104 119.74H16.6904V129.76H26.7104V119.74Z" fill="#0E1A60"/>
<path d="M26.7104 133.22H16.6904V143.24H26.7104V133.22Z" fill="#0E1A60"/>
<path d="M26.7104 146.71H16.6904V156.73H26.7104V146.71Z" fill="#0E1A60"/>
<path d="M26.7104 160.19H16.6904V170.21H26.7104V160.19Z" fill="#0E1A60"/>
<path d="M26.7104 173.68H16.6904V183.7H26.7104V173.68Z" fill="#0E1A60"/>
<path d="M26.7104 187.16H16.6904V197.18H26.7104V187.16Z" fill="#0E1A60"/>
<path d="M26.7104 200.65H16.6904V210.67H26.7104V200.65Z" fill="#0E1A60"/>
<path d="M26.7104 214.13H16.6904V224.15H26.7104V214.13Z" fill="#0E1A60"/>
<path d="M10.02 -1.63H0L0 8.39H10.02V-1.63Z" fill="#0E1A60"/>
<path d="M10.02 11.86H0L0 21.88H10.02V11.86Z" fill="#0E1A60"/>
<path d="M10.02 25.34H0L0 35.36H10.02V25.34Z" fill="#0E1A60"/>
<path d="M10.02 38.83H0L0 48.85H10.02V38.83Z" fill="#0E1A60"/>
<path d="M10.02 52.31H0L0 62.33H10.02V52.31Z" fill="#0E1A60"/>
<path d="M10.02 65.8H0L0 75.82H10.02V65.8Z" fill="#0E1A60"/>
<path d="M10.02 79.28H0L0 89.3H10.02V79.28Z" fill="#0E1A60"/>
<path d="M10.02 92.77H0L0 102.79H10.02V92.77Z" fill="#0E1A60"/>
<path d="M10.02 106.25H0L0 116.27H10.02V106.25Z" fill="#0E1A60"/>
<path d="M10.02 133.22H0L0 143.24H10.02V133.22Z" fill="#0E1A60"/>
<path d="M10.02 146.71H0L0 156.73H10.02V146.71Z" fill="#0E1A60"/>
<path d="M10.02 160.19H0L0 170.21H10.02V160.19Z" fill="#0E1A60"/>
<path d="M10.02 173.68H0L0 183.7H10.02V173.68Z" fill="#0E1A60"/>
<path d="M10.02 187.16H0L0 197.18H10.02V187.16Z" fill="#0E1A60"/>
<path d="M10.02 200.65H0L0 210.67H10.02V200.65Z" fill="#0E1A60"/>
<path d="M10.02 214.13H0L0 224.15H10.02V214.13Z" fill="#0E1A60"/>
</g>
</svg>
