<svg width="75" height="69" viewBox="0 0 75 69" fill="none" xmlns="http://www.w3.org/2000/svg">
<path d="M15.1371 18.7786C17.3507 15.2586 19.3127 11.526 21.0546 7.56147C21.6242 6.26858 22.1697 4.95007 22.6926 3.60594C22.8764 3.13278 22.7905 2.62949 22.459 2.24524C22.126 1.85948 21.6423 1.70126 21.1465 1.81427C19.7587 2.13071 18.3769 2.49086 17.0026 2.89168C11.7286 4.43321 6.57358 6.58653 1.63105 9.35616L0.686243 9.88507C0.155825 10.1819 -0.103357 10.7741 0.0382888 11.3648L0.291443 12.4241C1.32365 16.7338 2.49599 20.8264 3.83108 24.7187C4.51821 26.7213 5.25055 28.6712 6.0281 30.5699C6.42591 31.5388 6.83427 32.4956 7.2562 33.4374C7.80922 34.6746 8.38635 35.8891 8.98307 37.0811C9.18047 37.4743 9.52102 37.726 9.95349 37.7998C10.386 37.8737 10.7913 37.7501 11.1078 37.4442C12.0812 36.5069 13.0245 35.5501 13.9377 34.5736C17.2844 30.9948 20.2364 27.1432 22.8463 22.9933C25.9926 17.9875 28.6311 12.5552 30.8538 6.63927C31.0406 6.14049 31.4731 5.81652 32.0035 5.77583C32.8489 5.70953 33.6957 5.6598 34.5426 5.62665C35.4151 5.59199 36.2891 5.57391 37.163 5.57391C38.2344 5.57391 39.3058 5.59953 40.3772 5.65227C40.8669 5.67638 41.3567 5.70501 41.8464 5.73967C42.2698 5.7698 42.6209 5.97172 42.859 6.32132C43.0971 6.67091 43.1559 7.07325 43.0293 7.47709C40.5701 15.2842 37.484 22.2444 33.5722 28.4663C29.8291 34.4214 25.313 39.7181 19.8491 44.4572C18.7853 45.3794 17.6868 46.2805 16.5491 47.162C15.9734 47.608 15.8604 48.4338 16.2929 49.0185C17.1337 50.1531 18.0062 51.2652 18.9103 52.3517C19.4166 52.9604 19.932 53.5602 20.4579 54.1539C21.695 55.5508 22.9894 56.9069 24.3411 58.2239C25.081 58.9442 25.8374 59.6525 26.6134 60.3501C28.0209 61.6159 29.487 62.844 31.018 64.0375C32.4857 65.1812 34.0107 66.2932 35.5959 67.3752L36.4081 67.9282C36.8722 68.2446 37.4524 68.2446 37.9165 67.9282L38.7287 67.3752C48.3033 60.8459 55.6825 53.1835 61.4086 44.0744C67.0955 35.0287 71.1234 24.5831 74.0361 12.4226L74.2893 11.3633C74.431 10.7726 74.1718 10.1804 73.6414 9.88356L72.6965 9.35465C70.7602 8.2682 68.7892 7.27818 66.7926 6.38159C65.5464 5.82255 64.2897 5.29966 63.0239 4.81445C62.6502 4.6713 62.272 4.6939 61.9179 4.88075C61.5638 5.0676 61.3317 5.36898 61.2413 5.75775C60.9264 7.09736 60.5979 8.41737 60.2543 9.7163C57.453 20.3051 53.6603 29.5181 48.5655 37.5813C44.7275 43.657 40.1346 49.0938 34.6556 53.9911C34.3542 54.2609 34.2005 54.612 34.2096 55.0158C34.2171 55.4197 34.3844 55.7647 34.6963 56.0224C35.4618 56.6523 36.2393 57.2686 37.0289 57.8683C37.5473 58.2616 38.2555 58.2315 38.7377 57.796C44.4352 52.644 49.2331 46.9239 53.2655 40.5393C58.2954 32.577 62.1168 23.5991 64.9964 13.4081C65.1079 13.0118 65.3656 12.715 65.7423 12.5477C66.1191 12.3804 66.5108 12.388 66.88 12.5718C66.9734 12.6185 67.0669 12.6652 67.1603 12.712C67.7329 12.9983 68.0177 13.6311 67.855 14.249C65.1622 24.4881 61.5728 33.3696 56.7056 41.1134C51.8686 48.8075 45.7447 55.4016 37.9511 61.1141C37.472 61.4652 36.8466 61.4652 36.3674 61.1141C36.1007 60.9182 35.834 60.7208 35.5703 60.5219C34.0333 59.3661 32.5626 58.1757 31.1552 56.9461C30.364 56.256 29.5925 55.5538 28.8421 54.8395C27.4799 53.5451 26.1825 52.2115 24.9453 50.8358C24.6621 50.5208 24.3818 50.2029 24.1045 49.8834C23.6253 49.3304 23.6796 48.4911 24.2266 48.0059C29.7734 43.0754 34.3979 37.5798 38.2676 31.4228C42.8515 24.1295 46.358 15.9276 49.0718 6.64982C49.4546 5.34035 49.8223 4.00978 50.1734 2.65812C50.2713 2.2814 50.214 1.91975 50.0016 1.59276C49.7906 1.26577 49.4847 1.06536 49.1005 1.00056C47.7443 0.771517 46.3821 0.581652 45.0184 0.430965C44.0133 0.320963 43.0082 0.230551 42.0016 0.162742C40.3893 0.0542473 38.7754 0 37.16 0C36.8692 0 36.5784 0.00150687 36.2876 0.00602748C35.2162 0.0195893 34.1463 0.0557542 33.0764 0.117536C31.3435 0.215482 29.6151 0.378224 27.8913 0.602748C27.3729 0.670557 26.9645 1.00508 26.7973 1.49934C26.19 3.28648 25.5466 5.02692 24.8655 6.72215C22.9457 11.5004 20.7261 15.9261 18.1448 20.0323C16.5325 22.5985 14.7755 25.0427 12.8618 27.3723C12.5513 27.749 12.0993 27.9208 11.6171 27.8454C11.1349 27.7701 10.7582 27.4657 10.5804 27.0106C10.4282 26.6219 10.2775 26.2301 10.1298 25.8353C9.35677 23.7844 8.63649 21.6718 7.96292 19.4929C7.43551 17.7856 6.93825 16.0391 6.4666 14.2505C6.30385 13.6311 6.58865 12.9998 7.16126 12.7135C8.21758 12.183 9.28444 11.6828 10.3588 11.2126C10.8968 10.976 11.4995 11.1071 11.8913 11.5441C12.2846 11.9811 12.3494 12.5944 12.0586 13.1037C11.5357 14.0169 10.9978 14.915 10.4432 15.798C10.2277 16.1401 10.178 16.5198 10.2971 16.9056L10.823 18.6098C11.0173 19.2367 11.2163 19.8636 11.4197 20.4874C11.5824 20.9847 11.9893 21.3252 12.5076 21.396C13.0275 21.4684 13.5097 21.2514 13.802 20.8174C14.2541 20.1453 14.6956 19.4657 15.1281 18.7771L15.1371 18.7786ZM18.294 42.1698C23.0633 37.6642 27.1122 32.7006 30.563 27.2126C33.7937 22.0726 36.4895 16.4806 38.7498 10.3778C38.9065 9.95589 38.8522 9.52191 38.5946 9.15122C38.3384 8.78053 37.9511 8.5771 37.5006 8.57409C37.3891 8.57409 37.2776 8.57409 37.1661 8.57409C36.3313 8.57409 35.498 8.59066 34.6631 8.62382L34.3482 8.63587C33.8012 8.65697 33.3461 8.98396 33.1518 9.49479C31.1069 14.8306 28.702 19.737 25.8615 24.2546C22.8809 28.9967 19.4091 33.3214 15.3601 37.28C14.2752 38.3408 13.1496 39.3745 11.9802 40.3826C11.486 40.809 11.37 41.5128 11.7015 42.0763C12.0993 42.7514 12.5046 43.4189 12.9205 44.079C13.0305 44.2553 13.142 44.4301 13.2535 44.6049C13.469 44.9424 13.787 45.1488 14.1833 45.2076C14.5796 45.2664 14.9442 45.1624 15.2486 44.9017C16.2944 44.0112 17.3085 43.0995 18.2925 42.1698H18.294ZM52.0479 7.26763C49.4003 16.8995 45.924 25.3094 41.2873 32.6855C37.7115 38.3739 33.4305 43.4626 28.2921 48.036C28.0118 48.2861 27.8611 48.6026 27.8446 48.9763C27.828 49.35 27.95 49.68 28.2077 49.9527C28.8798 50.667 29.5669 51.3662 30.2691 52.0518C30.7739 52.5446 31.571 52.5611 32.0954 52.0925C37.5759 47.1967 42.1523 41.7448 45.9873 35.645C50.9208 27.7972 54.6066 18.8946 57.3973 8.73382C57.774 7.36558 58.1326 5.97474 58.4777 4.5613C58.6465 3.86663 58.2411 3.16292 57.5555 2.961C56.6182 2.68374 55.678 2.42757 54.7347 2.18948C54.3745 2.09907 54.034 2.1503 53.716 2.34168C53.3981 2.53305 53.1946 2.81182 53.1072 3.17196C52.7697 4.5613 52.4171 5.92803 52.0479 7.26914V7.26763Z" fill="url(#paint0_linear_591_5664)"/>
<defs>
<linearGradient id="paint0_linear_591_5664" x1="38.5" y1="18" x2="54" y2="79" gradientUnits="userSpaceOnUse">
<stop stop-color="#4C67FF"/>
<stop offset="1" stop-color="#A143FF"/>
</linearGradient>
</defs>
</svg>
