<svg width="40" height="37" viewBox="0 0 40 37" fill="none" xmlns="http://www.w3.org/2000/svg">
<path d="M8.01853 10.4154C9.19113 8.55627 10.2304 6.58497 11.1532 4.4911C11.4549 3.80827 11.7439 3.11191 12.0208 2.40201C12.1182 2.15212 12.0727 1.88631 11.8971 1.68337C11.7207 1.47963 11.4645 1.39607 11.2019 1.45575C10.4667 1.62288 9.73472 1.81309 9.00674 2.02478C6.21294 2.83893 3.4822 3.97619 0.86401 5.43895L0.363521 5.71829C0.0825444 5.87508 -0.0547509 6.18784 0.0202826 6.49981L0.154385 7.05929C0.701171 9.33541 1.32219 11.4969 2.02942 13.5526C2.39341 14.6103 2.78135 15.6401 3.19324 16.6428C3.40397 17.1546 3.62029 17.6599 3.8438 18.1573C4.13675 18.8107 4.44247 19.4522 4.75857 20.0817C4.86313 20.2894 5.04353 20.4223 5.27262 20.4613C5.50172 20.5003 5.71644 20.435 5.88407 20.2735C6.39972 19.7785 6.89941 19.2731 7.38314 18.7574C9.156 16.8673 10.7197 14.8331 12.1023 12.6413C13.769 9.99755 15.1667 7.12853 16.344 4.00405C16.443 3.74062 16.6721 3.56952 16.9531 3.54803C17.4009 3.51301 17.8495 3.48675 18.2981 3.46924C18.7603 3.45094 19.2233 3.44139 19.6862 3.44139C20.2538 3.44139 20.8213 3.45491 21.3889 3.48277C21.6483 3.4955 21.9077 3.51062 22.1671 3.52893C22.3914 3.54484 22.5774 3.65149 22.7035 3.83612C22.8297 4.02076 22.8608 4.23325 22.7937 4.44654C21.491 8.5698 19.8563 12.2458 17.7841 15.5318C15.8013 18.677 13.409 21.4744 10.5146 23.9773C9.95104 24.4644 9.36913 24.9403 8.76647 25.4059C8.46155 25.6415 8.40168 26.0776 8.63077 26.3864C9.07618 26.9856 9.53835 27.573 10.0173 28.1468C10.2855 28.4683 10.5585 28.785 10.8371 29.0986C11.4924 29.8363 12.1781 30.5526 12.8941 31.2482C13.286 31.6286 13.6867 32.0026 14.0978 32.3711C14.8434 33.0396 15.6201 33.6882 16.4311 34.3185C17.2085 34.9226 18.0163 35.5099 18.8561 36.0813L19.2863 36.3734C19.5322 36.5405 19.8395 36.5405 20.0853 36.3734L20.5156 36.0813C25.5875 32.6329 29.4965 28.5861 32.5297 23.7752C35.5422 18.9977 37.6759 13.481 39.2189 7.0585L39.353 6.49902C39.428 6.18705 39.2907 5.87428 39.0097 5.7175L38.5093 5.43816C37.4835 4.86435 36.4394 4.34148 35.3818 3.86796C34.7217 3.5727 34.0559 3.29654 33.3854 3.04028C33.1875 2.96467 32.9871 2.97661 32.7995 3.0753C32.6119 3.17398 32.489 3.33315 32.4411 3.53848C32.2743 4.24598 32.1003 4.94314 31.9183 5.62916C30.4344 11.2216 28.4252 16.0873 25.7264 20.3459C23.6933 23.5547 21.2603 26.4262 18.358 29.0126C18.1983 29.1551 18.1169 29.3405 18.1217 29.5538C18.1257 29.7671 18.2143 29.9494 18.3795 30.0854C18.785 30.4181 19.1969 30.7436 19.6152 31.0604C19.8898 31.2681 20.2649 31.2521 20.5204 31.0222C23.5385 28.3012 26.08 25.2801 28.2161 21.9081C30.8806 17.7029 32.9049 12.9613 34.4303 7.57898C34.4894 7.36967 34.6259 7.21289 34.8254 7.12455C35.025 7.03621 35.2325 7.04019 35.4281 7.13728C35.4776 7.16196 35.5271 7.18663 35.5766 7.2113C35.8799 7.36251 36.0308 7.69676 35.9445 8.02306C34.5181 13.4308 32.6167 18.1215 30.0385 22.2114C27.4761 26.2749 24.2321 29.7576 20.1037 32.7746C19.8499 32.96 19.5186 32.96 19.2648 32.7746C19.1235 32.6711 18.9822 32.5669 18.8425 32.4618C18.0283 31.8514 17.2492 31.2227 16.5037 30.5733C16.0846 30.2088 15.6759 29.8379 15.2784 29.4607C14.5568 28.7771 13.8695 28.0728 13.2142 27.3461C13.0641 27.1798 12.9157 27.0119 12.7688 26.8432C12.5149 26.5511 12.5437 26.1078 12.8334 25.8516C15.7717 23.2476 18.2215 20.3451 20.2713 17.0933C22.6995 13.2414 24.557 8.90963 25.9946 4.00962C26.1974 3.31803 26.3921 2.6153 26.5781 1.90143C26.63 1.70247 26.5997 1.51146 26.4871 1.33877C26.3754 1.16607 26.2133 1.06022 26.0098 1.026C25.2914 0.905031 24.5698 0.804754 23.8474 0.72517C23.315 0.667073 22.7826 0.619323 22.2493 0.58351C21.3952 0.526209 20.5403 0.497559 19.6846 0.497559C19.5306 0.497559 19.3765 0.498354 19.2225 0.500742C18.6549 0.507905 18.0882 0.527005 17.5214 0.559634C16.6035 0.611364 15.6879 0.697315 14.7747 0.815896C14.5001 0.851709 14.2838 1.02839 14.1952 1.28942C13.8735 2.23329 13.5327 3.15249 13.1719 4.04782C12.1549 6.57144 10.9792 8.90883 9.61179 11.0775C8.75769 12.4328 7.82695 13.7237 6.8132 14.9541C6.64877 15.153 6.4093 15.2437 6.15387 15.204C5.89844 15.1642 5.69888 15.0034 5.60469 14.7631C5.52407 14.5577 5.44424 14.3508 5.36602 14.1423C4.95653 13.0592 4.57497 11.9434 4.21816 10.7926C3.93878 9.8909 3.67537 8.96852 3.42552 8.02385C3.33932 7.69676 3.49018 7.3633 3.79351 7.21209C4.35307 6.93196 4.91821 6.66774 5.48735 6.41943C5.77232 6.29449 6.09161 6.36372 6.29915 6.59452C6.50748 6.82531 6.54181 7.14922 6.38775 7.41822C6.11076 7.9005 5.8258 8.37482 5.53205 8.84119C5.4179 9.02184 5.39156 9.22239 5.45462 9.42613L5.7332 10.3262C5.83617 10.6573 5.94154 10.9884 6.0493 11.3179C6.13551 11.5805 6.35103 11.7603 6.62562 11.7977C6.90101 11.8359 7.15644 11.7213 7.3113 11.4921C7.55077 11.1372 7.78465 10.7783 8.01374 10.4146L8.01853 10.4154ZM9.69082 22.7693C12.2172 20.3897 14.362 17.7682 16.19 14.8697C17.9014 12.1551 19.3294 9.2017 20.5268 5.97854C20.6098 5.7557 20.581 5.5265 20.4445 5.33072C20.3088 5.13494 20.1037 5.0275 19.865 5.02591C19.806 5.02591 19.7469 5.02591 19.6878 5.02591C19.2456 5.02591 18.8042 5.03466 18.362 5.05217L18.1951 5.05854C17.9054 5.06968 17.6643 5.24238 17.5613 5.51217C16.4782 8.33025 15.2042 10.9215 13.6995 13.3075C12.1206 15.812 10.2815 18.0961 8.13667 20.1867C7.56194 20.747 6.96567 21.293 6.34624 21.8254C6.08442 22.0506 6.02296 22.4223 6.19857 22.7199C6.4093 23.0764 6.62402 23.429 6.84434 23.7776C6.90261 23.8707 6.96167 23.963 7.02074 24.0553C7.13489 24.2336 7.30332 24.3426 7.51325 24.3737C7.72319 24.4047 7.91636 24.3498 8.0776 24.2121C8.63157 23.7418 9.16878 23.2603 9.69002 22.7693H9.69082ZM27.5711 4.33591C26.1686 9.42295 24.3271 13.8646 21.871 17.7602C19.9768 20.7645 17.709 23.4521 14.9871 25.8675C14.8386 25.9996 14.7588 26.1667 14.75 26.3641C14.7412 26.5614 14.8059 26.7357 14.9424 26.8798C15.2984 27.257 15.6624 27.6263 16.0343 27.9884C16.3017 28.2486 16.724 28.2574 17.0018 28.0099C19.9049 25.4242 22.3292 22.5448 24.3607 19.3232C26.9741 15.1785 28.9265 10.4766 30.4048 5.11027C30.6044 4.38764 30.7944 3.65308 30.9772 2.90658C31.0666 2.53969 30.8518 2.16804 30.4887 2.06139C29.9922 1.91496 29.4941 1.77966 28.9944 1.65392C28.8036 1.60617 28.6232 1.63323 28.4548 1.7343C28.2863 1.83537 28.1786 1.9826 28.1323 2.17281C27.9535 2.90658 27.7667 3.62841 27.5711 4.33671V4.33591Z" fill="#A143FF"/>
</svg>
