<svg width="466" height="460" viewBox="0 0 466 460" fill="none" xmlns="http://www.w3.org/2000/svg">
<path style="mix-blend-mode:color-dodge" d="M233 459.485C361.682 459.485 466 356.626 466 229.743C466 102.859 361.682 0 233 0C104.318 0 0 102.859 0 229.743C0 356.626 104.318 459.485 233 459.485Z" fill="url(#paint0_radial_0_1)"/>
<circle cx="167.5" cy="132.5" r="127.5" fill="#0E1A60"/>
<path d="M59.9428 331.878L47.0628 313.524H55.5268L63.6228 325.3L71.7188 313.524H80.1368L67.3028 331.878V346H59.9428V331.878ZM89.9254 346.69C86.6748 346.69 83.8994 346.092 81.5994 344.896C79.3301 343.7 77.7048 341.983 76.7234 339.744C76.0488 338.211 75.7114 336.493 75.7114 334.592C75.7114 332.629 76.0488 330.912 76.7234 329.44C77.7048 327.201 79.3301 325.484 81.5994 324.288C83.8994 323.061 86.6748 322.448 89.9254 322.448C93.1761 322.448 95.9361 323.046 98.2054 324.242C100.505 325.407 102.146 327.094 103.127 329.302C103.833 330.897 104.185 332.66 104.185 334.592C104.185 336.524 103.833 338.272 103.127 339.836C102.146 342.044 100.505 343.746 98.2054 344.942C95.9361 346.107 93.1761 346.69 89.9254 346.69ZM89.9254 341.216C91.4588 341.216 92.7621 340.94 93.8354 340.388C94.9394 339.805 95.7368 338.977 96.2274 337.904C96.6261 337.015 96.8254 335.911 96.8254 334.592C96.8254 333.212 96.6261 332.108 96.2274 331.28C95.7368 330.207 94.9394 329.394 93.8354 328.842C92.7621 328.259 91.4588 327.968 89.9254 327.968C88.3921 327.968 87.0734 328.259 85.9694 328.842C84.8961 329.394 84.1141 330.207 83.6234 331.28C83.2248 332.108 83.0254 333.212 83.0254 334.592C83.0254 335.941 83.2248 337.03 83.6234 337.858C84.1141 338.931 84.8961 339.759 85.9694 340.342C87.0734 340.925 88.3921 341.216 89.9254 341.216ZM132.66 323.184V346H125.668V342.964C123.767 345.479 120.976 346.736 117.296 346.736C114.168 346.736 111.745 345.893 110.028 344.206C108.341 342.519 107.498 340.081 107.498 336.892V323.184H114.49V335.512C114.49 337.444 114.935 338.885 115.824 339.836C116.713 340.756 118.047 341.216 119.826 341.216C121.727 341.216 123.169 340.664 124.15 339.56C125.162 338.456 125.668 336.877 125.668 334.822V323.184H132.66ZM137.646 323.184H144.592V325.024C145.175 324.165 145.788 323.537 146.432 323.138C147.107 322.739 147.873 322.54 148.732 322.54C150.02 322.54 151.047 322.923 151.814 323.69C152.581 324.426 152.964 325.407 152.964 326.634C152.964 327.431 152.795 328.137 152.458 328.75C152.121 329.363 151.645 329.839 151.032 330.176C150.419 330.513 149.729 330.682 148.962 330.682C148.134 330.682 147.413 330.498 146.8 330.13C146.187 329.762 145.711 329.256 145.374 328.612C145.067 328.765 144.868 328.98 144.776 329.256C144.684 329.501 144.638 329.961 144.638 330.636V346H137.646V323.184ZM179.714 346.92C176.034 346.92 172.952 346.353 170.468 345.218C167.984 344.083 166.251 342.427 165.27 340.25C164.656 338.87 164.35 337.337 164.35 335.65H172.216C172.216 336.57 172.384 337.413 172.722 338.18C173.182 339.253 174.025 340.051 175.252 340.572C176.509 341.093 178.058 341.354 179.898 341.354C181.554 341.354 182.964 341.139 184.13 340.71C185.326 340.281 186.123 339.652 186.522 338.824C186.736 338.364 186.844 337.858 186.844 337.306C186.844 336.754 186.736 336.279 186.522 335.88C186.215 335.205 185.648 334.653 184.82 334.224C184.022 333.764 183.102 333.396 182.06 333.12C181.048 332.844 179.683 332.537 177.966 332.2L175.758 331.74C173.151 331.157 171.004 330.421 169.318 329.532C167.662 328.612 166.481 327.385 165.776 325.852C165.346 324.84 165.132 323.705 165.132 322.448C165.132 321.191 165.377 319.995 165.868 318.86C166.45 317.541 167.386 316.422 168.674 315.502C169.992 314.551 171.572 313.831 173.412 313.34C175.252 312.849 177.245 312.604 179.392 312.604C182.673 312.604 185.494 313.156 187.856 314.26C190.248 315.364 191.919 316.959 192.87 319.044C193.422 320.332 193.698 321.773 193.698 323.368H186.062C186 322.356 185.832 321.543 185.556 320.93C184.666 318.967 182.566 317.986 179.254 317.986C177.782 317.986 176.478 318.201 175.344 318.63C174.24 319.029 173.504 319.627 173.136 320.424C172.982 320.761 172.906 321.175 172.906 321.666C172.906 322.157 172.982 322.555 173.136 322.862C173.381 323.445 173.856 323.935 174.562 324.334C175.267 324.733 176.064 325.055 176.954 325.3C177.874 325.545 179.146 325.837 180.772 326.174C181.262 326.266 182.029 326.435 183.072 326.68C184.973 327.079 186.629 327.523 188.04 328.014C189.45 328.505 190.692 329.149 191.766 329.946C192.839 330.743 193.652 331.725 194.204 332.89C194.664 333.933 194.894 335.175 194.894 336.616C194.894 338.057 194.633 339.376 194.112 340.572C193.161 342.688 191.413 344.283 188.868 345.356C186.353 346.399 183.302 346.92 179.714 346.92ZM217.093 340.25C217.706 339.729 218.089 339.069 218.243 338.272H225.327C225.02 340.296 224.115 342.013 222.613 343.424C221.355 344.559 219.791 345.402 217.921 345.954C216.081 346.475 214.041 346.736 211.803 346.736C208.521 346.736 205.715 346.153 203.385 344.988C201.054 343.792 199.398 342.09 198.417 339.882C197.742 338.41 197.405 336.647 197.405 334.592C197.405 332.599 197.757 330.805 198.463 329.21C199.444 327.002 201.054 325.331 203.293 324.196C205.531 323.031 208.23 322.448 211.389 322.448C214.578 322.448 217.277 323.046 219.485 324.242C221.693 325.438 223.287 327.155 224.269 329.394C224.698 330.406 225.005 331.464 225.189 332.568C225.373 333.672 225.465 334.945 225.465 336.386H204.443C204.535 337.183 204.719 337.889 204.995 338.502C205.455 339.575 206.283 340.388 207.479 340.94C208.675 341.461 210.131 341.722 211.849 341.722C212.953 341.722 213.965 341.599 214.885 341.354C215.805 341.109 216.541 340.741 217.093 340.25ZM211.435 327.37C209.809 327.37 208.445 327.646 207.341 328.198C206.267 328.75 205.485 329.578 204.995 330.682C204.78 331.081 204.627 331.587 204.535 332.2H218.427C218.335 331.709 218.166 331.173 217.921 330.59C217.43 329.517 216.617 328.719 215.483 328.198C214.379 327.646 213.029 327.37 211.435 327.37ZM247.64 340.25C248.253 339.729 248.636 339.069 248.79 338.272H255.874C255.567 340.296 254.662 342.013 253.16 343.424C251.902 344.559 250.338 345.402 248.468 345.954C246.628 346.475 244.588 346.736 242.35 346.736C239.068 346.736 236.262 346.153 233.932 344.988C231.601 343.792 229.945 342.09 228.964 339.882C228.289 338.41 227.952 336.647 227.952 334.592C227.952 332.599 228.304 330.805 229.01 329.21C229.991 327.002 231.601 325.331 233.84 324.196C236.078 323.031 238.777 322.448 241.936 322.448C245.125 322.448 247.824 323.046 250.032 324.242C252.24 325.438 253.834 327.155 254.816 329.394C255.245 330.406 255.552 331.464 255.736 332.568C255.92 333.672 256.012 334.945 256.012 336.386H234.99C235.082 337.183 235.266 337.889 235.542 338.502C236.002 339.575 236.83 340.388 238.026 340.94C239.222 341.461 240.678 341.722 242.396 341.722C243.5 341.722 244.512 341.599 245.432 341.354C246.352 341.109 247.088 340.741 247.64 340.25ZM241.982 327.37C240.356 327.37 238.992 327.646 237.888 328.198C236.814 328.75 236.032 329.578 235.542 330.682C235.327 331.081 235.174 331.587 235.082 332.2H248.974C248.882 331.709 248.713 331.173 248.468 330.59C247.977 329.517 247.164 328.719 246.03 328.198C244.926 327.646 243.576 327.37 241.982 327.37ZM286.191 313.524V346H279.337V343.056C278.325 344.252 277.067 345.157 275.565 345.77C274.062 346.383 272.375 346.69 270.505 346.69C267.929 346.69 265.69 346.153 263.789 345.08C261.918 343.976 260.538 342.412 259.649 340.388C258.882 338.671 258.499 336.739 258.499 334.592C258.499 332.415 258.882 330.483 259.649 328.796C260.538 326.772 261.918 325.208 263.789 324.104C265.69 323 267.929 322.448 270.505 322.448C272.345 322.448 274.001 322.739 275.473 323.322C276.945 323.905 278.187 324.763 279.199 325.898V313.524H286.191ZM279.245 334.224C279.245 332.875 278.953 331.74 278.371 330.82C277.819 329.869 277.037 329.164 276.025 328.704C275.043 328.213 273.893 327.968 272.575 327.968C271.103 327.968 269.83 328.244 268.757 328.796C267.714 329.348 266.947 330.161 266.457 331.234C266.058 332.185 265.859 333.304 265.859 334.592C265.859 335.849 266.058 336.953 266.457 337.904C266.947 338.977 267.729 339.805 268.803 340.388C269.876 340.94 271.133 341.216 272.575 341.216C273.893 341.216 275.043 340.986 276.025 340.526C277.037 340.035 277.819 339.33 278.371 338.41C278.953 337.459 279.245 336.309 279.245 334.96V334.224Z" fill="white"/>
<path d="M155.62 131.142C155.62 130.152 154.817 129.35 153.827 129.35C146.552 129.35 140.685 130.929 136.386 134.043C123.838 143.135 123.121 166.418 123.207 173.335C123.219 174.317 124.018 175.106 125 175.106H125.021C125.497 175.101 125.952 174.907 126.284 174.566C126.617 174.226 126.8 173.767 126.794 173.29C126.738 168.674 127.045 145.232 138.491 136.941C142.166 134.281 147.327 132.931 153.829 132.931C154.817 132.93 155.618 132.13 155.62 131.142Z" fill="white"/>
<path d="M163.728 171.79C160.055 174.45 154.901 175.8 148.392 175.8C147.402 175.8 146.6 176.603 146.6 177.593C146.6 178.583 147.402 179.385 148.392 179.385C155.667 179.385 161.534 177.806 165.831 174.692C166.369 174.324 166.665 173.693 166.603 173.044C166.542 172.395 166.133 171.83 165.535 171.57C164.938 171.309 164.246 171.393 163.728 171.79Z" fill="white"/>
<path d="M208.299 111.118C208.428 105.147 207.634 93.5059 200.295 86.3801C192.293 78.5894 179.13 78.7364 173.841 79.1594C171.652 79.2941 169.924 81.0719 169.851 83.2646C169.575 88.5618 169.797 101.729 177.801 109.507C184.19 115.717 193.872 116.876 200.209 116.876C200.77 116.876 201.296 116.866 201.801 116.849C202.963 119.054 203.937 121.352 204.712 123.721C204.935 124.446 205.086 125.191 205.162 125.945C203.735 125.675 202.37 125.142 201.138 124.373L200.451 123.947C199.491 123.31 198.481 122.753 197.431 122.279C190.231 119.029 181.785 120.397 175.98 125.755C175.723 124.814 175.386 123.896 174.973 123.013C174.495 122.236 173.511 121.941 172.685 122.327C171.86 122.713 171.455 123.658 171.746 124.522C159.309 121.494 143.376 120.134 132.186 128.243C117.372 138.965 115.934 163.352 116.002 173.337C116.019 177.182 118.487 180.588 122.135 181.802C130.587 184.725 139.441 186.319 148.382 186.527C156.017 186.527 163.799 185.014 170.045 180.495C181.661 172.07 184.99 155.276 185.877 144.094C185.994 144.237 186.116 144.375 186.216 144.528C186.765 145.351 187.879 145.574 188.702 145.024C189.526 144.475 189.748 143.362 189.199 142.538C188.179 141.1 186.826 139.931 185.255 139.132C185.172 139.072 185.083 139.021 184.99 138.978C184.22 138.578 183.424 138.233 182.606 137.945C183.12 137.615 183.654 137.316 184.205 137.049C185.539 136.331 187.074 136.079 188.568 136.332C189.76 136.704 190.868 137.307 191.827 138.107C192.27 138.424 192.711 138.736 193.159 139.026C194.728 140.069 196.416 140.92 198.187 141.561C200.269 142.296 202.458 142.68 204.666 142.697C209.747 142.844 214.552 140.39 217.413 136.189C220.275 131.988 220.799 126.619 218.802 121.944C216.786 117.144 213.036 113.279 208.299 111.118ZM180.302 106.936C173.348 100.174 173.187 88.2606 173.431 83.4492C173.423 83.2601 173.493 83.0762 173.625 82.9405C173.757 82.8049 173.939 82.7295 174.128 82.7321C175.132 82.6533 176.446 82.5834 177.963 82.5834C183.699 82.5834 192.304 83.598 197.796 88.9436C203.215 94.2122 204.508 102.6 204.698 108.327C199.563 99.7241 192.108 92.7421 183.186 88.1817C182.317 87.7075 181.228 88.0277 180.754 88.897C180.28 89.7663 180.6 90.8554 181.469 91.3296C195.884 99.1939 201.342 108.964 203.137 113.2C197.909 113.526 186.881 113.332 180.302 106.936ZM167.944 177.593C154.452 187.361 132.215 181.415 123.273 178.401C121.079 177.674 119.595 175.626 119.587 173.314C119.523 163.883 120.823 140.892 134.287 131.146C145.496 123.027 162.894 125.859 172.94 128.527C173.503 131.518 173.093 134.612 171.769 137.354C171.492 137.908 171.521 138.567 171.846 139.095C172.171 139.623 172.746 139.945 173.366 139.948C176.475 139.983 179.551 140.578 182.448 141.706C181.867 152.105 179.157 169.463 167.944 177.593ZM215.314 132.673C213.163 137.214 207.247 140.865 199.36 138.166C197.858 137.617 196.427 136.891 195.097 136.004C194.695 135.746 194.303 135.466 193.906 135.183C192.56 134.081 190.998 133.273 189.321 132.811C187.054 132.384 184.71 132.731 182.665 133.797C181.011 134.62 179.455 135.627 178.027 136.798C177.281 136.676 176.568 136.576 175.953 136.515C176.605 134.418 176.86 132.219 176.706 130.029C182.053 124.328 189.514 122.554 195.97 125.556C196.864 125.965 197.724 126.444 198.542 126.99L199.259 127.435C199.438 127.548 203.794 130.163 206.544 129.393C207.327 129.185 207.985 128.656 208.357 127.937C208.912 126.222 208.836 124.366 208.143 122.702C207.459 120.534 206.597 118.426 205.566 116.4C205.949 116.249 206.308 116.042 206.63 115.786L206.699 115.729C207.041 115.449 207.337 115.116 207.573 114.741C211.122 116.564 213.915 119.58 215.461 123.258C216.742 126.277 216.688 129.696 215.314 132.673Z" fill="white"/>
<defs>
<radialGradient id="paint0_radial_0_1" cx="0" cy="0" r="1" gradientUnits="userSpaceOnUse" gradientTransform="translate(242.294 195.523) rotate(90) scale(230.427 232.431)">
<stop stop-color="white"/>
<stop offset="9%" stop-color="rgba(30, 144, 255, 0.77)"/>  <!-- DodgerBlue -->
  <stop offset="17%" stop-color="rgba(30, 144, 255, 0.59)"/>  <!-- DodgerBlue with less opacity -->
  <stop offset="26%" stop-color="rgba(25, 130, 230, 0.43)"/>  <!-- Slightly darker blue -->
  <stop offset="35%" stop-color="rgba(20, 115, 205, 0.3)"/>   <!-- Darker blue -->
  <stop offset="45%" stop-color="rgba(15, 100, 180, 0.19)"/>  <!-- Even darker blue -->
  <stop offset="55%" stop-color="rgba(10, 85, 155, 0.1)"/>    <!-- Fading blue -->
  <stop offset="66%" stop-color="rgba(5, 70, 130, 0.05)"/>    <!-- Very faint blue -->
  <stop offset="80%" stop-color="rgba(2, 55, 105, 0.01)"/>    <!-- Almost transparent blue -->
  <stop offset="100%" stop-color="rgba(0, 0, 0, 0)"/> 
</radialGradient>
</defs>
</svg>
