<svg width="506" height="460" viewBox="0 0 506 460" fill="none" xmlns="http://www.w3.org/2000/svg">
<path style="mix-blend-mode:color-dodge" d="M273 459.485C401.682 459.485 506 356.626 506 229.743C506 102.859 401.682 0 273 0C144.318 0 40 102.859 40 229.743C40 356.626 144.318 459.485 273 459.485Z" fill="url(#paint0_radial_0_1)"/>
<circle cx="207.5" cy="132.5" r="127.5" fill="#0E1A60"/>
<path d="M11.2694 343.35H8.32538V356H0.965383V323.524H17.2954C20.0554 323.524 22.3554 323.984 24.1954 324.904C26.0354 325.793 27.3541 327.112 28.1514 328.86C28.7341 330.179 29.0254 331.651 29.0254 333.276C29.0254 335.116 28.7187 336.695 28.1054 338.014C27.4307 339.547 26.3881 340.759 24.9774 341.648C23.5974 342.537 21.8801 343.074 19.8254 343.258L31.4174 356H22.3094L11.2694 343.35ZM8.32538 338.152H15.3174C16.9121 338.152 18.1847 337.983 19.1354 337.646C20.0861 337.278 20.7454 336.68 21.1134 335.852C21.3894 335.208 21.5274 334.441 21.5274 333.552C21.5274 332.755 21.3894 332.08 21.1134 331.528C20.7454 330.669 20.0707 330.056 19.0894 329.688C18.1387 329.32 16.8814 329.136 15.3174 329.136H8.32538V338.152ZM50.6191 350.25C51.2325 349.729 51.6158 349.069 51.7691 348.272H58.8532C58.5465 350.296 57.6418 352.013 56.1391 353.424C54.8818 354.559 53.3178 355.402 51.4471 355.954C49.6071 356.475 47.5678 356.736 45.3291 356.736C42.0478 356.736 39.2418 356.153 36.9111 354.988C34.5805 353.792 32.9245 352.09 31.9431 349.882C31.2685 348.41 30.9311 346.647 30.9311 344.592C30.9311 342.599 31.2838 340.805 31.9891 339.21C32.9705 337.002 34.5805 335.331 36.8191 334.196C39.0578 333.031 41.7565 332.448 44.9151 332.448C48.1045 332.448 50.8031 333.046 53.0111 334.242C55.2191 335.438 56.8138 337.155 57.7952 339.394C58.2245 340.406 58.5311 341.464 58.7151 342.568C58.8991 343.672 58.9911 344.945 58.9911 346.386H37.9691C38.0611 347.183 38.2451 347.889 38.5211 348.502C38.9811 349.575 39.8091 350.388 41.0051 350.94C42.2011 351.461 43.6578 351.722 45.3751 351.722C46.4791 351.722 47.4911 351.599 48.4111 351.354C49.3311 351.109 50.0671 350.741 50.6191 350.25ZM44.9611 337.37C43.3358 337.37 41.9711 337.646 40.8671 338.198C39.7938 338.75 39.0118 339.578 38.5211 340.682C38.3065 341.081 38.1531 341.587 38.0611 342.2H51.9532C51.8611 341.709 51.6925 341.173 51.4471 340.59C50.9565 339.517 50.1438 338.719 49.0091 338.198C47.9051 337.646 46.5558 337.37 44.9611 337.37ZM88.94 333.184V354.436C88.94 356.644 88.5874 358.545 87.882 360.14C86.1034 364.065 82.0247 366.028 75.646 366.028C70.7394 366.028 67.1514 365.001 64.882 362.946C63.3794 361.627 62.49 359.849 62.214 357.61H69.574C69.666 358.377 70.034 359.051 70.678 359.634C71.1994 360.125 71.874 360.493 72.702 360.738C73.5607 360.983 74.496 361.106 75.508 361.106C78.5747 361.106 80.5374 360.125 81.396 358.162C81.7334 357.303 81.902 356.337 81.902 355.264V352.734C80.9207 353.899 79.694 354.789 78.222 355.402C76.7807 355.985 75.14 356.276 73.3 356.276C70.7547 356.276 68.5467 355.739 66.676 354.666C64.836 353.593 63.4714 352.059 62.582 350.066C61.846 348.441 61.478 346.539 61.478 344.362C61.478 342.185 61.846 340.268 62.582 338.612C63.4714 336.649 64.836 335.131 66.676 334.058C68.5467 332.985 70.7547 332.448 73.3 332.448C75.1707 332.448 76.842 332.77 78.314 333.414C79.786 334.027 81.0127 334.917 81.994 336.082V333.184H88.94ZM75.37 350.894C77.3327 350.894 78.912 350.373 80.108 349.33C81.304 348.287 81.902 346.769 81.902 344.776V343.994C81.902 342.001 81.304 340.498 80.108 339.486C78.912 338.443 77.3327 337.922 75.37 337.922C73.9287 337.922 72.6867 338.198 71.644 338.75C70.632 339.271 69.896 340.053 69.436 341.096C69.0374 341.924 68.838 343.013 68.838 344.362C68.838 345.711 69.0374 346.831 69.436 347.72C69.896 348.763 70.632 349.56 71.644 350.112C72.6867 350.633 73.9287 350.894 75.37 350.894ZM97.441 330.148C96.2757 330.148 95.325 329.811 94.589 329.136C93.8837 328.461 93.531 327.587 93.531 326.514C93.531 325.441 93.899 324.567 94.635 323.892C95.371 323.187 96.3064 322.834 97.441 322.834C98.545 322.834 99.4497 323.187 100.155 323.892C100.891 324.567 101.259 325.441 101.259 326.514C101.259 327.587 100.891 328.461 100.155 329.136C99.4497 329.811 98.545 330.148 97.441 330.148ZM93.899 333.184H100.891V356H93.899V333.184ZM116.06 356.782C113.3 356.782 110.985 356.383 109.114 355.586C107.274 354.789 105.986 353.577 105.25 351.952C104.76 350.879 104.514 349.698 104.514 348.41H111.46C111.46 349.023 111.583 349.606 111.828 350.158C112.442 351.507 113.914 352.182 116.244 352.182C117.318 352.182 118.207 352.075 118.912 351.86C119.618 351.615 120.078 351.247 120.292 350.756C120.415 350.511 120.476 350.204 120.476 349.836C120.476 349.499 120.415 349.192 120.292 348.916C120.108 348.517 119.74 348.195 119.188 347.95C118.667 347.705 117.977 347.49 117.118 347.306C116.29 347.091 115.002 346.815 113.254 346.478C111.384 346.11 109.804 345.604 108.516 344.96C107.259 344.285 106.354 343.335 105.802 342.108C105.465 341.341 105.296 340.498 105.296 339.578C105.296 338.658 105.48 337.784 105.848 336.956C106.523 335.453 107.78 334.334 109.62 333.598C111.491 332.831 113.668 332.448 116.152 332.448C118.667 332.448 120.829 332.831 122.638 333.598C124.448 334.365 125.705 335.515 126.41 337.048C126.809 337.999 127.008 338.995 127.008 340.038H120.246C120.246 339.455 120.154 338.965 119.97 338.566C119.694 337.953 119.204 337.493 118.498 337.186C117.824 336.879 117.011 336.726 116.06 336.726C114.128 336.726 112.963 337.171 112.564 338.06C112.442 338.275 112.38 338.551 112.38 338.888C112.38 339.195 112.442 339.455 112.564 339.67C112.84 340.222 113.423 340.651 114.312 340.958C115.202 341.234 116.444 341.525 118.038 341.832L119.234 342.062C121.412 342.522 123.16 343.105 124.478 343.81C125.797 344.515 126.732 345.481 127.284 346.708C127.622 347.383 127.79 348.226 127.79 349.238C127.79 350.311 127.606 351.262 127.238 352.09C126.502 353.685 125.138 354.865 123.144 355.632C121.151 356.399 118.79 356.782 116.06 356.782ZM141.451 356.46C138.599 356.46 136.483 355.801 135.103 354.482C133.723 353.163 133.033 351.109 133.033 348.318V338.612H129.215V333.184H133.033V327.618H140.025V333.184H147.017V338.612H140.025V346.846C140.025 348.226 140.331 349.238 140.945 349.882C141.589 350.526 142.524 350.848 143.751 350.848C144.64 350.848 145.667 350.71 146.833 350.434V355.908C144.901 356.276 143.107 356.46 141.451 356.46ZM168.494 350.25C169.107 349.729 169.491 349.069 169.644 348.272H176.728C176.421 350.296 175.517 352.013 174.014 353.424C172.757 354.559 171.193 355.402 169.322 355.954C167.482 356.475 165.443 356.736 163.204 356.736C159.923 356.736 157.117 356.153 154.786 354.988C152.455 353.792 150.799 352.09 149.818 349.882C149.143 348.41 148.806 346.647 148.806 344.592C148.806 342.599 149.159 340.805 149.864 339.21C150.845 337.002 152.455 335.331 154.694 334.196C156.933 333.031 159.631 332.448 162.79 332.448C165.979 332.448 168.678 333.046 170.886 334.242C173.094 335.438 174.689 337.155 175.67 339.394C176.099 340.406 176.406 341.464 176.59 342.568C176.774 343.672 176.866 344.945 176.866 346.386H155.844C155.936 347.183 156.12 347.889 156.396 348.502C156.856 349.575 157.684 350.388 158.88 350.94C160.076 351.461 161.533 351.722 163.25 351.722C164.354 351.722 165.366 351.599 166.286 351.354C167.206 351.109 167.942 350.741 168.494 350.25ZM162.836 337.37C161.211 337.37 159.846 337.646 158.742 338.198C157.669 338.75 156.887 339.578 156.396 340.682C156.181 341.081 156.028 341.587 155.936 342.2H169.828C169.736 341.709 169.567 341.173 169.322 340.59C168.831 339.517 168.019 338.719 166.884 338.198C165.78 337.646 164.431 337.37 162.836 337.37ZM180.463 333.184H187.409V335.024C187.992 334.165 188.605 333.537 189.249 333.138C189.924 332.739 190.691 332.54 191.549 332.54C192.837 332.54 193.865 332.923 194.631 333.69C195.398 334.426 195.781 335.407 195.781 336.634C195.781 337.431 195.613 338.137 195.275 338.75C194.938 339.363 194.463 339.839 193.849 340.176C193.236 340.513 192.546 340.682 191.779 340.682C190.951 340.682 190.231 340.498 189.617 340.13C189.004 339.762 188.529 339.256 188.191 338.612C187.885 338.765 187.685 338.98 187.593 339.256C187.501 339.501 187.455 339.961 187.455 340.636V356H180.463V333.184ZM232.421 349.008H216.045L213.285 356H205.419L218.943 323.524H229.523L243.047 356H235.227L232.421 349.008ZM230.167 343.304L224.279 328.584H224.187L218.345 343.304H230.167ZM257.214 356.736C254.147 356.736 251.479 356.169 249.21 355.034C246.94 353.899 245.33 352.228 244.38 350.02C243.674 348.425 243.322 346.616 243.322 344.592C243.322 342.568 243.674 340.759 244.38 339.164C245.361 336.987 246.971 335.331 249.21 334.196C251.448 333.031 254.116 332.448 257.214 332.448C261.875 332.448 265.478 333.613 268.024 335.944C269.833 337.569 270.83 339.67 271.014 342.246H263.47C263.378 341.142 262.918 340.191 262.09 339.394C261.016 338.443 259.406 337.968 257.26 337.968C255.818 337.968 254.576 338.244 253.534 338.796C252.522 339.317 251.77 340.099 251.28 341.142C251.065 341.602 250.912 342.108 250.82 342.66C250.758 343.181 250.728 343.81 250.728 344.546C250.728 345.282 250.758 345.926 250.82 346.478C250.912 346.999 251.065 347.49 251.28 347.95C251.77 348.993 252.522 349.79 253.534 350.342C254.576 350.863 255.818 351.124 257.26 351.124C259.437 351.124 261.062 350.649 262.136 349.698C262.534 349.33 262.856 348.901 263.102 348.41C263.347 347.889 263.485 347.337 263.516 346.754H271.06C270.937 349.361 269.94 351.523 268.07 353.24C266.782 354.375 265.218 355.249 263.378 355.862C261.538 356.445 259.483 356.736 257.214 356.736ZM287.446 356.736C284.38 356.736 281.712 356.169 279.442 355.034C277.173 353.899 275.563 352.228 274.612 350.02C273.907 348.425 273.554 346.616 273.554 344.592C273.554 342.568 273.907 340.759 274.612 339.164C275.594 336.987 277.204 335.331 279.442 334.196C281.681 333.031 284.349 332.448 287.446 332.448C292.108 332.448 295.711 333.613 298.256 335.944C300.066 337.569 301.062 339.67 301.246 342.246H293.702C293.61 341.142 293.15 340.191 292.322 339.394C291.249 338.443 289.639 337.968 287.492 337.968C286.051 337.968 284.809 338.244 283.766 338.796C282.754 339.317 282.003 340.099 281.512 341.142C281.298 341.602 281.144 342.108 281.052 342.66C280.991 343.181 280.96 343.81 280.96 344.546C280.96 345.282 280.991 345.926 281.052 346.478C281.144 346.999 281.298 347.49 281.512 347.95C282.003 348.993 282.754 349.79 283.766 350.342C284.809 350.863 286.051 351.124 287.492 351.124C289.67 351.124 291.295 350.649 292.368 349.698C292.767 349.33 293.089 348.901 293.334 348.41C293.58 347.889 293.718 347.337 293.748 346.754H301.292C301.17 349.361 300.173 351.523 298.302 353.24C297.014 354.375 295.45 355.249 293.61 355.862C291.77 356.445 289.716 356.736 287.446 356.736ZM318.001 356.69C314.75 356.69 311.975 356.092 309.675 354.896C307.405 353.7 305.78 351.983 304.799 349.744C304.124 348.211 303.787 346.493 303.787 344.592C303.787 342.629 304.124 340.912 304.799 339.44C305.78 337.201 307.405 335.484 309.675 334.288C311.975 333.061 314.75 332.448 318.001 332.448C321.251 332.448 324.011 333.046 326.281 334.242C328.581 335.407 330.221 337.094 331.203 339.302C331.908 340.897 332.261 342.66 332.261 344.592C332.261 346.524 331.908 348.272 331.203 349.836C330.221 352.044 328.581 353.746 326.281 354.942C324.011 356.107 321.251 356.69 318.001 356.69ZM318.001 351.216C319.534 351.216 320.837 350.94 321.911 350.388C323.015 349.805 323.812 348.977 324.303 347.904C324.701 347.015 324.901 345.911 324.901 344.592C324.901 343.212 324.701 342.108 324.303 341.28C323.812 340.207 323.015 339.394 321.911 338.842C320.837 338.259 319.534 337.968 318.001 337.968C316.467 337.968 315.149 338.259 314.045 338.842C312.971 339.394 312.189 340.207 311.699 341.28C311.3 342.108 311.101 343.212 311.101 344.592C311.101 345.941 311.3 347.03 311.699 347.858C312.189 348.931 312.971 349.759 314.045 350.342C315.149 350.925 316.467 351.216 318.001 351.216ZM360.735 333.184V356H353.743V352.964C351.842 355.479 349.051 356.736 345.371 356.736C342.243 356.736 339.821 355.893 338.103 354.206C336.417 352.519 335.573 350.081 335.573 346.892V333.184H342.565V345.512C342.565 347.444 343.01 348.885 343.899 349.836C344.789 350.756 346.123 351.216 347.901 351.216C349.803 351.216 351.244 350.664 352.225 349.56C353.237 348.456 353.743 346.877 353.743 344.822V333.184H360.735ZM381.085 332.448C384.213 332.448 386.621 333.291 388.307 334.978C390.025 336.665 390.883 339.103 390.883 342.292V356H383.891V343.672C383.891 341.74 383.447 340.314 382.557 339.394C381.668 338.443 380.334 337.968 378.555 337.968C376.654 337.968 375.197 338.52 374.185 339.624C373.204 340.728 372.713 342.307 372.713 344.362V356H365.721V333.184H372.713V336.22C374.615 333.705 377.405 332.448 381.085 332.448ZM405.412 356.46C402.56 356.46 400.444 355.801 399.064 354.482C397.684 353.163 396.994 351.109 396.994 348.318V338.612H393.176V333.184H396.994V327.618H403.986V333.184H410.978V338.612H403.986V346.846C403.986 348.226 404.292 349.238 404.906 349.882C405.55 350.526 406.485 350.848 407.712 350.848C408.601 350.848 409.628 350.71 410.794 350.434V355.908C408.862 356.276 407.068 356.46 405.412 356.46Z" fill="white"/>
<path d="M211.667 153.167C211.667 154.139 211.281 155.072 210.593 155.759C209.906 156.447 208.973 156.833 208.001 156.833C207.028 156.833 206.096 156.447 205.408 155.759C204.72 155.072 204.334 154.139 204.334 153.167C204.334 152.194 204.72 151.262 205.408 150.574C206.096 149.886 207.028 149.5 208.001 149.5C208.973 149.5 209.906 149.886 210.593 150.574C211.281 151.262 211.667 152.194 211.667 153.167ZM210.751 122.917C210.751 122.187 210.461 121.488 209.945 120.972C209.429 120.456 208.73 120.167 208.001 120.167C207.271 120.167 206.572 120.456 206.056 120.972C205.54 121.488 205.251 122.187 205.251 122.917V139.417C205.251 140.146 205.54 140.845 206.056 141.361C206.572 141.877 207.271 142.167 208.001 142.167C208.73 142.167 209.429 141.877 209.945 141.361C210.461 140.845 210.751 140.146 210.751 139.417V122.917Z" fill="white"/>
<path d="M200.066 100.895C203.597 94.7897 212.404 94.7897 215.935 100.895L248.814 157.743C252.345 163.855 247.934 171.5 240.876 171.5H175.125C168.063 171.5 163.656 163.855 167.187 157.743L200.066 100.895ZM211.176 103.648C210.853 103.093 210.389 102.632 209.832 102.311C209.275 101.991 208.643 101.822 208.001 101.822C207.358 101.822 206.726 101.991 206.169 102.311C205.612 102.632 205.149 103.093 204.825 103.648L171.95 160.496C171.63 161.054 171.461 161.686 171.462 162.33C171.463 162.973 171.632 163.605 171.954 164.162C172.275 164.719 172.737 165.182 173.294 165.505C173.851 165.827 174.482 165.998 175.125 166H240.876C241.519 165.998 242.15 165.827 242.706 165.505C243.262 165.182 243.724 164.72 244.045 164.163C244.366 163.606 244.536 162.975 244.537 162.332C244.538 161.69 244.371 161.058 244.051 160.5L211.176 103.648Z" fill="white"/>
<defs>
<radialGradient id="paint0_radial_0_1" cx="0" cy="0" r="1" gradientUnits="userSpaceOnUse" gradientTransform="translate(282.294 195.523) rotate(90) scale(230.427 232.431)">
<stop stop-color="white"/>
<stop offset="9%" stop-color="rgba(30, 144, 255, 0.77)"/>  <!-- DodgerBlue -->
  <stop offset="17%" stop-color="rgba(30, 144, 255, 0.59)"/>  <!-- DodgerBlue with less opacity -->
  <stop offset="26%" stop-color="rgba(25, 130, 230, 0.43)"/>  <!-- Slightly darker blue -->
  <stop offset="35%" stop-color="rgba(20, 115, 205, 0.3)"/>   <!-- Darker blue -->
  <stop offset="45%" stop-color="rgba(15, 100, 180, 0.19)"/>  <!-- Even darker blue -->
  <stop offset="55%" stop-color="rgba(10, 85, 155, 0.1)"/>    <!-- Fading blue -->
  <stop offset="66%" stop-color="rgba(5, 70, 130, 0.05)"/>    <!-- Very faint blue -->
  <stop offset="80%" stop-color="rgba(2, 55, 105, 0.01)"/>    <!-- Almost transparent blue -->
  <stop offset="100%" stop-color="rgba(0, 0, 0, 0)"/> 
</radialGradient>
</defs>
</svg>
