<svg width="255" height="255" viewBox="0 0 255 255" fill="none" xmlns="http://www.w3.org/2000/svg">
<circle cx="127.5" cy="127.5" r="127.5" fill="#0E1A60"/>
<path d="M131.667 148.167C131.667 149.139 131.281 150.072 130.593 150.759C129.906 151.447 128.973 151.833 128.001 151.833C127.028 151.833 126.096 151.447 125.408 150.759C124.72 150.072 124.334 149.139 124.334 148.167C124.334 147.194 124.72 146.262 125.408 145.574C126.096 144.886 127.028 144.5 128.001 144.5C128.973 144.5 129.906 144.886 130.593 145.574C131.281 146.262 131.667 147.194 131.667 148.167ZM130.751 117.917C130.751 117.187 130.461 116.488 129.945 115.972C129.429 115.456 128.73 115.167 128.001 115.167C127.271 115.167 126.572 115.456 126.056 115.972C125.54 116.488 125.251 117.187 125.251 117.917V134.417C125.251 135.146 125.54 135.845 126.056 136.361C126.572 136.877 127.271 137.167 128.001 137.167C128.73 137.167 129.429 136.877 129.945 136.361C130.461 135.845 130.751 135.146 130.751 134.417V117.917Z" fill="white"/>
<path d="M120.066 95.8947C123.597 89.7897 132.404 89.7897 135.935 95.8947L168.814 152.743C172.345 158.855 167.934 166.5 160.876 166.5H95.1254C88.0634 166.5 83.656 158.855 87.187 152.743L120.066 95.8947ZM131.176 98.6483C130.853 98.0928 130.389 97.6319 129.832 97.3115C129.275 96.9911 128.643 96.8225 128.001 96.8225C127.358 96.8225 126.726 96.9911 126.169 97.3115C125.612 97.6319 125.149 98.0928 124.825 98.6483L91.95 155.496C91.6297 156.054 91.4614 156.686 91.462 157.33C91.4627 157.973 91.6322 158.605 91.9537 159.162C92.2752 159.719 92.7373 160.182 93.2939 160.505C93.8505 160.827 94.4821 160.998 95.1254 161H160.876C161.519 160.998 162.15 160.827 162.706 160.505C163.262 160.182 163.724 159.72 164.045 159.163C164.366 158.606 164.536 157.975 164.537 157.332C164.538 156.69 164.371 156.058 164.051 155.5L131.176 98.6483Z" fill="white"/>
</svg>
