<svg width="851" height="982" viewBox="0 0 851 982" fill="none" xmlns="http://www.w3.org/2000/svg">
<path d="M499.308 743.388C496.692 739.23 495.739 734.239 496.639 729.41C496.728 728.932 495.981 728.818 495.892 729.296C494.964 734.323 495.967 739.514 498.699 743.835C498.959 744.247 499.567 743.797 499.308 743.388Z" fill="#0E1A60"/>
<path d="M486.369 777.527H153.767C150.342 777.523 147.058 776.16 144.636 773.738C142.214 771.317 140.852 768.033 140.848 764.608V514.919C140.852 511.494 142.214 508.21 144.636 505.788C147.058 503.366 150.342 502.004 153.767 502H486.369C489.794 502.004 493.078 503.366 495.5 505.788C497.921 508.21 499.284 511.494 499.288 514.919V764.608C499.284 768.033 497.921 771.316 495.5 773.738C493.078 776.16 489.794 777.523 486.369 777.527Z" fill="#122073"/>
<path d="M402.659 616.643H351.317C348.78 616.643 346.346 615.635 344.552 613.841C342.758 612.047 341.75 609.614 341.75 607.076C341.75 604.539 342.758 602.106 344.552 600.311C346.346 598.517 348.78 597.509 351.317 597.509H402.659C405.197 597.509 407.63 598.517 409.424 600.311C411.218 602.106 412.226 604.539 412.226 607.076C412.226 609.614 411.218 612.047 409.424 613.841C407.63 615.635 405.197 616.643 402.659 616.643Z" fill="#0E1A60"/>
<path d="M357.696 642.793H345.578C344.648 642.793 343.756 642.423 343.098 641.765C342.44 641.107 342.07 640.215 342.07 639.285C342.07 638.354 342.44 637.462 343.098 636.804C343.756 636.147 344.648 635.777 345.578 635.777H357.696C358.627 635.777 359.519 636.147 360.177 636.804C360.834 637.462 361.204 638.354 361.204 639.285C361.204 640.215 360.834 641.107 360.177 641.765C359.519 642.423 358.627 642.793 357.696 642.793Z" fill="#0E1A60"/>
<path d="M408.081 642.793H395.963C395.033 642.793 394.14 642.423 393.482 641.765C392.825 641.107 392.455 640.215 392.455 639.285C392.455 638.354 392.825 637.462 393.482 636.804C394.14 636.147 395.033 635.777 395.963 635.777H408.081C409.011 635.777 409.904 636.147 410.561 636.804C411.219 637.462 411.589 638.354 411.589 639.285C411.589 640.215 411.219 641.107 410.561 641.765C409.904 642.423 409.011 642.793 408.081 642.793Z" fill="#0E1A60"/>
<path d="M382.569 642.793H370.451C369.521 642.793 368.629 642.423 367.971 641.765C367.313 641.107 366.943 640.215 366.943 639.285C366.943 638.354 367.313 637.462 367.971 636.804C368.629 636.147 369.521 635.777 370.451 635.777H382.569C383.5 635.777 384.392 636.147 385.05 636.804C385.708 637.462 386.077 638.354 386.077 639.285C386.077 640.215 385.708 641.107 385.05 641.765C384.392 642.423 383.5 642.793 382.569 642.793Z" fill="#0E1A60"/>
<path d="M357.696 656.186H345.578C344.648 656.186 343.756 655.817 343.098 655.159C342.44 654.501 342.07 653.609 342.07 652.678C342.07 651.748 342.44 650.856 343.098 650.198C343.756 649.54 344.648 649.171 345.578 649.171H357.696C358.627 649.171 359.519 649.54 360.177 650.198C360.834 650.856 361.204 651.748 361.204 652.678C361.204 653.609 360.834 654.501 360.177 655.159C359.519 655.817 358.627 656.186 357.696 656.186Z" fill="#0E1A60"/>
<path d="M408.081 656.186H395.963C395.033 656.186 394.14 655.817 393.482 655.159C392.825 654.501 392.455 653.609 392.455 652.678C392.455 651.748 392.825 650.856 393.482 650.198C394.14 649.54 395.033 649.171 395.963 649.171H408.081C409.011 649.171 409.904 649.54 410.561 650.198C411.219 650.856 411.589 651.748 411.589 652.678C411.589 653.609 411.219 654.501 410.561 655.159C409.904 655.817 409.011 656.186 408.081 656.186Z" fill="#0E1A60"/>
<path d="M382.569 656.186H370.451C369.521 656.186 368.629 655.817 367.971 655.159C367.313 654.501 366.943 653.609 366.943 652.678C366.943 651.748 367.313 650.856 367.971 650.198C368.629 649.54 369.521 649.171 370.451 649.171H382.569C383.5 649.171 384.392 649.54 385.05 650.198C385.708 650.856 386.077 651.748 386.077 652.678C386.077 653.609 385.708 654.501 385.05 655.159C384.392 655.817 383.5 656.186 382.569 656.186Z" fill="#0E1A60"/>
<path d="M357.696 669.58H345.578C344.648 669.58 343.756 669.21 343.098 668.553C342.44 667.895 342.07 667.002 342.07 666.072C342.07 665.142 342.44 664.25 343.098 663.592C343.756 662.934 344.648 662.564 345.578 662.564H357.696C358.627 662.564 359.519 662.934 360.177 663.592C360.834 664.25 361.204 665.142 361.204 666.072C361.204 667.002 360.834 667.895 360.177 668.553C359.519 669.21 358.627 669.58 357.696 669.58Z" fill="#0E1A60"/>
<path d="M408.081 669.58H395.963C395.033 669.58 394.14 669.21 393.482 668.553C392.825 667.895 392.455 667.002 392.455 666.072C392.455 665.142 392.825 664.25 393.482 663.592C394.14 662.934 395.033 662.564 395.963 662.564H408.081C409.011 662.564 409.904 662.934 410.561 663.592C411.219 664.25 411.589 665.142 411.589 666.072C411.589 667.002 411.219 667.895 410.561 668.553C409.904 669.21 409.011 669.58 408.081 669.58Z" fill="#0E1A60"/>
<path d="M382.569 669.58H370.451C369.521 669.58 368.629 669.21 367.971 668.553C367.313 667.895 366.943 667.002 366.943 666.072C366.943 665.142 367.313 664.25 367.971 663.592C368.629 662.934 369.521 662.564 370.451 662.564H382.569C383.5 662.564 384.392 662.934 385.05 663.592C385.708 664.25 386.077 665.142 386.077 666.072C386.077 667.002 385.708 667.895 385.05 668.553C384.392 669.21 383.5 669.58 382.569 669.58Z" fill="#0E1A60"/>
<path d="M357.696 682.974H345.578C344.648 682.974 343.756 682.604 343.098 681.946C342.44 681.288 342.07 680.396 342.07 679.466C342.07 678.535 342.44 677.643 343.098 676.985C343.756 676.327 344.648 675.958 345.578 675.958H357.696C358.627 675.958 359.519 676.327 360.177 676.985C360.834 677.643 361.204 678.535 361.204 679.466C361.204 680.396 360.834 681.288 360.177 681.946C359.519 682.604 358.627 682.974 357.696 682.974Z" fill="#0E1A60"/>
<path d="M408.081 682.974H395.963C395.033 682.974 394.14 682.604 393.482 681.946C392.825 681.288 392.455 680.396 392.455 679.466C392.455 678.535 392.825 677.643 393.482 676.985C394.14 676.327 395.033 675.958 395.963 675.958H408.081C409.011 675.958 409.904 676.327 410.561 676.985C411.219 677.643 411.589 678.535 411.589 679.466C411.589 680.396 411.219 681.288 410.561 681.946C409.904 682.604 409.011 682.974 408.081 682.974Z" fill="#0E1A60"/>
<path d="M382.569 682.974H370.451C369.521 682.974 368.629 682.604 367.971 681.946C367.313 681.288 366.943 680.396 366.943 679.466C366.943 678.535 367.313 677.643 367.971 676.985C368.629 676.327 369.521 675.958 370.451 675.958H382.569C383.5 675.958 384.392 676.327 385.05 676.985C385.708 677.643 386.077 678.535 386.077 679.466C386.077 680.396 385.708 681.288 385.05 681.946C384.392 682.604 383.5 682.974 382.569 682.974Z" fill="#0E1A60"/>
<path d="M275.738 668.942C293.703 668.942 308.266 654.379 308.266 636.415C308.266 618.45 293.703 603.887 275.738 603.887C257.774 603.887 243.211 618.45 243.211 636.415C243.211 654.379 257.774 668.942 275.738 668.942Z" fill="#2340CD"/>
<path d="M275.739 676.277C273.202 676.274 270.771 675.265 268.977 673.472C267.184 671.678 266.175 669.246 266.172 666.71V606.12C266.171 604.863 266.418 603.618 266.898 602.456C267.378 601.295 268.083 600.239 268.971 599.35C269.86 598.461 270.915 597.755 272.076 597.274C273.237 596.793 274.482 596.545 275.739 596.545C276.996 596.545 278.24 596.793 279.402 597.274C280.563 597.755 281.618 598.461 282.506 599.35C283.395 600.239 284.099 601.295 284.58 602.456C285.06 603.618 285.307 604.863 285.306 606.12V666.71C285.303 669.246 284.294 671.678 282.5 673.472C280.707 675.265 278.275 676.274 275.739 676.277Z" fill="#0E1A60"/>
<path d="M360.716 612.535H351.787C351.449 612.535 351.125 612.401 350.885 612.162C350.646 611.922 350.512 611.598 350.512 611.26C350.512 610.921 350.646 610.597 350.885 610.358C351.125 610.118 351.449 609.984 351.787 609.984H360.716C361.055 609.984 361.379 610.118 361.618 610.358C361.858 610.597 361.992 610.921 361.992 611.26C361.992 611.598 361.858 611.922 361.618 612.162C361.379 612.401 361.055 612.535 360.716 612.535Z" fill="#2340CD"/>
<path d="M374.748 612.854H365.819C365.48 612.854 365.156 612.72 364.917 612.48C364.677 612.241 364.543 611.917 364.543 611.579C364.543 611.24 364.677 610.916 364.917 610.677C365.156 610.437 365.48 610.303 365.819 610.303H374.748C375.086 610.303 375.41 610.437 375.65 610.677C375.889 610.916 376.023 611.24 376.023 611.579C376.023 611.917 375.889 612.241 375.65 612.48C375.41 612.72 375.086 612.854 374.748 612.854Z" fill="#2340CD"/>
<path d="M388.779 613.173H379.85C379.511 613.173 379.187 613.039 378.948 612.799C378.709 612.56 378.574 612.236 378.574 611.897C378.574 611.559 378.709 611.235 378.948 610.995C379.187 610.756 379.511 610.622 379.85 610.622H388.779C389.117 610.622 389.442 610.756 389.681 610.995C389.92 611.235 390.054 611.559 390.054 611.897C390.054 612.236 389.92 612.56 389.681 612.799C389.442 613.039 389.117 613.173 388.779 613.173Z" fill="#2340CD"/>
<path d="M402.81 613.492H393.881C393.543 613.492 393.218 613.357 392.979 613.118C392.74 612.879 392.605 612.555 392.605 612.216C392.605 611.878 392.74 611.554 392.979 611.314C393.218 611.075 393.543 610.941 393.881 610.941H402.81C403.148 610.941 403.473 611.075 403.712 611.314C403.951 611.554 404.086 611.878 404.086 612.216C404.086 612.555 403.951 612.879 403.712 613.118C403.473 613.357 403.148 613.492 402.81 613.492Z" fill="#2340CD"/>
<path d="M183.259 738.142C183.258 739.721 183.571 741.285 184.18 742.743C184.789 744.2 185.681 745.522 186.805 746.631H181.536C179.982 746.631 178.442 746.325 177.006 745.73C175.57 745.135 174.265 744.263 173.166 743.164C172.067 742.065 171.195 740.76 170.6 739.324C170.005 737.888 169.699 736.349 169.699 734.794V542.894C169.699 541.34 170.005 539.8 170.6 538.364C171.195 536.928 172.067 535.623 173.166 534.524C174.265 533.425 175.57 532.553 177.006 531.958C178.442 531.363 179.982 531.057 181.536 531.057H189.203C187.395 532.109 185.894 533.616 184.851 535.429C183.808 537.243 183.259 539.298 183.259 541.389L183.259 738.142Z" fill="#2340CD"/>
<path d="M560.006 779.276H88.5965C88.4381 779.275 88.2864 779.208 88.1746 779.088C88.0628 778.969 88 778.807 88 778.638C88 778.469 88.0628 778.307 88.1746 778.187C88.2864 778.068 88.4381 778 88.5965 778H560.006C560.165 778 560.317 778.067 560.429 778.187C560.542 778.306 560.605 778.469 560.605 778.638C560.605 778.807 560.542 778.969 560.429 779.089C560.317 779.208 560.165 779.276 560.006 779.276Z" fill="#283BA9"/>
<path d="M181.985 587.132C177.954 586.003 173.908 584.957 169.848 583.994C155.962 580.679 141.885 578.226 127.696 576.647C125.291 576.013 122.733 576.356 120.58 577.599C118.426 578.843 116.851 580.887 116.197 583.286L109.111 609.436C108.46 611.846 108.793 614.416 110.035 616.581C111.277 618.747 113.328 620.331 115.738 620.986L115.833 621.005C125.209 622.07 134.674 623.55 144.087 625.438C144.929 625.604 145.765 625.776 146.607 625.954C149.623 626.579 152.632 627.247 155.631 627.957C156.945 628.263 158.253 628.582 159.566 628.907C163.1 629.788 166.635 630.725 170.173 631.72C174.108 632.83 178.046 634.014 181.985 635.273C182.412 635.4 182.84 635.534 183.26 635.674V587.495C182.84 587.368 182.412 587.247 181.985 587.132Z" fill="#0E1A60"/>
<path d="M181.985 587.132C177.954 586.003 173.908 584.957 169.848 583.994C155.962 580.679 141.885 578.226 127.696 576.647C125.291 576.013 122.733 576.356 120.58 577.599C118.426 578.843 116.851 580.887 116.197 583.286L109.111 609.436C108.46 611.846 108.793 614.416 110.035 616.581C111.277 618.747 113.328 620.331 115.738 620.986L115.833 621.005C125.209 622.07 134.674 623.55 144.087 625.438C144.929 625.604 145.765 625.776 146.607 625.954C149.623 626.579 152.632 627.247 155.631 627.957C156.945 628.263 158.253 628.582 159.566 628.907C163.1 629.788 166.635 630.725 170.173 631.72C174.108 632.83 178.046 634.014 181.985 635.273C182.412 635.4 182.84 635.534 183.26 635.674V634.329C182.833 634.195 182.406 634.061 181.985 633.927C178.362 632.772 174.744 631.686 171.13 630.668C169.778 630.279 168.426 629.902 167.073 629.539C164.637 628.882 162.207 628.253 159.784 627.651C158.495 627.326 157.209 627.013 155.925 626.713C155.829 626.688 155.727 626.669 155.631 626.643C153.444 626.127 151.252 625.633 149.056 625.164C148.214 624.985 147.372 624.806 146.53 624.634C136.376 622.529 126.146 620.89 116.024 619.742C113.954 619.166 112.195 617.795 111.131 615.928C110.067 614.061 109.783 611.849 110.342 609.774L117.428 583.618C117.994 581.537 119.364 579.765 121.235 578.693C123.106 577.62 125.327 577.334 127.409 577.897L127.505 577.909C141.513 579.465 155.413 581.876 169.127 585.129C169.267 585.168 169.408 585.199 169.548 585.231C173.707 586.226 177.852 587.302 181.985 588.459C182.406 588.573 182.833 588.694 183.26 588.822V587.495C182.84 587.368 182.412 587.247 181.985 587.132Z" fill="#223FCC"/>
<path d="M183.26 588.159V634.998C182.832 634.858 182.412 634.724 181.984 634.59C178.215 633.385 174.433 632.249 170.638 631.184C166.996 630.151 163.341 629.179 159.674 628.27C158.373 627.951 157.078 627.638 155.777 627.332C155.726 627.102 155.675 626.873 155.63 626.643C155.394 625.546 155.21 624.436 155.069 623.32C155.005 622.893 154.961 622.466 154.916 622.032C154.245 615.199 155.18 608.304 157.648 601.896C160.115 595.489 164.046 589.747 169.126 585.129C169.311 584.951 169.502 584.778 169.694 584.613C173.814 585.595 177.911 586.658 181.984 587.802C182.412 587.91 182.839 588.031 183.26 588.159Z" fill="#223FCC"/>
<path d="M140.903 607.337L123.166 605.245C122.542 605.171 121.91 605.221 121.305 605.392C120.7 605.563 120.135 605.851 119.642 606.24C119.149 606.629 118.737 607.112 118.43 607.66C118.123 608.208 117.927 608.812 117.853 609.436C117.78 610.06 117.83 610.692 118 611.297C118.171 611.901 118.459 612.466 118.848 612.96C119.237 613.453 119.72 613.865 120.268 614.172C120.816 614.479 121.42 614.675 122.044 614.748L139.78 616.84C141.039 616.986 142.304 616.626 143.298 615.841C144.292 615.055 144.933 613.907 145.082 612.649C145.23 611.39 144.874 610.125 144.091 609.129C143.307 608.133 142.161 607.489 140.903 607.337ZM143.824 612.503C143.713 613.426 143.241 614.268 142.51 614.843C141.779 615.418 140.851 615.68 139.927 615.571L122.19 613.479C121.269 613.367 120.43 612.894 119.857 612.165C119.283 611.435 119.023 610.508 119.131 609.587C119.24 608.665 119.71 607.825 120.437 607.249C121.165 606.673 122.091 606.409 123.013 606.514L140.75 608.606C141.673 608.718 142.515 609.191 143.091 609.921C143.667 610.651 143.93 611.579 143.824 612.503Z" fill="#223FCC"/>
<path d="M183.259 599.129V621.343C182.85 621.589 182.424 621.806 181.984 621.994C179.695 623.016 177.157 623.347 174.682 622.945C172.207 622.544 169.904 621.429 168.055 619.736C167.876 619.576 167.697 619.404 167.525 619.226C167.353 619.053 167.187 618.868 167.028 618.684C165.102 616.472 163.99 613.67 163.873 610.74C163.757 607.81 164.645 604.928 166.389 602.571C168.133 600.214 170.629 598.523 173.465 597.778C176.301 597.032 179.306 597.277 181.984 598.472C182.421 598.668 182.846 598.887 183.259 599.129Z" fill="#0E1A60"/>
<path d="M181.983 615.208C176.964 616.253 171.978 617.412 167.027 618.683C165.177 619.155 163.334 619.644 161.497 620.15C159.303 620.756 157.109 621.383 154.915 622.032C152.115 622.861 149.32 623.728 146.528 624.634C145.718 624.902 144.902 625.17 144.085 625.438C136.323 628.027 128.613 630.897 121.029 634.029C118.616 634.632 116.539 636.164 115.25 638.292C113.961 640.419 113.565 642.97 114.147 645.388L120.545 671.716C121.137 674.141 122.666 676.232 124.798 677.53C126.93 678.829 129.49 679.229 131.916 678.642L132.005 678.611C144.476 673.495 157.24 669.125 170.229 665.523C174.106 664.445 178.024 663.429 181.983 662.474C182.41 662.372 182.831 662.27 183.258 662.175V614.946C182.831 615.023 182.41 615.112 181.983 615.208Z" fill="#0E1A60"/>
<path d="M181.983 615.208C176.964 616.253 171.978 617.412 167.027 618.683C165.177 619.155 163.334 619.644 161.497 620.15C159.303 620.756 157.109 621.383 154.915 622.032C152.115 622.861 149.32 623.728 146.528 624.634C145.718 624.902 144.902 625.17 144.085 625.438C136.323 628.027 128.613 630.897 121.029 634.029C118.616 634.632 116.539 636.164 115.25 638.292C113.961 640.419 113.565 642.97 114.147 645.388L120.545 671.716C121.137 674.141 122.666 676.232 124.798 677.53C126.93 678.829 129.49 679.229 131.916 678.642L132.005 678.611C144.476 673.495 157.24 669.125 170.229 665.523C174.106 664.445 178.024 663.429 181.983 662.474C182.41 662.372 182.831 662.27 183.258 662.175V660.861C182.831 660.963 182.41 661.065 181.983 661.167C181.664 661.243 181.339 661.32 181.02 661.397C177.27 662.309 173.56 663.274 169.89 664.292C169.795 664.318 169.693 664.349 169.597 664.375C156.674 667.969 143.974 672.324 131.565 677.418C129.473 677.908 127.271 677.553 125.439 676.429C123.607 675.305 122.293 673.504 121.782 671.416L115.391 645.088C114.884 642.992 115.229 640.78 116.35 638.937C117.472 637.095 119.278 635.772 121.373 635.26L121.469 635.228C129.729 631.809 138.135 628.71 146.605 625.954C147.421 625.686 148.237 625.425 149.054 625.163C151.056 624.532 153.061 623.918 155.068 623.32C157.186 622.689 159.301 622.081 161.414 621.496C161.554 621.458 161.695 621.42 161.835 621.381C163.902 620.814 165.974 620.265 168.054 619.736C172.665 618.562 177.308 617.484 181.983 616.502C182.404 616.413 182.831 616.324 183.258 616.241V614.946C182.831 615.023 182.41 615.112 181.983 615.208Z" fill="#223FCC"/>
<path d="M183.26 615.59V661.518C182.839 661.613 182.412 661.709 181.984 661.811C177.992 662.781 174.017 663.814 170.058 664.911C169.898 664.732 169.745 664.554 169.599 664.375C165.466 659.537 162.429 653.862 160.698 647.74C158.966 641.618 158.58 635.193 159.566 628.907C159.598 628.697 159.636 628.48 159.675 628.27C159.707 628.065 159.745 627.855 159.783 627.651C160.177 625.562 160.722 623.505 161.416 621.496C161.499 621.254 161.582 621.011 161.671 620.769C163.616 620.233 165.568 619.719 167.526 619.226C172.316 617.988 177.135 616.864 181.984 615.852C182.405 615.756 182.833 615.673 183.26 615.59Z" fill="#223FCC"/>
<path d="M153.622 657.193C153.143 656.019 152.219 655.082 151.051 654.588C149.883 654.094 148.566 654.084 147.39 654.559L130.84 661.269C129.666 661.747 128.73 662.672 128.237 663.84C127.745 665.007 127.736 666.323 128.212 667.497C128.689 668.672 129.612 669.609 130.779 670.104C131.946 670.598 133.262 670.609 134.437 670.134L150.988 663.425C152.161 662.945 153.097 662.021 153.591 660.853C154.085 659.685 154.096 658.369 153.622 657.193ZM150.509 662.238L133.958 668.954C133.096 669.303 132.131 669.295 131.274 668.932C130.417 668.57 129.74 667.882 129.39 667.02C129.04 666.158 129.047 665.193 129.408 664.336C129.77 663.478 130.456 662.8 131.318 662.449L147.869 655.739C148.731 655.389 149.696 655.396 150.553 655.757C151.41 656.119 152.088 656.807 152.439 657.669C152.789 658.53 152.782 659.496 152.42 660.353C152.059 661.21 151.371 661.888 150.509 662.238Z" fill="#223FCC"/>
<path d="M183.26 627.319V652.327C182.839 652.434 182.413 652.519 181.984 652.582C179.424 652.941 176.814 652.521 174.495 651.378C172.176 650.234 170.255 648.419 168.981 646.169C167.707 643.919 167.14 641.338 167.352 638.761C167.565 636.184 168.547 633.731 170.172 631.72C170.319 631.535 170.472 631.356 170.638 631.184C170.791 631.006 170.957 630.834 171.129 630.668C172.539 629.273 174.253 628.223 176.136 627.599C178.018 626.975 180.02 626.794 181.984 627.071C182.414 627.128 182.84 627.211 183.26 627.319Z" fill="#0E1A60"/>
<path d="M181.984 583.809V647.467C182.412 647.327 182.839 647.193 183.26 647.065V584.389C182.833 584.192 182.412 584 181.984 583.809ZM181.984 583.809V647.467C182.412 647.327 182.839 647.193 183.26 647.065V584.389C182.833 584.192 182.412 584 181.984 583.809ZM181.984 583.809V647.467C182.412 647.327 182.839 647.193 183.26 647.065V584.389C182.833 584.192 182.412 584 181.984 583.809ZM181.984 588.459V661.811C182.412 661.709 182.839 661.613 183.26 661.518V588.822C182.833 588.694 182.405 588.573 181.984 588.459ZM181.984 588.459V661.811C182.412 661.709 182.839 661.613 183.26 661.518V588.822C182.833 588.694 182.405 588.573 181.984 588.459ZM181.984 588.459V661.811C182.412 661.709 182.839 661.613 183.26 661.518V588.822C182.833 588.694 182.405 588.573 181.984 588.459ZM181.984 588.459V661.811C182.412 661.709 182.839 661.613 183.26 661.518V588.822C182.833 588.694 182.405 588.573 181.984 588.459ZM181.984 588.459V662.474C182.412 662.372 182.833 662.27 183.26 662.175V588.822C182.833 588.694 182.405 588.573 181.984 588.459ZM460.222 528.149H195.225C191.715 528.155 188.351 529.551 185.869 532.033C183.387 534.515 181.99 537.88 181.984 541.389V738.142C181.99 741.651 183.387 745.015 185.869 747.496C188.352 749.977 191.716 751.372 195.225 751.376H460.222C463.73 751.372 467.094 749.976 469.575 747.495C472.056 745.014 473.452 741.651 473.456 738.142V541.389C473.453 537.88 472.058 534.515 469.577 532.032C467.096 529.55 463.731 528.153 460.222 528.149ZM472.18 738.142C472.177 741.313 470.916 744.353 468.674 746.595C466.432 748.837 463.392 750.098 460.222 750.101H195.225C192.054 750.098 189.013 748.837 186.77 746.595C184.527 744.354 183.265 741.314 183.26 738.142V541.389C183.265 538.218 184.527 535.177 186.77 532.934C189.013 530.691 192.053 529.429 195.225 529.424H460.222C463.393 529.428 466.434 530.69 468.676 532.933C470.918 535.177 472.178 538.218 472.18 541.389V738.142ZM181.984 588.459V661.167C182.412 661.065 182.833 660.963 183.26 660.861V588.822C182.833 588.694 182.405 588.573 181.984 588.459ZM181.984 588.459V661.811C182.412 661.709 182.839 661.613 183.26 661.518V588.822C182.833 588.694 182.405 588.573 181.984 588.459ZM181.984 588.459V661.811C182.412 661.709 182.839 661.613 183.26 661.518V588.822C182.833 588.694 182.405 588.573 181.984 588.459ZM181.984 588.459V661.811C182.412 661.709 182.839 661.613 183.26 661.518V588.822C182.833 588.694 182.405 588.573 181.984 588.459ZM181.984 583.809V647.467C182.412 647.327 182.839 647.193 183.26 647.065V584.389C182.833 584.192 182.412 584 181.984 583.809ZM181.984 583.809V647.467C182.412 647.327 182.839 647.193 183.26 647.065V584.389C182.833 584.192 182.412 584 181.984 583.809Z" fill="#283BA9"/>
<g style="mix-blend-mode:overlay">
<path d="M60.2895 5.53998H50.2695V15.56H60.2895V5.53998Z" fill="#29ABE2"/>
<path d="M60.2895 19.03H50.2695V29.05H60.2895V19.03Z" fill="#29ABE2"/>
<path d="M60.2895 32.51H50.2695V42.53H60.2895V32.51Z" fill="#29ABE2"/>
<path d="M60.2895 46H50.2695V56.02H60.2895V46Z" fill="#29ABE2"/>
<path d="M60.2895 59.48H50.2695V69.5H60.2895V59.48Z" fill="#29ABE2"/>
<path d="M60.2895 72.97H50.2695V82.99H60.2895V72.97Z" fill="#29ABE2"/>
<path d="M60.2895 86.45H50.2695V96.47H60.2895V86.45Z" fill="#29ABE2"/>
<path d="M60.2895 99.94H50.2695V109.96H60.2895V99.94Z" fill="#29ABE2"/>
<path d="M43.6001 -1.77997H33.5801V8.24002H43.6001V-1.77997Z" fill="#29ABE2"/>
<path d="M43.6001 25.19H33.5801V35.21H43.6001V25.19Z" fill="#29ABE2"/>
<path d="M43.6001 38.68H33.5801V48.7H43.6001V38.68Z" fill="#29ABE2"/>
<path d="M43.6001 52.16H33.5801V62.18H43.6001V52.16Z" fill="#29ABE2"/>
<path d="M43.6001 65.65H33.5801V75.67H43.6001V65.65Z" fill="#29ABE2"/>
<path d="M43.6001 79.13H33.5801V89.15H43.6001V79.13Z" fill="#29ABE2"/>
<path d="M26.9106 -1.77997H16.8906V8.24002H26.9106V-1.77997Z" fill="#29ABE2"/>
<path d="M26.9106 11.71H16.8906V21.73H26.9106V11.71Z" fill="#29ABE2"/>
<path d="M26.9106 25.19H16.8906V35.21H26.9106V25.19Z" fill="#29ABE2"/>
<path d="M26.9106 38.68H16.8906V48.7H26.9106V38.68Z" fill="#29ABE2"/>
<path d="M26.9106 52.16H16.8906V62.18H26.9106V52.16Z" fill="#29ABE2"/>
<path d="M26.9106 65.65H16.8906V75.67H26.9106V65.65Z" fill="#29ABE2"/>
<path d="M26.9106 79.13H16.8906V89.15H26.9106V79.13Z" fill="#29ABE2"/>
<path d="M10.2192 -1.77997H0.199219V8.24002H10.2192V-1.77997Z" fill="#29ABE2"/>
<path d="M10.2192 11.71H0.199219V21.73H10.2192V11.71Z" fill="#29ABE2"/>
<path d="M10.2192 25.19H0.199219V35.21H10.2192V25.19Z" fill="#29ABE2"/>
<path d="M10.2192 38.68H0.199219V48.7H10.2192V38.68Z" fill="#29ABE2"/>
<path d="M10.2192 52.16H0.199219V62.18H10.2192V52.16Z" fill="#29ABE2"/>
</g>
<path style="mix-blend-mode:color-dodge" d="M415.782 854H-120.41V875.378H415.782V854Z" fill="url(#paint0_radial_0_1)"/>
<path style="mix-blend-mode:color-dodge" d="M507.476 874.353H-212.111V885.042H507.476V874.353Z" fill="url(#paint1_radial_0_1)"/>
<path style="mix-blend-mode:color-dodge" d="M507.476 884.525H-212.111V889.87H507.476V884.525Z" fill="url(#paint2_radial_0_1)"/>
<path style="mix-blend-mode:color-dodge" d="M507.476 856.795H-212.111V887.592H507.476V856.795Z" fill="url(#paint3_radial_0_1)"/>
<path style="mix-blend-mode:color-dodge" d="M543.572 894.497H-248.199V909.896H543.572V894.497Z" fill="url(#paint4_radial_0_1)"/>
<path style="mix-blend-mode:color-dodge" d="M724.48 887.002H-429.107V902.401H724.48V887.002Z" fill="url(#paint5_radial_0_1)"/>
<path style="mix-blend-mode:color-dodge" d="M555.205 899.016H-259.822V920.394H555.205V899.016Z" fill="url(#paint6_radial_0_1)"/>
<path style="mix-blend-mode:color-dodge" d="M507.476 926.855H-212.111V937.544H507.476V926.855Z" fill="url(#paint7_radial_0_1)"/>
<path style="mix-blend-mode:color-dodge" d="M507.476 937.036H-212.111V942.381H507.476V937.036Z" fill="url(#paint8_radial_0_1)"/>
<path style="mix-blend-mode:color-dodge" d="M507.476 901.802H-212.111V932.599H507.476V901.802Z" fill="url(#paint9_radial_0_1)"/>
<path style="mix-blend-mode:color-dodge" d="M569.305 947.009H-273.934V962.407H569.305V947.009Z" fill="url(#paint10_radial_0_1)"/>
<path style="mix-blend-mode:color-dodge" d="M850.364 939.504H-555V954.903H850.364V939.504Z" fill="url(#paint11_radial_0_1)"/>
<path style="mix-blend-mode:color-dodge" d="M636.137 970.274H-340.762V984.139H636.137V970.274Z" fill="url(#paint12_radial_0_1)"/>
<path style="mix-blend-mode:color-dodge" d="M609.359 966.282H-313.984V973.133H609.359V966.282Z" fill="url(#paint13_radial_0_1)"/>
<path style="mix-blend-mode:color-dodge" d="M704.454 922.781H-409.09V926.628H704.454V922.781Z" fill="url(#paint14_radial_0_1)"/>
<path style="mix-blend-mode:color-dodge" d="M704.454 960.284H-409.09V964.131H704.454V960.284Z" fill="url(#paint15_radial_0_1)"/>
<path style="mix-blend-mode:color-dodge" d="M402.737 957.887C416.336 927.33 402.933 891.688 372.802 878.279C342.671 864.87 307.221 878.771 293.622 909.328C280.024 939.886 293.426 975.527 323.558 988.936C353.689 1002.35 389.139 988.444 402.737 957.887Z" fill="url(#paint16_radial_0_1)"/>
<path style="mix-blend-mode:color-dodge" d="M494.737 134.887C508.336 104.33 494.933 68.6882 464.802 55.2791C434.671 41.8701 399.221 55.7714 385.622 86.3285C372.024 116.886 385.426 152.527 415.558 165.936C445.689 179.345 481.139 165.444 494.737 134.887Z" fill="url(#paint17_radial_0_1)"/>
<path style="mix-blend-mode:color-dodge" d="M340.737 650.887C354.336 620.33 340.933 584.688 310.802 571.279C280.671 557.87 245.221 571.771 231.622 602.328C218.024 632.886 231.426 668.527 261.558 681.936C291.689 695.345 327.139 681.444 340.737 650.887Z" fill="url(#paint18_radial_0_1)"/>
<path style="mix-blend-mode:color-dodge" d="M130.238 765.316C172.895 765.316 207.476 731.219 207.476 689.158C207.476 647.097 172.895 613 130.238 613C87.5806 613 53 647.097 53 689.158C53 731.219 87.5806 765.316 130.238 765.316Z" fill="url(#paint19_radial_0_1)"/>
<defs>
<radialGradient id="paint0_radial_0_1" cx="0" cy="0" r="1" gradientUnits="userSpaceOnUse" gradientTransform="translate(138.114 863.749) rotate(180) scale(259.461 8.28067)">
<stop stop-color="#00FFEE"/>
<stop offset="1" stop-opacity="0"/>
</radialGradient>
<radialGradient id="paint1_radial_0_1" cx="0" cy="0" r="1" gradientUnits="userSpaceOnUse" gradientTransform="translate(123.135 891.101) rotate(-180) scale(347.811 5.52082)">
<stop stop-color="#00FFEE"/>
<stop offset="1" stop-opacity="0"/>
</radialGradient>
<radialGradient id="paint2_radial_0_1" cx="0" cy="0" r="1" gradientUnits="userSpaceOnUse" gradientTransform="translate(123.135 828.956) rotate(-180) scale(347.811 0)">
<stop stop-color="#00FFEE"/>
<stop offset="1" stop-opacity="0"/>
</radialGradient>
<radialGradient id="paint3_radial_0_1" cx="0" cy="0" r="1" gradientUnits="userSpaceOnUse" gradientTransform="translate(123.133 871.533) rotate(180) scale(347.811 13.802)">
<stop stop-color="#00FFEE"/>
<stop offset="1" stop-opacity="0"/>
</radialGradient>
<radialGradient id="paint4_radial_0_1" cx="0" cy="0" r="1" gradientUnits="userSpaceOnUse" gradientTransform="translate(157.001 898.251) rotate(-180) scale(383.696 5.5208)">
<stop stop-color="#00FFEE"/>
<stop offset="1" stop-opacity="0"/>
</radialGradient>
<radialGradient id="paint5_radial_0_1" cx="0" cy="0" r="1" gradientUnits="userSpaceOnUse" gradientTransform="translate(124.072 890.728) rotate(-180) scale(557.583 5.52064)">
<stop stop-color="#00FFEE"/>
<stop offset="1" stop-opacity="0"/>
</radialGradient>
<radialGradient id="paint6_radial_0_1" cx="0" cy="0" r="1" gradientUnits="userSpaceOnUse" gradientTransform="translate(149.498 908.803) rotate(180) scale(394.738 8.28121)">
<stop stop-color="#00FFEE"/>
<stop offset="1" stop-opacity="0"/>
</radialGradient>
<radialGradient id="paint7_radial_0_1" cx="0" cy="0" r="1" gradientUnits="userSpaceOnUse" gradientTransform="translate(123.135 943.334) rotate(-180) scale(347.811 5.52082)">
<stop stop-color="#00FFEE"/>
<stop offset="1" stop-opacity="0"/>
</radialGradient>
<radialGradient id="paint8_radial_0_1" cx="0" cy="0" r="1" gradientUnits="userSpaceOnUse" gradientTransform="translate(123.135 882.556) rotate(-180) scale(347.811 0)">
<stop stop-color="#00FFEE"/>
<stop offset="1" stop-opacity="0"/>
</radialGradient>
<radialGradient id="paint9_radial_0_1" cx="0" cy="0" r="1" gradientUnits="userSpaceOnUse" gradientTransform="translate(123.133 916.449) rotate(180) scale(347.811 13.802)">
<stop stop-color="#00FFEE"/>
<stop offset="1" stop-opacity="0"/>
</radialGradient>
<radialGradient id="paint10_radial_0_1" cx="0" cy="0" r="1" gradientUnits="userSpaceOnUse" gradientTransform="translate(153.811 950.893) rotate(180) scale(408.54 5.52082)">
<stop stop-color="#00FFEE"/>
<stop offset="1" stop-opacity="0"/>
</radialGradient>
<radialGradient id="paint11_radial_0_1" cx="0" cy="0" r="1" gradientUnits="userSpaceOnUse" gradientTransform="translate(170.653 943.379) rotate(-180) scale(681.797 5.52064)">
<stop stop-color="#00FFEE"/>
<stop offset="1" stop-opacity="0"/>
</radialGradient>
<radialGradient id="paint12_radial_0_1" cx="0" cy="0" r="1" gradientUnits="userSpaceOnUse" gradientTransform="translate(119.658 976.193) rotate(-180) scale(472.029 5.5208)">
<stop stop-color="#00FFEE"/>
<stop offset="1" stop-opacity="0"/>
</radialGradient>
<radialGradient id="paint13_radial_0_1" cx="0" cy="0" r="1" gradientUnits="userSpaceOnUse" gradientTransform="translate(149.295 968.782) rotate(180) scale(447.2 2.76049)">
<stop stop-color="#00FFEE"/>
<stop offset="1" stop-opacity="0"/>
</radialGradient>
<radialGradient id="paint14_radial_0_1" cx="0" cy="0" r="1" gradientUnits="userSpaceOnUse" gradientTransform="translate(124.373 860.025) rotate(180) scale(538.279 0)">
<stop stop-color="#00FFEE"/>
<stop offset="1" stop-opacity="0"/>
</radialGradient>
<radialGradient id="paint15_radial_0_1" cx="0" cy="0" r="1" gradientUnits="userSpaceOnUse" gradientTransform="translate(124.373 898.299) rotate(180) scale(538.279 0)">
<stop stop-color="#00FFEE"/>
<stop offset="1" stop-opacity="0"/>
</radialGradient>
<radialGradient id="paint16_radial_0_1" cx="0" cy="0" r="1" gradientUnits="userSpaceOnUse" gradientTransform="translate(336.704 942.729) rotate(-156.01) scale(59.8976 60.4184)">
<stop stop-color="white"/>
<stop offset="0.15" stop-color="#C4C4C4" stop-opacity="0.77"/>
<stop offset="0.32" stop-color="#898989" stop-opacity="0.54"/>
<stop offset="0.48" stop-color="#585858" stop-opacity="0.35"/>
<stop offset="0.64" stop-color="#323232" stop-opacity="0.2"/>
<stop offset="0.78" stop-color="#161616" stop-opacity="0.09"/>
<stop offset="0.9" stop-color="#050505" stop-opacity="0.02"/>
<stop offset="1" stop-opacity="0"/>
</radialGradient>
<radialGradient id="paint17_radial_0_1" cx="0" cy="0" r="1" gradientUnits="userSpaceOnUse" gradientTransform="translate(428.704 119.729) rotate(-156.01) scale(59.8976 60.4184)">
<stop stop-color="white"/>
<stop offset="0.15" stop-color="#C4C4C4" stop-opacity="0.77"/>
<stop offset="0.32" stop-color="#898989" stop-opacity="0.54"/>
<stop offset="0.48" stop-color="#585858" stop-opacity="0.35"/>
<stop offset="0.64" stop-color="#323232" stop-opacity="0.2"/>
<stop offset="0.78" stop-color="#161616" stop-opacity="0.09"/>
<stop offset="0.9" stop-color="#050505" stop-opacity="0.02"/>
<stop offset="1" stop-opacity="0"/>
</radialGradient>
<radialGradient id="paint18_radial_0_1" cx="0" cy="0" r="1" gradientUnits="userSpaceOnUse" gradientTransform="translate(274.704 635.729) rotate(-156.01) scale(59.8976 60.4184)">
<stop stop-color="white"/>
<stop offset="0.15" stop-color="#C4C4C4" stop-opacity="0.77"/>
<stop offset="0.32" stop-color="#898989" stop-opacity="0.54"/>
<stop offset="0.48" stop-color="#585858" stop-opacity="0.35"/>
<stop offset="0.64" stop-color="#323232" stop-opacity="0.2"/>
<stop offset="0.78" stop-color="#161616" stop-opacity="0.09"/>
<stop offset="0.9" stop-color="#050505" stop-opacity="0.02"/>
<stop offset="1" stop-opacity="0"/>
</radialGradient>
<radialGradient id="paint19_radial_0_1" cx="0" cy="0" r="1" gradientUnits="userSpaceOnUse" gradientTransform="translate(133.319 677.815) rotate(90) scale(76.385 77.0492)">
<stop stop-color="white"/>
<stop offset="0.15" stop-color="#C4C4C4" stop-opacity="0.77"/>
<stop offset="0.32" stop-color="#898989" stop-opacity="0.54"/>
<stop offset="0.48" stop-color="#585858" stop-opacity="0.35"/>
<stop offset="0.64" stop-color="#323232" stop-opacity="0.2"/>
<stop offset="0.78" stop-color="#161616" stop-opacity="0.09"/>
<stop offset="0.9" stop-color="#050505" stop-opacity="0.02"/>
<stop offset="1" stop-opacity="0"/>
</radialGradient>
</defs>
</svg>
