<svg width="345" height="191" viewBox="0 0 345 191" fill="none" xmlns="http://www.w3.org/2000/svg">
<path d="M313.175 124.491C311.826 122.347 311.334 119.773 311.798 117.283C311.845 117.036 311.459 116.977 311.413 117.224C310.935 119.816 311.452 122.494 312.861 124.722C312.995 124.934 313.309 124.702 313.175 124.491Z" fill="#0E1A60"/>
<path d="M306.503 142.098H134.97C133.203 142.096 131.51 141.393 130.26 140.144C129.011 138.895 128.309 137.202 128.307 135.435V6.66277C128.309 4.89629 129.011 3.20274 130.26 1.95366C131.51 0.70458 133.203 0.00198317 134.97 0H306.503C308.269 0.00201453 309.963 0.704627 311.212 1.9537C312.461 3.20278 313.164 4.89631 313.166 6.66277V135.435C313.164 137.202 312.461 138.895 311.212 140.144C309.963 141.393 308.269 142.096 306.503 142.098Z" fill="#122073"/>
<path d="M263.331 59.125H236.852C235.543 59.125 234.288 58.6052 233.363 57.6799C232.438 56.7546 231.918 55.4996 231.918 54.191C231.918 52.8825 232.438 51.6275 233.363 50.7022C234.288 49.7769 235.543 49.2571 236.852 49.2571H263.331C264.639 49.2571 265.894 49.7769 266.82 50.7022C267.745 51.6275 268.265 52.8825 268.265 54.191C268.265 55.4996 267.745 56.7546 266.82 57.6799C265.894 58.6052 264.639 59.125 263.331 59.125Z" fill="#0E1A60"/>
<path d="M240.142 72.6114H233.892C233.412 72.6114 232.952 72.4208 232.613 72.0815C232.274 71.7423 232.083 71.2821 232.083 70.8023C232.083 70.3225 232.274 69.8623 232.613 69.523C232.952 69.1838 233.412 68.9932 233.892 68.9932H240.142C240.622 68.9932 241.082 69.1838 241.421 69.523C241.76 69.8623 241.951 70.3225 241.951 70.8023C241.951 71.2821 241.76 71.7423 241.421 72.0815C241.082 72.4208 240.622 72.6114 240.142 72.6114Z" fill="#0E1A60"/>
<path d="M266.127 72.6114H259.877C259.398 72.6114 258.938 72.4208 258.598 72.0815C258.259 71.7423 258.068 71.2821 258.068 70.8023C258.068 70.3225 258.259 69.8623 258.598 69.523C258.938 69.1838 259.398 68.9932 259.877 68.9932H266.127C266.607 68.9932 267.067 69.1838 267.406 69.523C267.746 69.8623 267.936 70.3225 267.936 70.8023C267.936 71.2821 267.746 71.7423 267.406 72.0815C267.067 72.4208 266.607 72.6114 266.127 72.6114Z" fill="#0E1A60"/>
<path d="M252.97 72.6114H246.72C246.24 72.6114 245.78 72.4208 245.441 72.0815C245.102 71.7423 244.911 71.2821 244.911 70.8023C244.911 70.3225 245.102 69.8623 245.441 69.523C245.78 69.1838 246.24 68.9932 246.72 68.9932H252.97C253.45 68.9932 253.91 69.1838 254.249 69.523C254.588 69.8623 254.779 70.3225 254.779 70.8023C254.779 71.2821 254.588 71.7423 254.249 72.0815C253.91 72.4208 253.45 72.6114 252.97 72.6114Z" fill="#0E1A60"/>
<path d="M240.142 79.5189H233.892C233.412 79.5189 232.952 79.3283 232.613 78.989C232.274 78.6497 232.083 78.1896 232.083 77.7098C232.083 77.2299 232.274 76.7698 232.613 76.4305C232.952 76.0912 233.412 75.9006 233.892 75.9006H240.142C240.622 75.9006 241.082 76.0912 241.421 76.4305C241.76 76.7698 241.951 77.2299 241.951 77.7098C241.951 78.1896 241.76 78.6497 241.421 78.989C241.082 79.3283 240.622 79.5189 240.142 79.5189Z" fill="#0E1A60"/>
<path d="M266.127 79.5189H259.877C259.398 79.5189 258.938 79.3283 258.598 78.989C258.259 78.6497 258.068 78.1896 258.068 77.7098C258.068 77.2299 258.259 76.7698 258.598 76.4305C258.938 76.0912 259.398 75.9006 259.877 75.9006H266.127C266.607 75.9006 267.067 76.0912 267.406 76.4305C267.746 76.7698 267.936 77.2299 267.936 77.7098C267.936 78.1896 267.746 78.6497 267.406 78.989C267.067 79.3283 266.607 79.5189 266.127 79.5189Z" fill="#0E1A60"/>
<path d="M252.97 79.5189H246.72C246.24 79.5189 245.78 79.3283 245.441 78.989C245.102 78.6497 244.911 78.1896 244.911 77.7098C244.911 77.2299 245.102 76.7698 245.441 76.4305C245.78 76.0912 246.24 75.9006 246.72 75.9006H252.97C253.45 75.9006 253.91 76.0912 254.249 76.4305C254.588 76.7698 254.779 77.2299 254.779 77.7098C254.779 78.1896 254.588 78.6497 254.249 78.989C253.91 79.3283 253.45 79.5189 252.97 79.5189Z" fill="#0E1A60"/>
<path d="M240.142 86.4263H233.892C233.412 86.4263 232.952 86.2357 232.613 85.8965C232.274 85.5572 232.083 85.097 232.083 84.6172C232.083 84.1374 232.274 83.6773 232.613 83.338C232.952 82.9987 233.412 82.8081 233.892 82.8081H240.142C240.622 82.8081 241.082 82.9987 241.421 83.338C241.76 83.6773 241.951 84.1374 241.951 84.6172C241.951 85.097 241.76 85.5572 241.421 85.8965C241.082 86.2357 240.622 86.4263 240.142 86.4263Z" fill="#0E1A60"/>
<path d="M266.127 86.4263H259.877C259.398 86.4263 258.938 86.2357 258.598 85.8965C258.259 85.5572 258.068 85.097 258.068 84.6172C258.068 84.1374 258.259 83.6773 258.598 83.338C258.938 82.9987 259.398 82.8081 259.877 82.8081H266.127C266.607 82.8081 267.067 82.9987 267.406 83.338C267.746 83.6773 267.936 84.1374 267.936 84.6172C267.936 85.097 267.746 85.5572 267.406 85.8965C267.067 86.2357 266.607 86.4263 266.127 86.4263Z" fill="#0E1A60"/>
<path d="M252.97 86.4263H246.72C246.24 86.4263 245.78 86.2357 245.441 85.8965C245.102 85.5572 244.911 85.097 244.911 84.6172C244.911 84.1374 245.102 83.6773 245.441 83.338C245.78 82.9987 246.24 82.8081 246.72 82.8081H252.97C253.45 82.8081 253.91 82.9987 254.249 83.338C254.588 83.6773 254.779 84.1374 254.779 84.6172C254.779 85.097 254.588 85.5572 254.249 85.8965C253.91 86.2357 253.45 86.4263 252.97 86.4263Z" fill="#0E1A60"/>
<path d="M240.142 93.3341H233.892C233.412 93.3341 232.952 93.1435 232.613 92.8042C232.274 92.4649 232.083 92.0047 232.083 91.5249C232.083 91.0451 232.274 90.585 232.613 90.2457C232.952 89.9064 233.412 89.7158 233.892 89.7158H240.142C240.622 89.7158 241.082 89.9064 241.421 90.2457C241.76 90.585 241.951 91.0451 241.951 91.5249C241.951 92.0047 241.76 92.4649 241.421 92.8042C241.082 93.1435 240.622 93.3341 240.142 93.3341Z" fill="#0E1A60"/>
<path d="M266.127 93.3341H259.877C259.398 93.3341 258.938 93.1435 258.598 92.8042C258.259 92.4649 258.068 92.0047 258.068 91.5249C258.068 91.0451 258.259 90.585 258.598 90.2457C258.938 89.9064 259.398 89.7158 259.877 89.7158H266.127C266.607 89.7158 267.067 89.9064 267.406 90.2457C267.746 90.585 267.936 91.0451 267.936 91.5249C267.936 92.0047 267.746 92.4649 267.406 92.8042C267.067 93.1435 266.607 93.3341 266.127 93.3341Z" fill="#0E1A60"/>
<path d="M252.97 93.3341H246.72C246.24 93.3341 245.78 93.1435 245.441 92.8042C245.102 92.4649 244.911 92.0047 244.911 91.5249C244.911 91.0451 245.102 90.585 245.441 90.2457C245.78 89.9064 246.24 89.7158 246.72 89.7158H252.97C253.45 89.7158 253.91 89.9064 254.249 90.2457C254.588 90.585 254.779 91.0451 254.779 91.5249C254.779 92.0047 254.588 92.4649 254.249 92.8042C253.91 93.1435 253.45 93.3341 252.97 93.3341Z" fill="#0E1A60"/>
<path d="M197.874 86.0973C207.139 86.0973 214.65 78.5867 214.65 69.3218C214.65 60.057 207.139 52.5464 197.874 52.5464C188.609 52.5464 181.099 60.057 181.099 69.3218C181.099 78.5867 188.609 86.0973 197.874 86.0973Z" fill="#2340CD"/>
<path d="M197.873 89.8801C196.565 89.8786 195.311 89.3583 194.386 88.4333C193.461 87.5084 192.941 86.2542 192.939 84.9461V53.6977C192.939 53.0495 193.066 52.4074 193.314 51.8084C193.562 51.2093 193.925 50.6649 194.383 50.2063C194.841 49.7477 195.385 49.3839 195.984 49.1357C196.583 48.8875 197.225 48.7598 197.873 48.7598C198.522 48.7598 199.164 48.8875 199.762 49.1357C200.361 49.3839 200.905 49.7477 201.364 50.2063C201.822 50.6649 202.185 51.2093 202.433 51.8084C202.681 52.4074 202.808 53.0495 202.807 53.6977V84.9461C202.806 86.2542 202.286 87.5084 201.361 88.4333C200.436 89.3583 199.182 89.8786 197.873 89.8801Z" fill="#0E1A60"/>
<path d="M241.699 57.0066H237.094C236.92 57.0066 236.753 56.9373 236.629 56.814C236.506 56.6906 236.437 56.5233 236.437 56.3488C236.437 56.1743 236.506 56.007 236.629 55.8836C236.753 55.7602 236.92 55.6909 237.094 55.6909H241.699C241.874 55.6909 242.041 55.7602 242.165 55.8836C242.288 56.007 242.357 56.1743 242.357 56.3488C242.357 56.5233 242.288 56.6906 242.165 56.814C242.041 56.9373 241.874 57.0066 241.699 57.0066Z" fill="#2340CD"/>
<path d="M248.936 57.1709H244.331C244.156 57.1709 243.989 57.1016 243.866 56.9783C243.742 56.8549 243.673 56.6876 243.673 56.5131C243.673 56.3386 243.742 56.1713 243.866 56.0479C243.989 55.9245 244.156 55.8552 244.331 55.8552H248.936C249.11 55.8552 249.278 55.9245 249.401 56.0479C249.524 56.1713 249.594 56.3386 249.594 56.5131C249.594 56.6876 249.524 56.8549 249.401 56.9783C249.278 57.1016 249.11 57.1709 248.936 57.1709Z" fill="#2340CD"/>
<path d="M256.172 57.3355H251.567C251.393 57.3355 251.225 57.2662 251.102 57.1428C250.978 57.0194 250.909 56.8521 250.909 56.6776C250.909 56.5032 250.978 56.3358 251.102 56.2125C251.225 56.0891 251.393 56.0198 251.567 56.0198H256.172C256.347 56.0198 256.514 56.0891 256.637 56.2125C256.761 56.3358 256.83 56.5032 256.83 56.6776C256.83 56.8521 256.761 57.0194 256.637 57.1428C256.514 57.2662 256.347 57.3355 256.172 57.3355Z" fill="#2340CD"/>
<path d="M263.408 57.5H258.803C258.629 57.5 258.462 57.4307 258.338 57.3074C258.215 57.184 258.146 57.0167 258.146 56.8422C258.146 56.6677 258.215 56.5004 258.338 56.377C258.462 56.2536 258.629 56.1843 258.803 56.1843H263.408C263.583 56.1843 263.75 56.2536 263.874 56.377C263.997 56.5004 264.066 56.6677 264.066 56.8422C264.066 57.0167 263.997 57.184 263.874 57.3074C263.75 57.4307 263.583 57.5 263.408 57.5Z" fill="#2340CD"/>
<path d="M150.179 121.786C150.178 122.601 150.34 123.407 150.654 124.159C150.968 124.91 151.428 125.592 152.007 126.164H149.29C148.489 126.164 147.695 126.006 146.954 125.7C146.213 125.393 145.54 124.943 144.974 124.376C144.407 123.809 143.957 123.137 143.65 122.396C143.343 121.655 143.186 120.861 143.186 120.06V21.0905C143.186 20.2888 143.343 19.495 143.65 18.7543C143.957 18.0137 144.407 17.3407 144.974 16.7738C145.54 16.207 146.213 15.7573 146.954 15.4505C147.695 15.1437 148.489 14.9858 149.29 14.9858H153.244C152.312 15.5282 151.538 16.3057 151 17.2408C150.462 18.1759 150.179 19.2357 150.179 20.3145L150.179 121.786Z" fill="#2340CD"/>
<path d="M344.48 143H101.358C101.277 143 101.198 142.965 101.141 142.903C101.083 142.842 101.051 142.758 101.051 142.671C101.051 142.584 101.083 142.5 101.141 142.439C101.198 142.377 101.277 142.342 101.358 142.342H344.48C344.562 142.342 344.64 142.377 344.698 142.438C344.756 142.5 344.788 142.584 344.788 142.671C344.788 142.758 344.756 142.842 344.698 142.904C344.64 142.965 344.562 143 344.48 143Z" fill="#283BA9"/>
<path d="M149.521 43.9051C147.442 43.3229 145.356 42.7835 143.262 42.2868C136.1 40.5773 128.84 39.3118 121.523 38.4975C120.282 38.1709 118.963 38.3474 117.852 38.9888C116.742 39.6301 115.929 40.6842 115.592 41.9217L111.937 55.4078C111.602 56.6509 111.773 57.9764 112.414 59.0932C113.055 60.2101 114.113 61.027 115.355 61.3648L115.404 61.3746C120.24 61.9239 125.121 62.6871 129.976 63.6607C130.41 63.7462 130.841 63.835 131.275 63.9271C132.831 64.2495 134.383 64.5938 135.93 64.96C136.607 65.1179 137.281 65.2823 137.959 65.4501C139.781 65.904 141.605 66.3875 143.429 66.9007C145.459 67.473 147.489 68.0837 149.521 68.7328C149.742 68.7986 149.962 68.8677 150.179 68.94V44.0926C149.962 44.0268 149.742 43.9643 149.521 43.9051Z" fill="#0E1A60"/>
<path d="M149.521 43.9051C147.442 43.3229 145.356 42.7835 143.262 42.2868C136.1 40.5773 128.84 39.3118 121.523 38.4975C120.282 38.1709 118.963 38.3474 117.852 38.9888C116.742 39.6301 115.929 40.6842 115.592 41.9217L111.937 55.4078C111.602 56.6509 111.773 57.9764 112.414 59.0932C113.055 60.2101 114.113 61.027 115.355 61.3648L115.404 61.3746C120.24 61.9239 125.121 62.6871 129.976 63.6607C130.41 63.7462 130.841 63.835 131.275 63.9271C132.831 64.2495 134.383 64.5938 135.93 64.96C136.607 65.1179 137.281 65.2823 137.959 65.4501C139.781 65.904 141.605 66.3875 143.429 66.9007C145.459 67.473 147.489 68.0837 149.521 68.7328C149.742 68.7986 149.962 68.8677 150.179 68.94V68.246C149.958 68.1769 149.738 68.1078 149.521 68.0387C147.653 67.4434 145.787 66.8831 143.923 66.3579C143.225 66.1573 142.528 65.9632 141.831 65.7757C140.574 65.4369 139.321 65.1124 138.071 64.8021C137.407 64.6343 136.743 64.4731 136.081 64.3185C136.032 64.3054 135.979 64.2955 135.93 64.2824C134.801 64.0159 133.671 63.7616 132.538 63.5192C132.104 63.4271 131.67 63.335 131.236 63.2462C125.999 62.1608 120.723 61.3154 115.503 60.7233C114.435 60.426 113.528 59.7189 112.979 58.756C112.43 57.7931 112.284 56.6524 112.572 55.5821L116.227 42.0927C116.519 41.0194 117.225 40.1059 118.19 39.5527C119.155 38.9996 120.301 38.8519 121.374 39.1422L121.424 39.1488C128.648 39.951 135.817 41.1945 142.89 42.8723C142.962 42.892 143.035 42.9085 143.107 42.9249C145.252 43.438 147.39 43.9928 149.521 44.5893C149.738 44.6485 149.958 44.711 150.179 44.7768V44.0926C149.962 44.0268 149.742 43.9643 149.521 43.9051Z" fill="#223FCC"/>
<path d="M150.179 44.4348V68.5915C149.958 68.5191 149.741 68.45 149.521 68.381C147.577 67.7593 145.626 67.1738 143.669 66.6245C141.791 66.0916 139.906 65.5905 138.015 65.1213C137.344 64.9568 136.676 64.7956 136.005 64.6377C135.979 64.5193 135.952 64.4009 135.929 64.2825C135.808 63.7167 135.712 63.1444 135.64 62.5688C135.607 62.3484 135.584 62.128 135.561 61.9043C135.215 58.3803 135.697 54.8242 136.97 51.5198C138.242 48.2154 140.269 45.2541 142.89 42.8724C142.985 42.7803 143.084 42.6915 143.182 42.606C145.307 43.1125 147.42 43.6607 149.521 44.2506C149.741 44.3065 149.962 44.369 150.179 44.4348Z" fill="#223FCC"/>
<path d="M128.334 54.3257L119.187 53.2468C118.865 53.2088 118.539 53.2345 118.227 53.3225C117.915 53.4106 117.624 53.5592 117.369 53.7599C117.115 53.9605 116.902 54.2094 116.744 54.4921C116.586 54.7749 116.485 55.0861 116.447 55.4079C116.409 55.7297 116.434 56.0558 116.522 56.3677C116.611 56.6795 116.759 56.971 116.96 57.2254C117.16 57.4799 117.409 57.6923 117.692 57.8505C117.975 58.0088 118.286 58.1098 118.608 58.1478L127.755 59.2267C128.404 59.3018 129.057 59.1164 129.569 58.7111C130.082 58.3059 130.413 57.7139 130.489 57.065C130.566 56.4161 130.382 55.7633 129.978 55.2498C129.574 54.7362 128.983 54.4039 128.334 54.3257ZM129.841 56.99C129.783 57.4661 129.54 57.9 129.163 58.1966C128.786 58.4932 128.307 58.6282 127.831 58.5722L118.683 57.4933C118.208 57.4354 117.776 57.1917 117.48 56.8155C117.184 56.4392 117.05 55.9611 117.106 55.4859C117.162 55.0107 117.404 54.5771 117.779 54.2801C118.155 53.9831 118.632 53.8469 119.108 53.9013L128.255 54.9802C128.731 55.0379 129.165 55.2816 129.462 55.6581C129.76 56.0347 129.896 56.5135 129.841 56.99Z" fill="#223FCC"/>
<path d="M150.179 50.0924V61.5491C149.968 61.6759 149.748 61.788 149.521 61.8846C148.341 62.4117 147.032 62.5823 145.755 62.3754C144.479 62.1686 143.291 61.5932 142.337 60.7202C142.245 60.638 142.153 60.5492 142.064 60.4571C141.976 60.3682 141.89 60.2728 141.808 60.1775C140.815 59.0369 140.241 57.5916 140.181 56.0806C140.121 54.5696 140.579 53.0834 141.478 51.8678C142.378 50.6522 143.665 49.7801 145.128 49.3956C146.59 49.0112 148.14 49.1375 149.521 49.7536C149.746 49.8547 149.966 49.9678 150.179 50.0924Z" fill="#0E1A60"/>
<path d="M149.522 58.3848C146.933 58.9243 144.362 59.5219 141.808 60.1775C140.855 60.4209 139.904 60.6731 138.957 60.9341C137.825 61.2465 136.694 61.57 135.562 61.9044C134.118 62.332 132.676 62.7794 131.237 63.2464C130.819 63.3846 130.398 63.5227 129.977 63.6609C125.974 64.9964 121.997 66.4765 118.086 68.0916C116.841 68.4027 115.77 69.1928 115.105 70.29C114.441 71.3873 114.236 72.7027 114.537 73.9498L117.836 87.5281C118.141 88.7787 118.93 89.8571 120.03 90.5268C121.129 91.1965 122.449 91.4027 123.701 91.1003L123.747 91.0838C130.178 88.4457 136.761 86.1919 143.46 84.3342C145.46 83.7783 147.48 83.2542 149.522 82.7619C149.742 82.7093 149.959 82.6566 150.18 82.6073V58.25C149.959 58.2895 149.742 58.3355 149.522 58.3848Z" fill="#0E1A60"/>
<path d="M149.522 58.3848C146.933 58.9243 144.362 59.5219 141.808 60.1775C140.855 60.4209 139.904 60.6731 138.957 60.9341C137.825 61.2465 136.694 61.57 135.562 61.9044C134.118 62.332 132.676 62.7794 131.237 63.2464C130.819 63.3846 130.398 63.5227 129.977 63.6609C125.974 64.9964 121.997 66.4765 118.086 68.0916C116.841 68.4027 115.77 69.1928 115.105 70.29C114.441 71.3873 114.236 72.7027 114.537 73.9498L117.836 87.5281C118.141 88.7787 118.93 89.8571 120.03 90.5268C121.129 91.1965 122.449 91.4027 123.701 91.1003L123.747 91.0838C130.178 88.4457 136.761 86.1919 143.46 84.3342C145.46 83.7783 147.48 83.2542 149.522 82.7619C149.742 82.7093 149.959 82.6566 150.18 82.6073V81.9297C149.959 81.9823 149.742 82.035 149.522 82.0876C149.357 82.1271 149.19 82.1665 149.025 82.206C147.091 82.6764 145.178 83.1742 143.285 83.6994C143.236 83.7125 143.183 83.729 143.134 83.7421C136.469 85.5957 129.92 87.8418 123.52 90.4687C122.441 90.7217 121.305 90.5385 120.36 89.9589C119.416 89.3793 118.738 88.4502 118.474 87.3735L115.178 73.7953C114.917 72.714 115.095 71.5732 115.673 70.623C116.251 69.6728 117.183 68.9907 118.264 68.7264L118.313 68.71C122.573 66.9469 126.908 65.3483 131.276 63.9273C131.697 63.7892 132.118 63.6543 132.539 63.5195C133.572 63.1938 134.606 62.877 135.641 62.5689C136.733 62.2432 137.824 61.9296 138.914 61.6281C138.986 61.6084 139.059 61.5886 139.131 61.5689C140.197 61.2762 141.266 60.9933 142.338 60.7203C144.716 60.115 147.111 59.5591 149.522 59.0526C149.739 59.0066 149.959 58.9605 150.18 58.9177V58.25C149.959 58.2895 149.742 58.3355 149.522 58.3848Z" fill="#223FCC"/>
<path d="M150.179 58.582V82.2683C149.962 82.3177 149.742 82.367 149.521 82.4196C147.462 82.9196 145.412 83.4525 143.37 84.0182C143.288 83.9262 143.209 83.834 143.133 83.7419C141.002 81.247 139.436 78.3202 138.543 75.1627C137.65 72.0052 137.451 68.6918 137.959 65.4501C137.976 65.3416 137.996 65.2297 138.015 65.1212C138.032 65.0159 138.052 64.9074 138.071 64.8021C138.274 63.725 138.556 62.6641 138.913 61.6279C138.956 61.5029 138.999 61.3779 139.045 61.2529C140.048 60.9767 141.055 60.7113 142.064 60.4569C144.535 59.8188 147.02 59.2388 149.521 58.7169C149.738 58.6676 149.959 58.6248 150.179 58.582Z" fill="#223FCC"/>
<path d="M134.894 80.0381C134.647 79.4323 134.17 78.9491 133.568 78.6944C132.965 78.4398 132.287 78.4344 131.68 78.6797L123.144 82.14C122.539 82.3867 122.056 82.8636 121.802 83.4658C121.548 84.0681 121.544 84.7466 121.789 85.3523C122.035 85.958 122.511 86.4414 123.113 86.6963C123.715 86.9513 124.394 86.957 125 86.7122L133.535 83.2518C134.141 83.0046 134.623 82.5277 134.878 81.9254C135.133 81.3232 135.138 80.6446 134.894 80.0381ZM133.289 82.64L124.753 86.1036C124.308 86.2834 123.81 86.2794 123.368 86.0923C122.927 85.9053 122.577 85.5506 122.397 85.106C122.216 84.6615 122.22 84.1636 122.406 83.7216C122.593 83.2795 122.947 82.9296 123.391 82.7485L131.927 79.2882C132.371 79.1076 132.869 79.111 133.311 79.2976C133.753 79.4842 134.103 79.8387 134.284 80.2832C134.464 80.7277 134.461 81.2257 134.274 81.6677C134.088 82.1096 133.733 82.4594 133.289 82.64Z" fill="#223FCC"/>
<path d="M150.179 64.6312V77.5286C149.962 77.5838 149.742 77.6277 149.521 77.6601C148.2 77.8452 146.855 77.6288 145.659 77.0389C144.463 76.4491 143.472 75.5132 142.815 74.3528C142.158 73.1924 141.865 71.8612 141.975 70.5322C142.084 69.2032 142.591 67.938 143.429 66.9008C143.505 66.8054 143.584 66.7133 143.669 66.6245C143.748 66.5324 143.834 66.4436 143.923 66.3581C144.65 65.6387 145.533 65.097 146.505 64.7752C147.476 64.4534 148.508 64.3602 149.521 64.5029C149.742 64.5326 149.962 64.5755 150.179 64.6312Z" fill="#0E1A60"/>
<path d="M149.521 42.1916V75.0222C149.741 74.9498 149.961 74.8807 150.178 74.815V42.4909C149.958 42.389 149.741 42.2903 149.521 42.1916ZM149.521 42.1916V75.0222C149.741 74.9498 149.961 74.8807 150.178 74.815V42.4909C149.958 42.389 149.741 42.2903 149.521 42.1916ZM149.521 42.1916V75.0222C149.741 74.9498 149.961 74.8807 150.178 74.815V42.4909C149.958 42.389 149.741 42.2903 149.521 42.1916ZM149.521 44.5895V82.4198C149.741 82.3672 149.961 82.3179 150.178 82.2685V44.777C149.958 44.7112 149.738 44.6487 149.521 44.5895ZM149.521 44.5895V82.4198C149.741 82.3672 149.961 82.3179 150.178 82.2685V44.777C149.958 44.7112 149.738 44.6487 149.521 44.5895ZM149.521 44.5895V82.4198C149.741 82.3672 149.961 82.3179 150.178 82.2685V44.777C149.958 44.7112 149.738 44.6487 149.521 44.5895ZM149.521 44.5895V82.4198C149.741 82.3672 149.961 82.3179 150.178 82.2685V44.777C149.958 44.7112 149.738 44.6487 149.521 44.5895ZM149.521 44.5895V82.7619C149.741 82.7093 149.958 82.6567 150.178 82.6073V44.777C149.958 44.7112 149.738 44.6487 149.521 44.5895ZM293.016 13.4858H156.349C154.539 13.4889 152.804 14.2092 151.524 15.4892C150.244 16.7692 149.524 18.5043 149.521 20.3144V121.786C149.524 123.596 150.244 125.331 151.524 126.61C152.804 127.89 154.539 128.609 156.349 128.612H293.016C294.826 128.609 296.561 127.89 297.84 126.61C299.12 125.331 299.84 123.596 299.842 121.786V20.3144C299.84 18.5044 299.121 16.7689 297.841 15.4887C296.562 14.2085 294.826 13.4882 293.016 13.4858ZM299.184 121.786C299.182 123.421 298.532 124.989 297.376 126.145C296.219 127.302 294.652 127.952 293.016 127.954H156.349C154.714 127.952 153.145 127.302 151.989 126.146C150.832 124.99 150.181 123.422 150.178 121.786V20.3144C150.181 18.6786 150.832 17.1105 151.988 15.9538C153.145 14.7971 154.713 14.1462 156.349 14.1437H293.016C294.652 14.1456 296.22 14.7964 297.377 15.9534C298.533 17.1103 299.183 18.6787 299.184 20.3144V121.786ZM149.521 44.5895V82.0876C149.741 82.035 149.958 81.9824 150.178 81.9297V44.777C149.958 44.7112 149.738 44.6487 149.521 44.5895ZM149.521 44.5895V82.4198C149.741 82.3672 149.961 82.3179 150.178 82.2685V44.777C149.958 44.7112 149.738 44.6487 149.521 44.5895ZM149.521 44.5895V82.4198C149.741 82.3672 149.961 82.3179 150.178 82.2685V44.777C149.958 44.7112 149.738 44.6487 149.521 44.5895ZM149.521 44.5895V82.4198C149.741 82.3672 149.961 82.3179 150.178 82.2685V44.777C149.958 44.7112 149.738 44.6487 149.521 44.5895ZM149.521 42.1916V75.0222C149.741 74.9498 149.961 74.8807 150.178 74.815V42.4909C149.958 42.389 149.741 42.2903 149.521 42.1916ZM149.521 42.1916V75.0222C149.741 74.9498 149.961 74.8807 150.178 74.815V42.4909C149.958 42.389 149.741 42.2903 149.521 42.1916Z" fill="#283BA9"/>
<path style="mix-blend-mode:color-dodge" d="M231.395 76.7858C238.408 61.0265 231.496 42.645 215.956 35.7295C200.416 28.814 182.134 35.9833 175.12 51.7426C168.107 67.5019 175.019 85.8834 190.559 92.7989C206.099 99.7144 224.381 92.5451 231.395 76.7858Z" fill="url(#paint0_radial_0_1)"/>
<path style="mix-blend-mode:color-dodge" d="M122.834 135.801C144.834 135.801 162.668 118.216 162.668 96.5236C162.668 74.8313 144.834 57.2463 122.834 57.2463C100.834 57.2463 83 74.8313 83 96.5236C83 118.216 100.834 135.801 122.834 135.801Z" fill="url(#paint1_radial_0_1)"/>
<path style="mix-blend-mode:color-dodge" d="M133.165 45H-112.16V54.7813H133.165V45Z" fill="url(#paint2_radial_0_1)"/>
<path style="mix-blend-mode:color-dodge" d="M175.117 54.312H-154.117V59.2027H175.117V54.312Z" fill="url(#paint3_radial_0_1)"/>
<path style="mix-blend-mode:color-dodge" d="M175.117 58.9661H-154.117V61.4114H175.117V58.9661Z" fill="url(#paint4_radial_0_1)"/>
<path style="mix-blend-mode:color-dodge" d="M175.117 46.2786H-154.117V60.3693H175.117V46.2786Z" fill="url(#paint5_radial_0_1)"/>
<path style="mix-blend-mode:color-dodge" d="M191.632 63.5288H-170.629V70.5742H191.632V63.5288Z" fill="url(#paint6_radial_0_1)"/>
<path style="mix-blend-mode:color-dodge" d="M274.404 60.0994H-253.4V67.1447H274.404V60.0994Z" fill="url(#paint7_radial_0_1)"/>
<path style="mix-blend-mode:color-dodge" d="M196.955 65.5964H-175.946V75.3777H196.955V65.5964Z" fill="url(#paint8_radial_0_1)"/>
<path style="mix-blend-mode:color-dodge" d="M175.117 78.3333H-154.117V83.2239H175.117V78.3333Z" fill="url(#paint9_radial_0_1)"/>
<path style="mix-blend-mode:color-dodge" d="M175.117 82.9917H-154.117V85.437H175.117V82.9917Z" fill="url(#paint10_radial_0_1)"/>
<path style="mix-blend-mode:color-dodge" d="M175.117 66.8708H-154.117V80.9616H175.117V66.8708Z" fill="url(#paint11_radial_0_1)"/>
<path style="mix-blend-mode:color-dodge" d="M203.407 87.5547H-182.402V94.6001H203.407V87.5547Z" fill="url(#paint12_radial_0_1)"/>
<path style="mix-blend-mode:color-dodge" d="M203.407 103.763H-182.402V105.851H203.407V103.763Z" fill="url(#paint13_radial_0_1)"/>
<path style="mix-blend-mode:color-dodge" d="M332 84.1211H-311V91.1665H332V84.1211Z" fill="url(#paint14_radial_0_1)"/>
<path style="mix-blend-mode:color-dodge" d="M233.984 98.1992H-212.979V104.543H233.984V98.1992Z" fill="url(#paint15_radial_0_1)"/>
<path style="mix-blend-mode:color-dodge" d="M221.732 96.3726H-200.728V99.5071H221.732V96.3726Z" fill="url(#paint16_radial_0_1)"/>
<path style="mix-blend-mode:color-dodge" d="M175.117 105.793H-154.117V110.683H175.117V105.793Z" fill="url(#paint17_radial_0_1)"/>
<path style="mix-blend-mode:color-dodge" d="M175.117 110.447H-154.117V112.892H175.117V110.447Z" fill="url(#paint18_radial_0_1)"/>
<path style="mix-blend-mode:color-dodge" d="M213.134 113.54H-192.126V123.528H213.134V113.54Z" fill="url(#paint19_radial_0_1)"/>
<path style="mix-blend-mode:color-dodge" d="M265.242 127.95H-244.241V129.71H265.242V127.95Z" fill="url(#paint20_radial_0_1)"/>
<path style="mix-blend-mode:color-dodge" d="M265.242 76.4692H-244.241V78.2295H265.242V76.4692Z" fill="url(#paint21_radial_0_1)"/>
<path style="mix-blend-mode:color-dodge" d="M265.242 93.6282H-244.241V95.3885H265.242V93.6282Z" fill="url(#paint22_radial_0_1)"/>
<path style="mix-blend-mode:color-dodge" d="M283.43 111.58H-262.426V118.625H283.43V111.58Z" fill="url(#paint23_radial_0_1)"/>
<path style="mix-blend-mode:color-dodge" d="M283.43 123.296H-262.426V127.502H283.43V123.296Z" fill="url(#paint24_radial_0_1)"/>
<path style="mix-blend-mode:color-dodge" d="M175.117 114.922H-154.117V129.013H175.117V114.922Z" fill="url(#paint25_radial_0_1)"/>
<path style="mix-blend-mode:color-dodge" d="M203.407 130.487H-182.402V140.903H203.407V130.487Z" fill="url(#paint26_radial_0_1)"/>
<path style="mix-blend-mode:color-dodge" d="M203.407 148.38H-182.402V150.468H203.407V148.38Z" fill="url(#paint27_radial_0_1)"/>
<path style="mix-blend-mode:color-dodge" d="M332 128.739H-311V135.784H332V128.739Z" fill="url(#paint28_radial_0_1)"/>
<path style="mix-blend-mode:color-dodge" d="M175.117 141.102H-154.117V150.884H175.117V141.102Z" fill="url(#paint29_radial_0_1)"/>
<path style="mix-blend-mode:color-dodge" d="M221.732 140.99H-200.728V144.125H221.732V140.99Z" fill="url(#paint30_radial_0_1)"/>
<path style="mix-blend-mode:color-dodge" d="M175.117 150.41H-154.117V155.301H175.117V150.41Z" fill="url(#paint31_radial_0_1)"/>
<path style="mix-blend-mode:color-dodge" d="M175.117 155.064H-154.117V157.51H175.117V155.064Z" fill="url(#paint32_radial_0_1)"/>
<path style="mix-blend-mode:color-dodge" d="M213.134 158.157H-192.126V168.146H213.134V158.157Z" fill="url(#paint33_radial_0_1)"/>
<path style="mix-blend-mode:color-dodge" d="M265.246 169.135H-244.241V170.895H265.246V169.135Z" fill="url(#paint34_radial_0_1)"/>
<path style="mix-blend-mode:color-dodge" d="M265.246 138.246H-244.241V140.006H265.246V138.246Z" fill="url(#paint35_radial_0_1)"/>
<path style="mix-blend-mode:color-dodge" d="M283.43 156.198H-262.426V163.243H283.43V156.198Z" fill="url(#paint36_radial_0_1)"/>
<path style="mix-blend-mode:color-dodge" d="M179.937 173.357H-158.93V180.402H179.937V173.357Z" fill="url(#paint37_radial_0_1)"/>
<path style="mix-blend-mode:color-dodge" d="M179.937 189.474H-158.93V191.745H179.937V189.474Z" fill="url(#paint38_radial_0_1)"/>
<path style="mix-blend-mode:color-dodge" d="M205.1 171.127H-184.093V175.769H205.1V171.127Z" fill="url(#paint39_radial_0_1)"/>
<path style="mix-blend-mode:color-dodge" d="M162.916 178.355H-141.907V182.266H162.916V178.355Z" fill="url(#paint40_radial_0_1)"/>
<path style="mix-blend-mode:color-dodge" d="M138.512 187.223H-117.508V200.857H138.512V187.223Z" fill="url(#paint41_radial_0_1)"/>
<path style="mix-blend-mode:color-dodge" d="M162.916 182.324H-141.907V192.031H162.916V182.324Z" fill="url(#paint42_radial_0_1)"/>
<path style="mix-blend-mode:color-dodge" d="M162.916 182.225H-141.907V185.264H162.916V182.225Z" fill="url(#paint43_radial_0_1)"/>
<path style="mix-blend-mode:color-dodge" d="M283.43 164.48H-262.426V168.686H283.43V164.48Z" fill="url(#paint44_radial_0_1)"/>
<defs>
<radialGradient id="paint0_radial_0_1" cx="0" cy="0" r="1" gradientUnits="userSpaceOnUse" gradientTransform="translate(197.339 68.9684) rotate(-156.01) scale(30.8911 31.1597)">
<stop stop-color="white"/>
<stop offset="0.15" stop-color="#C4C4C4" stop-opacity="0.77"/>
<stop offset="0.32" stop-color="#898989" stop-opacity="0.54"/>
<stop offset="0.48" stop-color="#585858" stop-opacity="0.35"/>
<stop offset="0.64" stop-color="#323232" stop-opacity="0.2"/>
<stop offset="0.78" stop-color="#161616" stop-opacity="0.09"/>
<stop offset="0.9" stop-color="#050505" stop-opacity="0.02"/>
<stop offset="1" stop-opacity="0"/>
</radialGradient>
<radialGradient id="paint1_radial_0_1" cx="0" cy="0" r="1" gradientUnits="userSpaceOnUse" gradientTransform="translate(124.423 90.6734) rotate(90) scale(39.3942 39.7368)">
<stop stop-color="white"/>
<stop offset="0.15" stop-color="rgba(30, 144, 255, 0.98)" /> <!-- Almost fully opaque DodgerBlue -->
<stop offset="0.32" stop-color="rgba(30, 144, 255, 0.77)" /> <!-- 77% opacity DodgerBlue -->
<stop offset="0.48" stop-color="rgba(30, 144, 255, 0.54)" /> <!-- 54% opacity DodgerBlue -->
<stop offset="0.64" stop-color="rgba(30, 144, 255, 0.35)" /> <!-- 35% opacity DodgerBlue -->
<stop offset="0.78" stop-color="rgba(30, 144, 255, 0.2)" />  <!-- 20% opacity DodgerBlue -->
<stop offset="0.9" stop-color="rgba(30, 144, 255, 0.09)" />  <!-- 9% opacity DodgerBlue -->
<stop offset="1" stop-color="rgba(30, 144, 255, 0)" />
</radialGradient>
<radialGradient id="paint2_radial_0_1" cx="0" cy="0" r="1" gradientUnits="userSpaceOnUse" gradientTransform="translate(6.12304 49.4607) rotate(-180) scale(118.712 3.78868)">
    <stop stop-color="#1E90FF"/>
    <stop offset="1" stop-opacity="0"/>
</radialGradient>

<radialGradient id="paint3_radial_0_1" cx="0" cy="0" r="1" gradientUnits="userSpaceOnUse" gradientTransform="translate(-0.730978 61.9747) rotate(-180) scale(159.135 2.52596)">
    <stop stop-color="#1E90FF"/>
    <stop offset="1" stop-opacity="0"/>
</radialGradient>

<radialGradient id="paint4_radial_0_1" cx="0" cy="0" r="1" gradientUnits="userSpaceOnUse" gradientTransform="translate(-0.73098 33.5413) rotate(-180) scale(159.135 0)">
    <stop stop-color="#1E90FF"/>
    <stop offset="1" stop-opacity="0"/>
</radialGradient>

<radialGradient id="paint5_radial_0_1" cx="0" cy="0" r="1" gradientUnits="userSpaceOnUse" gradientTransform="translate(-0.732059 53.0217) rotate(-180) scale(159.135 6.31488)">
    <stop stop-color="#1E90FF"/>
    <stop offset="1" stop-opacity="0"/>
</radialGradient>

<radialGradient id="paint6_radial_0_1" cx="0" cy="0" r="1" gradientUnits="userSpaceOnUse" gradientTransform="translate(14.7636 65.2462) rotate(-180) scale(175.554 2.52595)">
    <stop stop-color="#1E90FF"/>
    <stop offset="1" stop-opacity="0"/>
</radialGradient>

<radialGradient id="paint7_radial_0_1" cx="0" cy="0" r="1" gradientUnits="userSpaceOnUse" gradientTransform="translate(-0.302901 61.804) rotate(-180) scale(255.113 2.52587)">
    <stop stop-color="#1E90FF"/>
    <stop offset="1" stop-opacity="0"/>
</radialGradient>

<radialGradient id="paint8_radial_0_1" cx="0" cy="0" r="1" gradientUnits="userSpaceOnUse" gradientTransform="translate(11.331 70.0744) rotate(-180) scale(180.605 3.78892)">
    <stop stop-color="#1E90FF"/>
    <stop offset="1" stop-opacity="0"/>
</radialGradient>

<radialGradient id="paint9_radial_0_1" cx="0" cy="0" r="1" gradientUnits="userSpaceOnUse" gradientTransform="translate(-0.730978 85.8728) rotate(-180) scale(159.135 2.52596)">
    <stop stop-color="#1E90FF"/>
    <stop offset="1" stop-opacity="0"/>
</radialGradient>

<radialGradient id="paint10_radial_0_1" cx="0" cy="0" r="1" gradientUnits="userSpaceOnUse" gradientTransform="translate(-0.73098 58.0651) rotate(-180) scale(159.135 0)">
    <stop stop-color="#1E90FF"/>
    <stop offset="1" stop-opacity="0"/>
</radialGradient>

<radialGradient id="paint11_radial_0_1" cx="0" cy="0" r="1" gradientUnits="userSpaceOnUse" gradientTransform="translate(-0.732059 73.5722) rotate(-180) scale(159.135 6.31488)">
    <stop stop-color="#1E90FF"/>
    <stop offset="1" stop-opacity="0"/>
</radialGradient>

<radialGradient id="paint12_radial_0_1" cx="0" cy="0" r="1" gradientUnits="userSpaceOnUse" gradientTransform="translate(13.3047 89.3319) rotate(-180) scale(186.92 2.52595)">
    <stop stop-color="#1E90FF"/>
    <stop offset="1" stop-opacity="0"/>
</radialGradient>

<radialGradient id="paint13_radial_0_1" cx="0" cy="0" r="1" gradientUnits="userSpaceOnUse" gradientTransform="translate(13.3005 77.1421) rotate(-180) scale(186.92 0)">
    <stop stop-color="#1E90FF"/>
    <stop offset="1" stop-opacity="0"/>
</radialGradient>

<radialGradient id="paint14_radial_0_1" cx="0" cy="0" r="1" gradientUnits="userSpaceOnUse" gradientTransform="translate(21.01 85.8939) rotate(-180) scale(311.945 2.52587)">
    <stop stop-color="#1E90FF"/>
    <stop offset="1" stop-opacity="0"/>
</radialGradient>

<radialGradient id="paint15_radial_0_1" cx="0" cy="0" r="1" gradientUnits="userSpaceOnUse" gradientTransform="translate(-2.3225 100.907) rotate(-180) scale(215.969 2.52594)">
    <stop stop-color="#1E90FF"/>
    <stop offset="1" stop-opacity="0"/>
</radialGradient>

<radialGradient id="paint16_radial_0_1" cx="0" cy="0" r="1" gradientUnits="userSpaceOnUse" gradientTransform="translate(11.238 97.5167) rotate(-180) scale(204.609 1.26301)">
    <stop stop-color="#1E90FF"/>
    <stop offset="1" stop-opacity="0"/>
</radialGradient>

<radialGradient id="paint17_radial_0_1" cx="0" cy="0" r="1" gradientUnits="userSpaceOnUse" gradientTransform="translate(-0.730978 113.182) rotate(-180) scale(159.135 2.52596)">
    <stop stop-color="#1E90FF"/>
    <stop offset="1" stop-opacity="0"/>
</radialGradient>

<radialGradient id="paint18_radial_0_1" cx="0" cy="0" r="1" gradientUnits="userSpaceOnUse" gradientTransform="translate(-0.73098 86.0887) rotate(-180) scale(159.135 0)">
    <stop stop-color="#1E90FF"/>
    <stop offset="1" stop-opacity="0"/>
</radialGradient>

<radialGradient id="paint19_radial_0_1" cx="0" cy="0" r="1" gradientUnits="userSpaceOnUse" gradientTransform="translate(-4.12349 118.048) rotate(-180) scale(195.761 3.78892)">
    <stop stop-color="#1E90FF"/>
    <stop offset="1" stop-opacity="0"/>
</radialGradient>

<radialGradient id="paint20_radial_0_1" cx="0" cy="0" r="1" gradientUnits="userSpaceOnUse" gradientTransform="translate(-0.164381 100.3) rotate(-180) scale(246.28 0)">
    <stop stop-color="#1E90FF"/>
    <stop offset="1" stop-opacity="0"/>
</radialGradient>

<radialGradient id="paint21_radial_0_1" cx="0" cy="0" r="1" gradientUnits="userSpaceOnUse" gradientTransform="translate(-0.164381 47.7565) rotate(-180) scale(246.28 0)">
    <stop stop-color="#1E90FF"/>
    <stop offset="1" stop-opacity="0"/>
</radialGradient>

<radialGradient id="paint22_radial_0_1" cx="0" cy="0" r="1" gradientUnits="userSpaceOnUse" gradientTransform="translate(-0.164381 65.2683) rotate(-180) scale(246.28 0)">
    <stop stop-color="#1E90FF"/>
    <stop offset="1" stop-opacity="0"/>
</radialGradient>

<radialGradient id="paint23_radial_0_1" cx="0" cy="0" r="1" gradientUnits="userSpaceOnUse" gradientTransform="translate(-0.164381 65.2683) rotate(-180) scale(246.28 0)">
    <stop stop-color="#1E90FF"/>
    <stop offset="1" stop-opacity="0"/>
</radialGradient>

<radialGradient id="paint26_radial_0_1" cx="0" cy="0" r="1" gradientUnits="userSpaceOnUse" gradientTransform="translate(13.3027 135.345) rotate(-180) scale(186.92 3.78892)">
<stop stop-color="#1E90FF"/>
<stop offset="0.15" stop-color="#00D0C2" stop-opacity="0.82"/>
<stop offset="0.47" stop-color="#1E90FF" stop-opacity="0.47"/>
<stop offset="0.72" stop-color="#003733" stop-opacity="0.22"/>
<stop offset="0.9" stop-color="#000F0E" stop-opacity="0.06"/>
<stop offset="1" stop-opacity="0"/>
</radialGradient>
<radialGradient id="paint27_radial_0_1" cx="0" cy="0" r="1" gradientUnits="userSpaceOnUse" gradientTransform="translate(13.3005 122.681) rotate(-180) scale(186.92 0)">
<stop stop-color="#1E90FF"/>
<stop offset="1" stop-opacity="0"/>
</radialGradient>
<radialGradient id="paint28_radial_0_1" cx="0" cy="0" r="1" gradientUnits="userSpaceOnUse" gradientTransform="translate(21.01 130.627) rotate(-180) scale(311.945 2.52588)">
<stop stop-color="#1E90FF"/>
<stop offset="1" stop-opacity="0"/>
</radialGradient>
<radialGradient id="paint29_radial_0_1" cx="0" cy="0" r="1" gradientUnits="userSpaceOnUse" gradientTransform="translate(-0.726843 145.667) rotate(-180) scale(159.135 3.78893)">
<stop stop-color="#1E90FF"/>
<stop offset="1" stop-opacity="0"/>
</radialGradient>
<radialGradient id="paint30_radial_0_1" cx="0" cy="0" r="1" gradientUnits="userSpaceOnUse" gradientTransform="translate(11.238 142.146) rotate(-180) scale(204.609 1.26302)">
<stop stop-color="#1E90FF"/>
<stop offset="1" stop-opacity="0"/>
</radialGradient>
<radialGradient id="paint31_radial_0_1" cx="0" cy="0" r="1" gradientUnits="userSpaceOnUse" gradientTransform="translate(-0.730978 157.556) rotate(-180) scale(159.135 2.52596)">
<stop stop-color="#1E90FF"/>
<stop offset="1" stop-opacity="0"/>
</radialGradient>
<radialGradient id="paint32_radial_0_1" cx="0" cy="0" r="1" gradientUnits="userSpaceOnUse" gradientTransform="translate(-0.73098 131.624) rotate(180) scale(159.135 0)">
<stop stop-color="#1E90FF"/>
<stop offset="1" stop-opacity="0"/>
</radialGradient>
<radialGradient id="paint33_radial_0_1" cx="0" cy="0" r="1" gradientUnits="userSpaceOnUse" gradientTransform="translate(-4.12349 162.731) rotate(-180) scale(195.761 3.78891)">
<stop stop-color="#1E90FF"/>
<stop offset="1" stop-opacity="0"/>
</radialGradient>
<radialGradient id="paint34_radial_0_1" cx="0" cy="0" r="1" gradientUnits="userSpaceOnUse" gradientTransform="translate(-0.164411 142.336) rotate(-180) scale(246.28 0)">
<stop stop-color="#1E90FF"/>
<stop offset="1" stop-opacity="0"/>
</radialGradient>
<radialGradient id="paint35_radial_0_1" cx="0" cy="0" r="1" gradientUnits="userSpaceOnUse" gradientTransform="translate(-0.164411 110.808) rotate(-180) scale(246.28 0)">
<stop stop-color="#1E90FF"/>
<stop offset="1" stop-opacity="0"/>
</radialGradient>
<radialGradient id="paint36_radial_0_1" cx="0" cy="0" r="1" gradientUnits="userSpaceOnUse" gradientTransform="translate(2.25425 158.154) rotate(-180) scale(263.962 2.52596)">
<stop stop-color="#1E90FF"/>
<stop offset="1" stop-opacity="0"/>
</radialGradient>
<radialGradient id="paint37_radial_0_1" cx="0" cy="0" r="1" gradientUnits="userSpaceOnUse" gradientTransform="translate(13.6741 175.356) rotate(-180) scale(164.187 2.52595)">
<stop stop-color="#1E90FF"/>
<stop offset="1" stop-opacity="0"/>
</radialGradient>
<radialGradient id="paint38_radial_0_1" cx="0" cy="0" r="1" gradientUnits="userSpaceOnUse" gradientTransform="translate(13.6754 166.345) rotate(180) scale(164.187 0)">
<stop stop-color="#1E90FF"/>
<stop offset="1" stop-opacity="0"/>
</radialGradient>
<radialGradient id="paint39_radial_0_1" cx="0" cy="0" r="1" gradientUnits="userSpaceOnUse" gradientTransform="translate(1.49717 179.578) rotate(-180) scale(188.177 2.52585)">
<stop stop-color="#1E90FF"/>
<stop offset="1" stop-opacity="0"/>
</radialGradient>
<radialGradient id="paint40_radial_0_1" cx="0" cy="0" r="1" gradientUnits="userSpaceOnUse" gradientTransform="translate(16.5851 175.981) rotate(-180) scale(147.763 1.26294)">
<stop stop-color="#1E90FF"/>
<stop offset="1" stop-opacity="0"/>
</radialGradient>
<radialGradient id="paint41_radial_0_1" cx="0" cy="0" r="1" gradientUnits="userSpaceOnUse" gradientTransform="translate(0.149346 194.487) rotate(-180) scale(123.763 5.05158)">
<stop stop-color="#1E90FF"/>
<stop offset="1" stop-opacity="0"/>
</radialGradient>
<radialGradient id="paint42_radial_0_1" cx="0" cy="0" r="1" gradientUnits="userSpaceOnUse" gradientTransform="translate(16.5892 186.916) rotate(-180) scale(147.763 3.7888)">
<stop stop-color="#1E90FF"/>
<stop offset="1" stop-opacity="0"/>
</radialGradient>
<radialGradient id="paint43_radial_0_1" cx="0" cy="0" r="1" gradientUnits="userSpaceOnUse" gradientTransform="translate(16.5851 161.205) rotate(180) scale(147.763 0)">
<stop stop-color="#1E90FF"/>
<stop offset="1" stop-opacity="0"/>
</radialGradient>
<radialGradient id="paint44_radial_0_1" cx="0" cy="0" r="1" gradientUnits="userSpaceOnUse" gradientTransform="translate(2.2501 161.07) rotate(-180) scale(263.962 1.26298)">
<stop stop-color="#1E90FF"/>
<stop offset="1" stop-opacity="0"/>
</radialGradient>
</defs>
</svg>
