<svg width="851" height="480" viewBox="0 0 851 480" fill="none" xmlns="http://www.w3.org/2000/svg">
<path d="M499.308 241.388C496.692 237.23 495.739 232.239 496.639 227.41C496.728 226.932 495.981 226.818 495.892 227.296C494.964 232.323 495.967 237.514 498.699 241.835C498.959 242.247 499.567 241.797 499.308 241.388Z" fill="#0E1A60"/>
<path d="M486.369 275.527H153.767C150.342 275.523 147.058 274.16 144.636 271.738C142.214 269.317 140.852 266.033 140.848 262.608V12.919C140.852 9.49385 142.214 6.21007 144.636 3.78812C147.058 1.36617 150.342 0.00384535 153.767 0H486.369C489.794 0.00390615 493.078 1.36627 495.5 3.78821C497.921 6.21016 499.284 9.4939 499.288 12.919V262.608C499.284 266.033 497.921 269.316 495.5 271.738C493.078 274.16 489.794 275.523 486.369 275.527Z" fill="#122073"/>
<path d="M402.659 114.643H351.317C348.78 114.643 346.346 113.635 344.552 111.841C342.758 110.047 341.75 107.614 341.75 105.076C341.75 102.539 342.758 100.106 344.552 98.3114C346.346 96.5173 348.78 95.5093 351.317 95.5093H402.659C405.197 95.5093 407.63 96.5173 409.424 98.3114C411.218 100.106 412.226 102.539 412.226 105.076C412.226 107.614 411.218 110.047 409.424 111.841C407.63 113.635 405.197 114.643 402.659 114.643Z" fill="#0E1A60"/>
<path d="M357.696 140.793H345.578C344.648 140.793 343.756 140.423 343.098 139.765C342.44 139.107 342.07 138.215 342.07 137.285C342.07 136.354 342.44 135.462 343.098 134.804C343.756 134.147 344.648 133.777 345.578 133.777H357.696C358.627 133.777 359.519 134.147 360.177 134.804C360.834 135.462 361.204 136.354 361.204 137.285C361.204 138.215 360.834 139.107 360.177 139.765C359.519 140.423 358.627 140.793 357.696 140.793Z" fill="#0E1A60"/>
<path d="M408.081 140.793H395.963C395.033 140.793 394.14 140.423 393.482 139.765C392.825 139.107 392.455 138.215 392.455 137.285C392.455 136.354 392.825 135.462 393.482 134.804C394.14 134.147 395.033 133.777 395.963 133.777H408.081C409.011 133.777 409.904 134.147 410.561 134.804C411.219 135.462 411.589 136.354 411.589 137.285C411.589 138.215 411.219 139.107 410.561 139.765C409.904 140.423 409.011 140.793 408.081 140.793Z" fill="#0E1A60"/>
<path d="M382.569 140.793H370.451C369.521 140.793 368.629 140.423 367.971 139.765C367.313 139.107 366.943 138.215 366.943 137.285C366.943 136.354 367.313 135.462 367.971 134.804C368.629 134.147 369.521 133.777 370.451 133.777H382.569C383.5 133.777 384.392 134.147 385.05 134.804C385.708 135.462 386.077 136.354 386.077 137.285C386.077 138.215 385.708 139.107 385.05 139.765C384.392 140.423 383.5 140.793 382.569 140.793Z" fill="#0E1A60"/>
<path d="M357.696 154.186H345.578C344.648 154.186 343.756 153.817 343.098 153.159C342.44 152.501 342.07 151.609 342.07 150.678C342.07 149.748 342.44 148.856 343.098 148.198C343.756 147.54 344.648 147.171 345.578 147.171H357.696C358.627 147.171 359.519 147.54 360.177 148.198C360.834 148.856 361.204 149.748 361.204 150.678C361.204 151.609 360.834 152.501 360.177 153.159C359.519 153.817 358.627 154.186 357.696 154.186Z" fill="#0E1A60"/>
<path d="M408.081 154.186H395.963C395.033 154.186 394.14 153.817 393.482 153.159C392.825 152.501 392.455 151.609 392.455 150.678C392.455 149.748 392.825 148.856 393.482 148.198C394.14 147.54 395.033 147.171 395.963 147.171H408.081C409.011 147.171 409.904 147.54 410.561 148.198C411.219 148.856 411.589 149.748 411.589 150.678C411.589 151.609 411.219 152.501 410.561 153.159C409.904 153.817 409.011 154.186 408.081 154.186Z" fill="#0E1A60"/>
<path d="M382.569 154.186H370.451C369.521 154.186 368.629 153.817 367.971 153.159C367.313 152.501 366.943 151.609 366.943 150.678C366.943 149.748 367.313 148.856 367.971 148.198C368.629 147.54 369.521 147.171 370.451 147.171H382.569C383.5 147.171 384.392 147.54 385.05 148.198C385.708 148.856 386.077 149.748 386.077 150.678C386.077 151.609 385.708 152.501 385.05 153.159C384.392 153.817 383.5 154.186 382.569 154.186Z" fill="#0E1A60"/>
<path d="M357.696 167.58H345.578C344.648 167.58 343.756 167.21 343.098 166.553C342.44 165.895 342.07 165.002 342.07 164.072C342.07 163.142 342.44 162.25 343.098 161.592C343.756 160.934 344.648 160.564 345.578 160.564H357.696C358.627 160.564 359.519 160.934 360.177 161.592C360.834 162.25 361.204 163.142 361.204 164.072C361.204 165.002 360.834 165.895 360.177 166.553C359.519 167.21 358.627 167.58 357.696 167.58Z" fill="#0E1A60"/>
<path d="M408.081 167.58H395.963C395.033 167.58 394.14 167.21 393.482 166.553C392.825 165.895 392.455 165.002 392.455 164.072C392.455 163.142 392.825 162.25 393.482 161.592C394.14 160.934 395.033 160.564 395.963 160.564H408.081C409.011 160.564 409.904 160.934 410.561 161.592C411.219 162.25 411.589 163.142 411.589 164.072C411.589 165.002 411.219 165.895 410.561 166.553C409.904 167.21 409.011 167.58 408.081 167.58Z" fill="#0E1A60"/>
<path d="M382.569 167.58H370.451C369.521 167.58 368.629 167.21 367.971 166.553C367.313 165.895 366.943 165.002 366.943 164.072C366.943 163.142 367.313 162.25 367.971 161.592C368.629 160.934 369.521 160.564 370.451 160.564H382.569C383.5 160.564 384.392 160.934 385.05 161.592C385.708 162.25 386.077 163.142 386.077 164.072C386.077 165.002 385.708 165.895 385.05 166.553C384.392 167.21 383.5 167.58 382.569 167.58Z" fill="#0E1A60"/>
<path d="M357.696 180.974H345.578C344.648 180.974 343.756 180.604 343.098 179.946C342.44 179.288 342.07 178.396 342.07 177.466C342.07 176.535 342.44 175.643 343.098 174.985C343.756 174.327 344.648 173.958 345.578 173.958H357.696C358.627 173.958 359.519 174.327 360.177 174.985C360.834 175.643 361.204 176.535 361.204 177.466C361.204 178.396 360.834 179.288 360.177 179.946C359.519 180.604 358.627 180.974 357.696 180.974Z" fill="#0E1A60"/>
<path d="M408.081 180.974H395.963C395.033 180.974 394.14 180.604 393.482 179.946C392.825 179.288 392.455 178.396 392.455 177.466C392.455 176.535 392.825 175.643 393.482 174.985C394.14 174.327 395.033 173.958 395.963 173.958H408.081C409.011 173.958 409.904 174.327 410.561 174.985C411.219 175.643 411.589 176.535 411.589 177.466C411.589 178.396 411.219 179.288 410.561 179.946C409.904 180.604 409.011 180.974 408.081 180.974Z" fill="#0E1A60"/>
<path d="M382.569 180.974H370.451C369.521 180.974 368.629 180.604 367.971 179.946C367.313 179.288 366.943 178.396 366.943 177.466C366.943 176.535 367.313 175.643 367.971 174.985C368.629 174.327 369.521 173.958 370.451 173.958H382.569C383.5 173.958 384.392 174.327 385.05 174.985C385.708 175.643 386.077 176.535 386.077 177.466C386.077 178.396 385.708 179.288 385.05 179.946C384.392 180.604 383.5 180.974 382.569 180.974Z" fill="#0E1A60"/>
<path d="M275.738 166.942C293.703 166.942 308.266 152.379 308.266 134.415C308.266 116.45 293.703 101.887 275.738 101.887C257.774 101.887 243.211 116.45 243.211 134.415C243.211 152.379 257.774 166.942 275.738 166.942Z" fill="#2340CD"/>
<path d="M275.739 174.277C273.202 174.274 270.771 173.265 268.977 171.472C267.184 169.678 266.175 167.246 266.172 164.71V104.12C266.171 102.863 266.418 101.618 266.898 100.456C267.378 99.2945 268.083 98.2389 268.971 97.3497C269.86 96.4606 270.915 95.7552 272.076 95.2739C273.237 94.7926 274.482 94.5449 275.739 94.5449C276.996 94.5449 278.24 94.7926 279.402 95.2739C280.563 95.7552 281.618 96.4606 282.506 97.3497C283.395 98.2389 284.099 99.2945 284.58 100.456C285.06 101.618 285.307 102.863 285.306 104.12V164.71C285.303 167.246 284.294 169.678 282.5 171.472C280.707 173.265 278.275 174.274 275.739 174.277Z" fill="#0E1A60"/>
<path d="M360.716 110.535H351.787C351.449 110.535 351.125 110.401 350.885 110.162C350.646 109.922 350.512 109.598 350.512 109.26C350.512 108.921 350.646 108.597 350.885 108.358C351.125 108.118 351.449 107.984 351.787 107.984H360.716C361.055 107.984 361.379 108.118 361.618 108.358C361.858 108.597 361.992 108.921 361.992 109.26C361.992 109.598 361.858 109.922 361.618 110.162C361.379 110.401 361.055 110.535 360.716 110.535Z" fill="#2340CD"/>
<path d="M374.748 110.854H365.819C365.48 110.854 365.156 110.72 364.917 110.48C364.677 110.241 364.543 109.917 364.543 109.579C364.543 109.24 364.677 108.916 364.917 108.677C365.156 108.437 365.48 108.303 365.819 108.303H374.748C375.086 108.303 375.41 108.437 375.65 108.677C375.889 108.916 376.023 109.24 376.023 109.579C376.023 109.917 375.889 110.241 375.65 110.48C375.41 110.72 375.086 110.854 374.748 110.854Z" fill="#2340CD"/>
<path d="M388.779 111.173H379.85C379.511 111.173 379.187 111.039 378.948 110.799C378.709 110.56 378.574 110.236 378.574 109.897C378.574 109.559 378.709 109.235 378.948 108.995C379.187 108.756 379.511 108.622 379.85 108.622H388.779C389.117 108.622 389.442 108.756 389.681 108.995C389.92 109.235 390.054 109.559 390.054 109.897C390.054 110.236 389.92 110.56 389.681 110.799C389.442 111.039 389.117 111.173 388.779 111.173Z" fill="#2340CD"/>
<path d="M402.81 111.492H393.881C393.543 111.492 393.218 111.357 392.979 111.118C392.74 110.879 392.605 110.555 392.605 110.216C392.605 109.878 392.74 109.554 392.979 109.314C393.218 109.075 393.543 108.941 393.881 108.941H402.81C403.148 108.941 403.473 109.075 403.712 109.314C403.951 109.554 404.086 109.878 404.086 110.216C404.086 110.555 403.951 110.879 403.712 111.118C403.473 111.357 403.148 111.492 402.81 111.492Z" fill="#2340CD"/>
<path d="M183.259 236.142C183.258 237.721 183.571 239.285 184.18 240.743C184.789 242.2 185.681 243.522 186.805 244.631H181.536C179.982 244.631 178.442 244.325 177.006 243.73C175.57 243.135 174.265 242.263 173.166 241.164C172.067 240.065 171.195 238.76 170.6 237.324C170.005 235.888 169.699 234.349 169.699 232.794V40.894C169.699 39.3395 170.005 37.8003 170.6 36.3642C171.195 34.9281 172.067 33.6232 173.166 32.5241C174.265 31.4249 175.57 30.553 177.006 29.9582C178.442 29.3633 179.982 29.0571 181.536 29.0571H189.203C187.395 30.1088 185.894 31.6164 184.851 33.4295C183.808 35.2426 183.259 37.2976 183.259 39.3894L183.259 236.142Z" fill="#2340CD"/>
<path d="M560.006 277.276H88.5965C88.4381 277.275 88.2864 277.208 88.1746 277.088C88.0628 276.969 88 276.807 88 276.638C88 276.469 88.0628 276.307 88.1746 276.187C88.2864 276.068 88.4381 276 88.5965 276H560.006C560.165 276 560.317 276.067 560.429 276.187C560.542 276.306 560.605 276.469 560.605 276.638C560.605 276.807 560.542 276.969 560.429 277.089C560.317 277.208 560.165 277.276 560.006 277.276Z" fill="#283BA9"/>
<path d="M181.985 85.1319C177.954 84.0031 173.908 82.9571 169.848 81.994C155.962 78.6793 141.885 76.2255 127.696 74.6466C125.291 74.0133 122.733 74.3556 120.58 75.5991C118.426 76.8426 116.851 78.8866 116.197 81.286L109.111 107.436C108.46 109.846 108.793 112.416 110.035 114.581C111.277 116.747 113.328 118.331 115.738 118.986L115.833 119.005C125.209 120.07 134.674 121.55 144.087 123.438C144.929 123.604 145.765 123.776 146.607 123.954C149.623 124.579 152.632 125.247 155.631 125.957C156.945 126.263 158.253 126.582 159.566 126.907C163.1 127.788 166.635 128.725 170.173 129.72C174.108 130.83 178.046 132.014 181.985 133.273C182.412 133.4 182.84 133.534 183.26 133.674V85.4955C182.84 85.3679 182.412 85.2467 181.985 85.1319Z" fill="#0E1A60"/>
<path d="M181.985 85.1319C177.954 84.0031 173.908 82.9571 169.848 81.994C155.962 78.6793 141.885 76.2255 127.696 74.6466C125.291 74.0133 122.733 74.3556 120.58 75.5991C118.426 76.8426 116.851 78.8866 116.197 81.286L109.111 107.436C108.46 109.846 108.793 112.416 110.035 114.581C111.277 116.747 113.328 118.331 115.738 118.986L115.833 119.005C125.209 120.07 134.674 121.55 144.087 123.438C144.929 123.604 145.765 123.776 146.607 123.954C149.623 124.579 152.632 125.247 155.631 125.957C156.945 126.263 158.253 126.582 159.566 126.907C163.1 127.788 166.635 128.725 170.173 129.72C174.108 130.83 178.046 132.014 181.985 133.273C182.412 133.4 182.84 133.534 183.26 133.674V132.329C182.833 132.195 182.406 132.061 181.985 131.927C178.362 130.772 174.744 129.686 171.13 128.668C169.778 128.279 168.426 127.902 167.073 127.539C164.637 126.882 162.207 126.253 159.784 125.651C158.495 125.326 157.209 125.013 155.925 124.713C155.829 124.688 155.727 124.669 155.631 124.643C153.444 124.127 151.252 123.633 149.056 123.164C148.214 122.985 147.372 122.806 146.53 122.634C136.376 120.529 126.146 118.89 116.024 117.742C113.954 117.166 112.195 115.795 111.131 113.928C110.067 112.061 109.783 109.849 110.342 107.774L117.428 81.6177C117.994 79.5365 119.364 77.7653 121.235 76.6927C123.106 75.6201 125.327 75.3338 127.409 75.8967L127.505 75.9094C141.513 77.4649 155.413 79.876 169.127 83.1292C169.267 83.1675 169.408 83.1994 169.548 83.2313C173.707 84.2262 177.852 85.302 181.985 86.4585C182.406 86.5733 182.833 86.6945 183.26 86.822V85.4954C182.84 85.3679 182.412 85.2467 181.985 85.1319Z" fill="#223FCC"/>
<path d="M183.26 86.1587V132.998C182.832 132.858 182.412 132.724 181.984 132.59C178.215 131.385 174.433 130.249 170.638 129.184C166.996 128.151 163.341 127.179 159.674 126.27C158.373 125.951 157.078 125.638 155.777 125.332C155.726 125.102 155.675 124.873 155.63 124.643C155.394 123.546 155.21 122.436 155.069 121.32C155.005 120.893 154.961 120.466 154.916 120.032C154.245 113.199 155.18 106.304 157.648 99.8964C160.115 93.4892 164.046 87.7473 169.126 83.1292C169.311 82.9506 169.502 82.7784 169.694 82.6125C173.814 83.5948 177.911 84.6578 181.984 85.8015C182.412 85.91 182.839 86.0312 183.26 86.1587Z" fill="#223FCC"/>
<path d="M140.903 105.337L123.166 103.245C122.542 103.171 121.91 103.221 121.305 103.392C120.7 103.563 120.135 103.851 119.642 104.24C119.149 104.629 118.737 105.112 118.43 105.66C118.123 106.208 117.927 106.812 117.853 107.436C117.78 108.06 117.83 108.692 118 109.297C118.171 109.901 118.459 110.466 118.848 110.96C119.237 111.453 119.72 111.865 120.268 112.172C120.816 112.479 121.42 112.675 122.044 112.748L139.78 114.84C141.039 114.986 142.304 114.626 143.298 113.841C144.292 113.055 144.933 111.907 145.082 110.649C145.23 109.39 144.874 108.125 144.091 107.129C143.307 106.133 142.161 105.489 140.903 105.337ZM143.824 110.503C143.713 111.426 143.241 112.268 142.51 112.843C141.779 113.418 140.851 113.68 139.927 113.571L122.19 111.479C121.269 111.367 120.43 110.894 119.857 110.165C119.283 109.435 119.023 108.508 119.131 107.587C119.24 106.665 119.71 105.825 120.437 105.249C121.165 104.673 122.091 104.409 123.013 104.514L140.75 106.606C141.673 106.718 142.515 107.191 143.091 107.921C143.667 108.651 143.93 109.579 143.824 110.503Z" fill="#223FCC"/>
<path d="M183.259 97.1288V119.343C182.85 119.589 182.424 119.806 181.984 119.994C179.695 121.016 177.157 121.347 174.682 120.945C172.207 120.544 169.904 119.429 168.055 117.736C167.876 117.576 167.697 117.404 167.525 117.226C167.353 117.053 167.187 116.868 167.028 116.684C165.102 114.472 163.99 111.67 163.873 108.74C163.757 105.81 164.645 102.928 166.389 100.571C168.133 98.2142 170.629 96.5231 173.465 95.7777C176.301 95.0323 179.306 95.2771 181.984 96.4718C182.421 96.6677 182.846 96.887 183.259 97.1288Z" fill="#0E1A60"/>
<path d="M181.983 113.208C176.964 114.253 171.978 115.412 167.027 116.683C165.177 117.155 163.334 117.644 161.497 118.15C159.303 118.756 157.109 119.383 154.915 120.032C152.115 120.861 149.32 121.728 146.528 122.634C145.718 122.902 144.902 123.17 144.085 123.438C136.323 126.027 128.613 128.897 121.029 132.029C118.616 132.632 116.539 134.164 115.25 136.292C113.961 138.419 113.565 140.97 114.147 143.388L120.545 169.716C121.137 172.141 122.666 174.232 124.798 175.53C126.93 176.829 129.49 177.229 131.916 176.642L132.005 176.611C144.476 171.495 157.24 167.125 170.229 163.523C174.106 162.445 178.024 161.429 181.983 160.474C182.41 160.372 182.831 160.27 183.258 160.175V112.946C182.831 113.023 182.41 113.112 181.983 113.208Z" fill="#0E1A60"/>
<path d="M181.983 113.208C176.964 114.253 171.978 115.412 167.027 116.683C165.177 117.155 163.334 117.644 161.497 118.15C159.303 118.756 157.109 119.383 154.915 120.032C152.115 120.861 149.32 121.728 146.528 122.634C145.718 122.902 144.902 123.17 144.085 123.438C136.323 126.027 128.613 128.897 121.029 132.029C118.616 132.632 116.539 134.164 115.25 136.292C113.961 138.419 113.565 140.97 114.147 143.388L120.545 169.716C121.137 172.141 122.666 174.232 124.798 175.53C126.93 176.829 129.49 177.229 131.916 176.642L132.005 176.611C144.476 171.495 157.24 167.125 170.229 163.523C174.106 162.445 178.024 161.429 181.983 160.474C182.41 160.372 182.831 160.27 183.258 160.175V158.861C182.831 158.963 182.41 159.065 181.983 159.167C181.664 159.243 181.339 159.32 181.02 159.397C177.27 160.309 173.56 161.274 169.89 162.292C169.795 162.318 169.693 162.349 169.597 162.375C156.674 165.969 143.974 170.324 131.565 175.418C129.473 175.908 127.271 175.553 125.439 174.429C123.607 173.305 122.293 171.504 121.782 169.416L115.391 143.088C114.884 140.992 115.229 138.78 116.35 136.937C117.472 135.095 119.278 133.772 121.373 133.26L121.469 133.228C129.729 129.809 138.135 126.71 146.605 123.954C147.421 123.686 148.237 123.425 149.054 123.163C151.056 122.532 153.061 121.918 155.068 121.32C157.186 120.689 159.301 120.081 161.414 119.496C161.554 119.458 161.695 119.42 161.835 119.381C163.902 118.814 165.974 118.265 168.054 117.736C172.665 116.562 177.308 115.484 181.983 114.502C182.404 114.413 182.831 114.324 183.258 114.241V112.946C182.831 113.023 182.41 113.112 181.983 113.208Z" fill="#223FCC"/>
<path d="M183.26 113.59V159.518C182.839 159.613 182.412 159.709 181.984 159.811C177.992 160.781 174.017 161.814 170.058 162.911C169.898 162.732 169.745 162.554 169.599 162.375C165.466 157.537 162.429 151.862 160.698 145.74C158.966 139.618 158.58 133.193 159.566 126.907C159.598 126.697 159.636 126.48 159.675 126.27C159.707 126.065 159.745 125.855 159.783 125.651C160.177 123.562 160.722 121.505 161.416 119.496C161.499 119.254 161.582 119.011 161.671 118.769C163.616 118.233 165.568 117.719 167.526 117.226C172.316 115.988 177.135 114.864 181.984 113.852C182.405 113.756 182.833 113.673 183.26 113.59Z" fill="#223FCC"/>
<path d="M153.622 155.193C153.143 154.019 152.219 153.082 151.051 152.588C149.883 152.094 148.566 152.084 147.39 152.559L130.84 159.269C129.666 159.747 128.73 160.672 128.237 161.84C127.745 163.007 127.736 164.323 128.212 165.497C128.689 166.672 129.612 167.609 130.779 168.104C131.946 168.598 133.262 168.609 134.437 168.134L150.988 161.425C152.161 160.945 153.097 160.021 153.591 158.853C154.085 157.685 154.096 156.369 153.622 155.193ZM150.509 160.238L133.958 166.954C133.096 167.303 132.131 167.295 131.274 166.932C130.417 166.57 129.74 165.882 129.39 165.02C129.04 164.158 129.047 163.193 129.408 162.336C129.77 161.478 130.456 160.8 131.318 160.449L147.869 153.739C148.731 153.389 149.696 153.396 150.553 153.757C151.41 154.119 152.088 154.807 152.439 155.669C152.789 156.53 152.782 157.496 152.42 158.353C152.059 159.21 151.371 159.888 150.509 160.238Z" fill="#223FCC"/>
<path d="M183.26 125.319V150.327C182.839 150.434 182.413 150.519 181.984 150.582C179.424 150.941 176.814 150.521 174.495 149.378C172.176 148.234 170.255 146.419 168.981 144.169C167.707 141.919 167.14 139.338 167.352 136.761C167.565 134.184 168.547 131.731 170.172 129.72C170.319 129.535 170.472 129.356 170.638 129.184C170.791 129.006 170.957 128.834 171.129 128.668C172.539 127.273 174.253 126.223 176.136 125.599C178.018 124.975 180.02 124.794 181.984 125.071C182.414 125.128 182.84 125.211 183.26 125.319Z" fill="#0E1A60"/>
<path d="M181.984 81.809V145.467C182.412 145.327 182.839 145.193 183.26 145.065V82.3894C182.833 82.1917 182.412 82.0004 181.984 81.809ZM181.984 81.809V145.467C182.412 145.327 182.839 145.193 183.26 145.065V82.3894C182.833 82.1917 182.412 82.0004 181.984 81.809ZM181.984 81.809V145.467C182.412 145.327 182.839 145.193 183.26 145.065V82.3894C182.833 82.1917 182.412 82.0004 181.984 81.809ZM181.984 86.4585V159.811C182.412 159.709 182.839 159.613 183.26 159.518V86.8221C182.833 86.6945 182.405 86.5733 181.984 86.4585ZM181.984 86.4585V159.811C182.412 159.709 182.839 159.613 183.26 159.518V86.8221C182.833 86.6945 182.405 86.5733 181.984 86.4585ZM181.984 86.4585V159.811C182.412 159.709 182.839 159.613 183.26 159.518V86.8221C182.833 86.6945 182.405 86.5733 181.984 86.4585ZM181.984 86.4585V159.811C182.412 159.709 182.839 159.613 183.26 159.518V86.8221C182.833 86.6945 182.405 86.5733 181.984 86.4585ZM181.984 86.4585V160.474C182.412 160.372 182.833 160.27 183.26 160.175V86.8221C182.833 86.6945 182.405 86.5733 181.984 86.4585ZM460.222 26.1488H195.225C191.715 26.1546 188.351 27.5515 185.869 30.0333C183.387 32.5151 181.99 35.8795 181.984 39.3894V236.142C181.99 239.651 183.387 243.015 185.869 245.496C188.352 247.977 191.716 249.372 195.225 249.376H460.222C463.73 249.372 467.094 247.976 469.575 245.495C472.056 243.014 473.452 239.651 473.456 236.142V39.3894C473.453 35.8798 472.058 32.5147 469.577 30.0324C467.096 27.5501 463.731 26.1534 460.222 26.1488ZM472.18 236.142C472.177 239.313 470.916 242.353 468.674 244.595C466.432 246.837 463.392 248.098 460.222 248.101H195.225C192.054 248.098 189.013 246.837 186.77 244.595C184.527 242.354 183.265 239.314 183.26 236.142V39.3894C183.265 36.2175 184.527 33.1769 186.77 30.9341C189.013 28.6913 192.053 27.4291 195.225 27.4244H460.222C463.393 27.4281 466.434 28.69 468.676 30.9333C470.918 33.1765 472.178 36.2178 472.18 39.3894V236.142ZM181.984 86.4585V159.167C182.412 159.065 182.833 158.963 183.26 158.861V86.8221C182.833 86.6945 182.405 86.5733 181.984 86.4585ZM181.984 86.4585V159.811C182.412 159.709 182.839 159.613 183.26 159.518V86.8221C182.833 86.6945 182.405 86.5733 181.984 86.4585ZM181.984 86.4585V159.811C182.412 159.709 182.839 159.613 183.26 159.518V86.8221C182.833 86.6945 182.405 86.5733 181.984 86.4585ZM181.984 86.4585V159.811C182.412 159.709 182.839 159.613 183.26 159.518V86.8221C182.833 86.6945 182.405 86.5733 181.984 86.4585ZM181.984 81.809V145.467C182.412 145.327 182.839 145.193 183.26 145.065V82.3894C182.833 82.1917 182.412 82.0004 181.984 81.809ZM181.984 81.809V145.467C182.412 145.327 182.839 145.193 183.26 145.065V82.3894C182.833 82.1917 182.412 82.0004 181.984 81.809Z" fill="#283BA9"/>
<path style="mix-blend-mode:color-dodge" d="M415.782 352H-120.41V373.378H415.782V352Z" fill="url(#paint0_radial_0_1)"/>
<path style="mix-blend-mode:color-dodge" d="M507.476 372.353H-212.111V383.042H507.476V372.353Z" fill="url(#paint1_radial_0_1)"/>
<path style="mix-blend-mode:color-dodge" d="M507.476 382.525H-212.111V387.87H507.476V382.525Z" fill="url(#paint2_radial_0_1)"/>
<path style="mix-blend-mode:color-dodge" d="M507.476 354.795H-212.111V385.592H507.476V354.795Z" fill="url(#paint3_radial_0_1)"/>
<path style="mix-blend-mode:color-dodge" d="M543.572 392.497H-248.199V407.896H543.572V392.497Z" fill="url(#paint4_radial_0_1)"/>
<path style="mix-blend-mode:color-dodge" d="M724.48 385.002H-429.107V400.401H724.48V385.002Z" fill="url(#paint5_radial_0_1)"/>
<path style="mix-blend-mode:color-dodge" d="M555.205 397.016H-259.822V418.394H555.205V397.016Z" fill="url(#paint6_radial_0_1)"/>
<path style="mix-blend-mode:color-dodge" d="M507.476 424.855H-212.111V435.544H507.476V424.855Z" fill="url(#paint7_radial_0_1)"/>
<path style="mix-blend-mode:color-dodge" d="M507.476 435.036H-212.111V440.381H507.476V435.036Z" fill="url(#paint8_radial_0_1)"/>
<path style="mix-blend-mode:color-dodge" d="M507.476 399.802H-212.111V430.599H507.476V399.802Z" fill="url(#paint9_radial_0_1)"/>
<path style="mix-blend-mode:color-dodge" d="M569.305 445.009H-273.934V460.407H569.305V445.009Z" fill="url(#paint10_radial_0_1)"/>
<path style="mix-blend-mode:color-dodge" d="M850.364 437.504H-555V452.903H850.364V437.504Z" fill="url(#paint11_radial_0_1)"/>
<path style="mix-blend-mode:color-dodge" d="M636.137 468.274H-340.762V482.139H636.137V468.274Z" fill="url(#paint12_radial_0_1)"/>
<path style="mix-blend-mode:color-dodge" d="M609.359 464.282H-313.984V471.133H609.359V464.282Z" fill="url(#paint13_radial_0_1)"/>
<path style="mix-blend-mode:color-dodge" d="M704.454 420.781H-409.09V424.628H704.454V420.781Z" fill="url(#paint14_radial_0_1)"/>
<path style="mix-blend-mode:color-dodge" d="M704.454 458.284H-409.09V462.131H704.454V458.284Z" fill="url(#paint15_radial_0_1)"/>
<path style="mix-blend-mode:color-dodge" d="M133.737 424.887C147.336 394.33 133.933 358.688 103.802 345.279C73.6709 331.87 38.2208 345.771 24.6223 376.328C11.0238 406.886 24.4263 442.527 54.5576 455.936C84.6889 469.345 120.139 455.444 133.737 424.887Z" fill="url(#paint16_radial_0_1)"/>
<path style="mix-blend-mode:color-dodge" d="M402.737 455.887C416.336 425.33 402.933 389.688 372.802 376.279C342.671 362.87 307.221 376.771 293.622 407.328C280.024 437.886 293.426 473.527 323.558 486.936C353.689 500.345 389.139 486.444 402.737 455.887Z" fill="url(#paint17_radial_0_1)"/>
<path style="mix-blend-mode:color-dodge" d="M340.737 148.887C354.336 118.33 340.933 82.6881 310.802 69.2791C280.671 55.8701 245.221 69.7713 231.622 100.328C218.024 130.886 231.426 166.527 261.558 179.936C291.689 193.345 327.139 179.444 340.737 148.887Z" fill="url(#paint18_radial_0_1)"/>
<path style="mix-blend-mode:color-dodge" d="M478.238 353.316C520.895 353.316 555.476 319.219 555.476 277.158C555.476 235.097 520.895 201 478.238 201C435.581 201 401 235.097 401 277.158C401 319.219 435.581 353.316 478.238 353.316Z" fill="url(#paint19_radial_0_1)"/>
<defs>
<radialGradient id="paint0_radial_0_1" cx="0" cy="0" r="1" gradientUnits="userSpaceOnUse" gradientTransform="translate(138.114 361.749) rotate(180) scale(259.461 8.28067)">
<stop stop-color="#1E90FF"/>
<stop offset="1" stop-opacity="0"/>
</radialGradient>
<radialGradient id="paint1_radial_0_1" cx="0" cy="0" r="1" gradientUnits="userSpaceOnUse" gradientTransform="translate(123.135 389.101) rotate(-180) scale(347.811 5.52082)">
<stop stop-color="#1E90FF"/>
<stop offset="1" stop-opacity="0"/>
</radialGradient>
<radialGradient id="paint2_radial_0_1" cx="0" cy="0" r="1" gradientUnits="userSpaceOnUse" gradientTransform="translate(123.135 326.956) rotate(180) scale(347.811 0)">
<stop stop-color="#1E90FF"/>
<stop offset="1" stop-opacity="0"/>
</radialGradient>
<radialGradient id="paint3_radial_0_1" cx="0" cy="0" r="1" gradientUnits="userSpaceOnUse" gradientTransform="translate(123.133 369.533) rotate(-180) scale(347.811 13.802)">
<stop stop-color="#1E90FF"/>
<stop offset="1" stop-opacity="0"/>
</radialGradient>
<radialGradient id="paint4_radial_0_1" cx="0" cy="0" r="1" gradientUnits="userSpaceOnUse" gradientTransform="translate(157.001 396.251) rotate(-180) scale(383.696 5.5208)">
<stop stop-color="#1E90FF"/>
<stop offset="1" stop-opacity="0"/>
</radialGradient>
<radialGradient id="paint5_radial_0_1" cx="0" cy="0" r="1" gradientUnits="userSpaceOnUse" gradientTransform="translate(124.072 388.728) rotate(-180) scale(557.583 5.52064)">
<stop stop-color="#1E90FF"/>
<stop offset="1" stop-opacity="0"/>
</radialGradient>
<radialGradient id="paint6_radial_0_1" cx="0" cy="0" r="1" gradientUnits="userSpaceOnUse" gradientTransform="translate(149.498 406.803) rotate(-180) scale(394.738 8.28121)">
<stop stop-color="#1E90FF"/>
<stop offset="1" stop-opacity="0"/>
</radialGradient>
<radialGradient id="paint7_radial_0_1" cx="0" cy="0" r="1" gradientUnits="userSpaceOnUse" gradientTransform="translate(123.135 441.334) rotate(-180) scale(347.811 5.52082)">
<stop stop-color="#1E90FF"/>
<stop offset="1" stop-opacity="0"/>
</radialGradient>
<radialGradient id="paint8_radial_0_1" cx="0" cy="0" r="1" gradientUnits="userSpaceOnUse" gradientTransform="translate(123.135 380.556) rotate(180) scale(347.811 0)">
<stop stop-color="#1E90FF"/>
<stop offset="1" stop-opacity="0"/>
</radialGradient>
<radialGradient id="paint9_radial_0_1" cx="0" cy="0" r="1" gradientUnits="userSpaceOnUse" gradientTransform="translate(123.133 414.449) rotate(-180) scale(347.811 13.802)">
<stop stop-color="#1E90FF"/>
<stop offset="1" stop-opacity="0"/>
</radialGradient>
<radialGradient id="paint10_radial_0_1" cx="0" cy="0" r="1" gradientUnits="userSpaceOnUse" gradientTransform="translate(153.811 448.893) rotate(-180) scale(408.54 5.52082)">
<stop stop-color="#1E90FF"/>
<stop offset="1" stop-opacity="0"/>
</radialGradient>
<radialGradient id="paint11_radial_0_1" cx="0" cy="0" r="1" gradientUnits="userSpaceOnUse" gradientTransform="translate(170.653 441.379) rotate(-180) scale(681.797 5.52064)">
<stop stop-color="#1E90FF"/>
<stop offset="1" stop-opacity="0"/>
</radialGradient>
<radialGradient id="paint12_radial_0_1" cx="0" cy="0" r="1" gradientUnits="userSpaceOnUse" gradientTransform="translate(119.658 474.193) rotate(-180) scale(472.029 5.5208)">
<stop stop-color="#1E90FF"/>
<stop offset="1" stop-opacity="0"/>
</radialGradient>
<radialGradient id="paint13_radial_0_1" cx="0" cy="0" r="1" gradientUnits="userSpaceOnUse" gradientTransform="translate(149.295 466.782) rotate(-180) scale(447.2 2.76049)">
<stop stop-color="#1E90FF"/>
<stop offset="1" stop-opacity="0"/>
</radialGradient>
<radialGradient id="paint14_radial_0_1" cx="0" cy="0" r="1" gradientUnits="userSpaceOnUse" gradientTransform="translate(124.373 358.025) rotate(-180) scale(538.279 0)">
<stop stop-color="#1E90FF"/>
<stop offset="1" stop-opacity="0"/>
</radialGradient>
<radialGradient id="paint15_radial_0_1" cx="0" cy="0" r="1" gradientUnits="userSpaceOnUse" gradientTransform="translate(124.373 396.299) rotate(-180) scale(538.279 0)">
<stop stop-color="#1E90FF"/>
<stop offset="1" stop-opacity="0"/>
</radialGradient>
<radialGradient id="paint16_radial_0_1" cx="0" cy="0" r="1" gradientUnits="userSpaceOnUse" gradientTransform="translate(67.7035 409.729) rotate(-156.01) scale(59.8976 60.4184)">
<stop stop-color="white"/>
<stop offset="0.1" stop-color="#1E90FF" stop-opacity="1"/>  <!-- Bright center -->
<stop offset="0.2" stop-color="#1E90FF" stop-opacity="0.8"/> <!-- Fading slightly -->
<stop offset="0.3" stop-color="#1E90FF" stop-opacity="0.6"/> <!-- Gradual fade -->
<stop offset="0.4" stop-color="#1E90FF" stop-opacity="0.4"/> <!-- Continuing fade -->
<stop offset="0.5" stop-color="#1E90FF" stop-opacity="0.2"/> <!-- Fainter glow -->
<stop offset="0.6" stop-color="#1E90FF" stop-opacity="0.1"/> <!-- Almost gone -->
<stop offset="0.7" stop-color="#1E90FF" stop-opacity="0.05"/> <!-- Very faint outer glow -->
<stop offset="0.8" stop-color="#1E90FF" stop-opacity="0.02"/> <!-- Barely visible -->
<stop offset="0.9" stop-color="#1E90FF" stop-opacity="0.01"/> <!-- Near transparent -->
<stop offset="1" stop-opacity="0"/> <!-- Fully transparent -->
</radialGradient>
<radialGradient id="paint17_radial_0_1" cx="0" cy="0" r="1" gradientUnits="userSpaceOnUse" gradientTransform="translate(336.704 440.729) rotate(-156.01) scale(59.8976 60.4184)">
<stop stop-color="white"/>
<stop offset="0.1" stop-color="#1E90FF" stop-opacity="1"/>  <!-- Bright center -->
<stop offset="0.2" stop-color="#1E90FF" stop-opacity="0.8"/> <!-- Fading slightly -->
<stop offset="0.3" stop-color="#1E90FF" stop-opacity="0.6"/> <!-- Gradual fade -->
<stop offset="0.4" stop-color="#1E90FF" stop-opacity="0.4"/> <!-- Continuing fade -->
<stop offset="0.5" stop-color="#1E90FF" stop-opacity="0.2"/> <!-- Fainter glow -->
<stop offset="0.6" stop-color="#1E90FF" stop-opacity="0.1"/> <!-- Almost gone -->
<stop offset="0.7" stop-color="#1E90FF" stop-opacity="0.05"/> <!-- Very faint outer glow -->
<stop offset="0.8" stop-color="#1E90FF" stop-opacity="0.02"/> <!-- Barely visible -->
<stop offset="0.9" stop-color="#1E90FF" stop-opacity="0.01"/> <!-- Near transparent -->
<stop offset="1" stop-opacity="0"/> <!-- Fully transparent -->
</radialGradient>
<radialGradient id="paint18_radial_0_1" cx="0" cy="0" r="1" gradientUnits="userSpaceOnUse" gradientTransform="translate(274.704 133.729) rotate(-156.01) scale(59.8976 60.4184)">
<stop stop-color="white"/>
<stop offset="0.1" stop-color="#1E90FF" stop-opacity="1"/>  <!-- Bright center -->
<stop offset="0.2" stop-color="#1E90FF" stop-opacity="0.8"/> <!-- Fading slightly -->
<stop offset="0.3" stop-color="#1E90FF" stop-opacity="0.6"/> <!-- Gradual fade -->
<stop offset="0.4" stop-color="#1E90FF" stop-opacity="0.4"/> <!-- Continuing fade -->
<stop offset="0.5" stop-color="#1E90FF" stop-opacity="0.2"/> <!-- Fainter glow -->
<stop offset="0.6" stop-color="#1E90FF" stop-opacity="0.1"/> <!-- Almost gone -->
<stop offset="0.7" stop-color="#1E90FF" stop-opacity="0.05"/> <!-- Very faint outer glow -->
<stop offset="0.8" stop-color="#1E90FF" stop-opacity="0.02"/> <!-- Barely visible -->
<stop offset="0.9" stop-color="#1E90FF" stop-opacity="0.01"/> <!-- Near transparent -->
<stop offset="1" stop-opacity="0"/> <!-- Fully transparent -->
</radialGradient>
<radialGradient id="paint19_radial_0_1" cx="0" cy="0" r="1" gradientUnits="userSpaceOnUse" gradientTransform="translate(481.319 265.815) rotate(90) scale(76.385 77.0492)">
<stop stop-color="white"/>
<stop offset="0.1" stop-color="#1E90FF" stop-opacity="1"/>  <!-- Bright center -->
<stop offset="0.2" stop-color="#1E90FF" stop-opacity="0.8"/> <!-- Fading slightly -->
<stop offset="0.3" stop-color="#1E90FF" stop-opacity="0.6"/> <!-- Gradual fade -->
<stop offset="0.4" stop-color="#1E90FF" stop-opacity="0.4"/> <!-- Continuing fade -->
<stop offset="0.5" stop-color="#1E90FF" stop-opacity="0.2"/> <!-- Fainter glow -->
<stop offset="0.6" stop-color="#1E90FF" stop-opacity="0.1"/> <!-- Almost gone -->
<stop offset="0.7" stop-color="#1E90FF" stop-opacity="0.05"/> <!-- Very faint outer glow -->
<stop offset="0.8" stop-color="#1E90FF" stop-opacity="0.02"/> <!-- Barely visible -->
<stop offset="0.9" stop-color="#1E90FF" stop-opacity="0.01"/> <!-- Near transparent -->
<stop offset="1" stop-opacity="0"/> <!-- Fully transparent -->
</radialGradient>
</defs>
</svg>

