<svg width="255" height="255" viewBox="0 0 255 255" fill="none" xmlns="http://www.w3.org/2000/svg">
<circle cx="127.5" cy="127.5" r="127.5" fill="#0E1A60"/>
<path d="M115.62 126.142C115.62 125.152 114.817 124.35 113.827 124.35C106.552 124.35 100.685 125.929 96.3864 129.043C83.838 138.135 83.1209 161.418 83.2069 168.335C83.2187 169.317 84.0179 170.106 84.9996 170.106H85.0211C85.4972 170.101 85.9516 169.907 86.2842 169.566C86.6168 169.226 86.8002 168.767 86.794 168.29C86.7384 163.674 87.045 140.232 98.4909 131.941C102.166 129.281 107.327 127.931 113.829 127.931C114.817 127.93 115.618 127.13 115.62 126.142Z" fill="white"/>
<path d="M123.728 166.79C120.055 169.45 114.901 170.8 108.392 170.8C107.402 170.8 106.6 171.603 106.6 172.593C106.6 173.583 107.402 174.385 108.392 174.385C115.667 174.385 121.534 172.806 125.831 169.692C126.369 169.324 126.665 168.693 126.603 168.044C126.542 167.395 126.133 166.83 125.535 166.57C124.938 166.309 124.246 166.393 123.728 166.79Z" fill="white"/>
<path d="M168.299 106.118C168.428 100.147 167.634 88.5059 160.295 81.3801C152.293 73.5894 139.13 73.7364 133.841 74.1594C131.652 74.2941 129.924 76.0719 129.851 78.2646C129.575 83.5618 129.797 96.7287 137.801 104.507C144.19 110.717 153.872 111.876 160.209 111.876C160.77 111.876 161.296 111.866 161.801 111.849C162.963 114.054 163.937 116.352 164.712 118.721C164.935 119.446 165.086 120.191 165.162 120.945C163.735 120.675 162.37 120.142 161.138 119.373L160.451 118.947C159.491 118.31 158.481 117.753 157.431 117.279C150.231 114.029 141.785 115.397 135.98 120.755C135.723 119.814 135.386 118.896 134.973 118.013C134.495 117.236 133.511 116.941 132.685 117.327C131.86 117.713 131.455 118.658 131.746 119.522C119.309 116.494 103.376 115.134 92.1861 123.243C77.3718 133.965 75.9341 158.352 76.0022 168.337C76.0192 172.182 78.4866 175.588 82.1348 176.802C90.5869 179.725 99.4415 181.319 108.382 181.527C116.017 181.527 123.799 180.014 130.045 175.495C141.661 167.07 144.99 150.276 145.877 139.094C145.994 139.237 146.116 139.375 146.216 139.528C146.765 140.351 147.879 140.574 148.702 140.024C149.526 139.475 149.748 138.362 149.199 137.538C148.179 136.1 146.826 134.931 145.255 134.132C145.172 134.072 145.083 134.021 144.99 133.978C144.22 133.578 143.424 133.233 142.606 132.945C143.12 132.615 143.654 132.316 144.205 132.049C145.539 131.331 147.074 131.079 148.568 131.332C149.76 131.704 150.868 132.307 151.827 133.107C152.27 133.424 152.711 133.736 153.159 134.026C154.728 135.069 156.416 135.92 158.187 136.561C160.269 137.296 162.458 137.68 164.666 137.697C169.747 137.844 174.552 135.39 177.413 131.189C180.275 126.988 180.799 121.619 178.802 116.944C176.786 112.144 173.036 108.279 168.299 106.118ZM140.302 101.936C133.348 95.1744 133.187 83.2606 133.431 78.4492C133.423 78.2601 133.493 78.0762 133.625 77.9405C133.757 77.8049 133.939 77.7295 134.128 77.7321C135.132 77.6533 136.446 77.5834 137.963 77.5834C143.699 77.5834 152.304 78.598 157.796 83.9436C163.215 89.2122 164.508 97.5999 164.698 103.327C159.563 94.7241 152.108 87.7421 143.186 83.1817C142.317 82.7075 141.228 83.0277 140.754 83.897C140.28 84.7663 140.6 85.8554 141.469 86.3296C155.884 94.1939 161.342 103.964 163.137 108.2C157.909 108.526 146.881 108.332 140.302 101.936ZM127.944 172.593C114.452 182.361 92.2147 176.415 83.2731 173.401C81.0788 172.674 79.5949 170.626 79.5875 168.314C79.5229 158.883 80.8226 135.892 94.287 126.146C105.496 118.027 122.894 120.859 132.94 123.527C133.503 126.518 133.093 129.612 131.769 132.354C131.492 132.908 131.521 133.567 131.846 134.095C132.171 134.623 132.746 134.945 133.366 134.948C136.475 134.983 139.551 135.578 142.448 136.706C141.867 147.105 139.157 164.463 127.944 172.593ZM175.314 127.673C173.163 132.214 167.247 135.865 159.36 133.166C157.858 132.617 156.427 131.891 155.097 131.004C154.695 130.746 154.303 130.466 153.906 130.183C152.56 129.081 150.998 128.273 149.321 127.811C147.054 127.384 144.71 127.731 142.665 128.797C141.011 129.62 139.455 130.627 138.027 131.798C137.281 131.676 136.568 131.576 135.953 131.515C136.605 129.418 136.86 127.219 136.706 125.029C142.053 119.328 149.514 117.554 155.97 120.556C156.864 120.965 157.724 121.444 158.542 121.99L159.259 122.435C159.438 122.548 163.794 125.163 166.544 124.393C167.327 124.185 167.985 123.656 168.357 122.937C168.912 121.222 168.836 119.366 168.143 117.702C167.459 115.534 166.597 113.426 165.566 111.4C165.949 111.249 166.308 111.042 166.63 110.786L166.699 110.729C167.041 110.449 167.337 110.116 167.573 109.741C171.122 111.564 173.915 114.58 175.461 118.258C176.742 121.277 176.688 124.696 175.314 127.673Z" fill="white"/>
</svg>
